<?xml version="1.0" standalone="no"?><!DOCTYPE svg PUBLIC "-//W3C//DTD SVG 1.1//EN" "http://www.w3.org/Graphics/SVG/1.1/DTD/svg11.dtd"><svg class="icon" width="200px" height="200.00px" viewBox="0 0 1024 1024" version="1.1" xmlns="http://www.w3.org/2000/svg"><path d="M613.1 101.8c0-23.2-18.9-42.1-42.1-42.1H454.2c-23.2 0-42.1 18.9-42.1 42.1v56.4h38.5v-56.4c0-2 1.6-3.6 3.6-3.6H571c2 0 3.6 1.6 3.6 3.6v56.4h38.5v-56.4z" fill="#2F9B77" /><path d="M556.3 181.9h75.3v-35.2c0-8.1-6.5-14.6-14.6-14.6h-46c-8.1 0-14.6 6.5-14.6 14.6l-0.1 35.2zM469 184.4h-75.3v-37.8c0-8.1 6.5-14.6 14.6-14.6h46c8.1 0 14.6 6.5 14.6 14.6l0.1 37.8z" fill="#F2B843" /><path d="M830.3 223.6v662.5c0 30.1-24.4 54.6-54.6 54.6H248.3c-30.2 0-54.6-24.4-54.6-54.6V223.6c0-30.2 24.4-54.6 54.6-54.6h527.4c30.2 0 54.6 24.5 54.6 54.6z" fill="#3DC38A" /><path d="M269.4 169h41.2v771.7h-41.2V169zM380.4 169h41.2v771.7h-41.2V169zM491.4 169h41.2v771.7h-41.2V169zM602.4 169h41.2v771.7h-41.2V169zM713.4 169h41.2v771.7h-41.2V169z" fill="#2F9B77" /><path d="M464 808.8c5-1.8 7.6-7.3 5.9-12.3l-19.4-54.6c-1.8-5-7.3-7.6-12.3-5.9l-141.3 50.3c-5 1.8-7.6 7.3-5.9 12.3l19.4 54.6c1.8 5 7.3 7.6 12.3 5.9L464 808.8z" fill="#EA800C" /><path d="M323.1 269.5l-67.8 54.6c-2.7 2.2-1.6 6.6 1.8 7.2l105.5 19.4c3.3 0.6 5.9-2.9 4.4-5.9l-37.7-73.9c-1.2-2.4-4.2-3.1-6.2-1.4zM697.6 783.4l52.9 69.1c2.1 2.8 6.5 1.8 7.2-1.6l21.9-105c0.7-3.3-2.7-6-5.8-4.5L699 777.2c-2.3 1.1-3 4.1-1.4 6.2z" fill="#F2B843" /><path d="M462.805403 582.790444a47.5 47.5 0 1 0 15.219809-93.772903 47.5 47.5 0 1 0-15.219809 93.772903Z" fill="#EA800C" /><path d="M721.3 421.8h-43c-11 0-20-9-20-20v-43c0-11 9-20 20-20h43c11 0 20 9 20 20v43c0 11-9 20-20 20z" fill="#F2B843" /><path d="M323.1 940.7h-46.4v8.9c0 8.1 6.5 14.6 14.6 14.6h17.2c8.1 0 14.6-6.5 14.6-14.6v-8.9zM747.3 940.7h-46.4v8.9c0 8.1 6.5 14.6 14.6 14.6h17.2c8.1 0 14.6-6.5 14.6-14.6v-8.9z" fill="#F2B843" /><path d="M775.7 159H641.5v-12.4c0-11.4-7.8-21.1-18.4-23.8v-21c0-28.7-23.4-52.1-52.1-52.1H454.2c-28.7 0-52.1 23.4-52.1 52.1v21c-10.5 2.8-18.3 12.4-18.3 23.8V159H248.3c-35.6 0-64.6 29-64.6 64.6v662.5c0 35.6 29 64.6 64.6 64.6h18.4c0.6 13.1 11.4 23.5 24.6 23.5h17.2c13.2 0 24-10.4 24.6-23.5h357.8c0.6 13.1 11.4 23.5 24.6 23.5h17.2c13.2 0 24-10.4 24.6-23.5h18.4c35.6 0 64.6-29 64.6-64.6V223.6c0-35.6-29-64.6-64.6-64.6z m-74.8 771.7h-47.3V418.8c5.4 7.8 14.5 13 24.7 13h25.1V764l-8.7 4.2c-3.8 1.8-6.6 5.2-7.6 9.3-1 4.2-0.1 8.5 2.5 11.9l13.7 17.9v123.3h-2.4z m20.4-518.9h-43c-5.5 0-10-4.5-10-10v-43c0-5.5 4.5-10 10-10h43c5.5 0 10 4.5 10 10v43c0 5.5-4.5 10-10 10z m-17.9-83h-25.1c-10.2 0-19.3 5.2-24.7 13V179h49.8v149.8z m20 504.8l19.1 24.9c0.6 0.8 1.3 1.6 2.1 2.2v70h-21.2v-97.1z m27.2 2.5l-28.8-37.7c-0.2-0.3-0.5-0.7-0.8-1L710 783l57.4-27.5-16.8 80.6z m-27.2-81.7V431.7c8.5-0.6 16.1-4.8 21.2-11v323.6l-21.2 10.1zM744.6 179v160.9c-5.1-6.3-12.7-10.5-21.2-11V179h21.2z m-142.2-20h-36v-12.4c0-2.5 2.1-4.6 4.6-4.6h45.9c2.6 0 4.6 2 4.6 4.6V159h-19.1zM323.1 930.7h-2.5v-61.1c1.8-0.1 3.6-0.4 5.3-1h0.1l44.3-15.8v78h-47.2zM411.6 179v555.9l-21.2 7.5V179h21.2z m69.8 0v300.5c-3.6-0.7-7.2-1.1-11-1.1-14.9 0-28.6 5.7-38.8 15.1V179h49.8z m-20.7-56.2v-14.6h103.9v14.6c-10.5 2.8-18.2 12.4-18.2 23.8V159h-67.5v-12.4c0-11.4-7.7-20.9-18.2-23.8z m-99.9 237.7c0.8 0.2 1.7 0.2 2.5 0.2 2.5 0 4.9-0.7 7-1.9v390.7l-49.8 17.7V353.1l40.3 7.4z m9.6-31l-32.2-63c-2-3.9-5.6-6.7-9.8-7.6-2.7-0.5-5.4-0.3-7.8 0.7V179h49.8v150.5z m-46.7-47.6l29 56.8-38.7-7.1c-1-0.3-2-0.6-3.1-0.6l-38.6-7.1c-0.2-0.1-0.4-0.1-0.6-0.2l52-41.8z m-44.3 63.7l21.2 3.9v424.9l-7.1 2.5c-10.1 3.6-15.4 14.8-12 24.9v0.1l19 53.5v75.2h-21.2v-585zM378 828.8l-1.8 0.6-56.4 20.1-19.2-53.9 140.6-50.1 19.2 53.9-40.9 14.6c-0.9 0.2-1.7 0.5-2.4 0.9L378 828.8z m89.4-10.6c10.1-3.6 15.5-14.8 12-24.9v-0.1L460 738.6c-3.6-10-14.8-15.4-24.9-12h-0.1l-3.2 1.2V578.3c10.2 9.4 23.9 15.1 38.8 15.1 3.8 0 7.4-0.4 11-1.1v338.4h-49.8v-99.8l35.6-12.7z m3-244.8c-20.7 0-37.5-16.8-37.5-37.5s16.8-37.5 37.5-37.5 37.5 16.8 37.5 37.5-16.8 37.5-37.5 37.5z m31-85.9V179h21.2v332.8c-4.6-10-12-18.4-21.2-24.3zM542.6 179h49.8v751.7h-49.8V179zM454.2 69.7H571c17.7 0 32.1 14.4 32.1 32.1V122h-18.5v-20.2c0-7.5-6.1-13.6-13.6-13.6H454.3c-7.5 0-13.6 6.1-13.6 13.6V122h-18.6v-20.2c0-17.7 14.4-32.1 32.1-32.1z m-50.4 76.9c0-2.5 2.1-4.6 4.6-4.6h45.9c2.5 0 4.6 2.1 4.6 4.6V159H403.8v-12.4zM300.6 179v95.8l-21.2 17.1V179h21.2z m-96.9 707.1V223.6c0-24.6 20-44.6 44.6-44.6h11.1v129l-10.4 8.4c-4.3 3.5-6.1 9.2-4.7 14.5 1.4 5.4 5.7 9.3 11 10.3l4.1 0.8v588.8h-11.1c-24.6-0.1-44.6-20.1-44.6-44.7z m104.8 68.1h-17.2c-2.2 0-4-1.5-4.5-3.5H313c-0.5 2-2.3 3.5-4.5 3.5z m81.9-23.5v-85.1l21.2-7.5v92.6h-21.2z m111 0V584.3c9.2-5.9 16.6-14.3 21.2-24.3v370.7h-21.2z m111 0V179h21.2v751.7h-21.2z m120.3 23.5h-17.2c-2.2 0-4-1.5-4.5-3.5h26.2c-0.5 2-2.3 3.5-4.5 3.5z m87.6-68.1c0 24.6-20 44.6-44.6 44.6h-11.1V859c1.4-1.7 2.4-3.8 2.9-6l21.9-105c1.1-5.3-0.8-10.7-5.1-14-4.3-3.3-10-4-14.8-1.6l-4.9 2.3V179h11.1c24.6 0 44.6 20 44.6 44.6v662.5z" fill="#4D3500" /></svg>