<?xml version="1.0" standalone="no"?><!DOCTYPE svg PUBLIC "-//W3C//DTD SVG 1.1//EN" "http://www.w3.org/Graphics/SVG/1.1/DTD/svg11.dtd"><svg class="icon" width="200px" height="200.00px" viewBox="0 0 1024 1024" version="1.1" xmlns="http://www.w3.org/2000/svg"><path d="M862 840.1V183.9c0-45.3-36.7-81.9-81.9-81.9H243.9c-45.3 0-81.9 36.7-81.9 81.9V840c0 45.3 36.7 81.9 81.9 81.9h536.2c45.2 0.1 81.9-36.6 81.9-81.8z" fill="#3DC38A" /><path d="M338.7 711c-41.5 0-75.3 33.8-75.3 75.3s33.8 75.3 75.3 75.3 75.3-33.8 75.3-75.3-33.8-75.3-75.3-75.3z m25.9 75.3c0 14.3-11.6 26-26 26-14.3 0-26-11.6-26-26 0-14.3 11.6-26 26-26s26 11.6 26 26z" fill="#2F9B77" /><path d="M742.2 761.6H499.1c-13.6 0-24.7 11.1-24.7 24.7s11.1 24.7 24.7 24.7h243.2c13.6 0 24.7-11.1 24.7-24.7s-11.2-24.7-24.8-24.7z" fill="#FFFFFF" /><path d="M338.7 521.8c-41.5 0-75.3 33.8-75.3 75.3s33.8 75.3 75.3 75.3 75.3-33.8 75.3-75.3c-0.1-41.5-33.8-75.3-75.3-75.3z m25.9 75.3c0 14.3-11.6 26-26 26-14.3 0-26-11.6-26-26s11.6-26 26-26 26 11.7 26 26z" fill="#2F9B77" /><path d="M742.2 572.4H499.1c-13.6 0-24.7 11.1-24.7 24.7s11.1 24.7 24.7 24.7h243.2c13.6 0 24.7-11.1 24.7-24.7-0.1-13.6-11.2-24.7-24.8-24.7zM499.1 452.8h243.2c13.6 0 24.7-11.1 24.7-24.7s-11.1-24.7-24.7-24.7H499.1c-13.6 0-24.7 11.1-24.7 24.7 0 13.7 11.1 24.7 24.7 24.7z" fill="#FFFFFF" /><path d="M400.3 346.5c-6.6 0-12.8 2.6-17.4 7.2l-70.7 70.7-17.7-17.7c-4.7-4.7-10.8-7.2-17.4-7.2s-12.8 2.6-17.4 7.2c-4.7 4.7-7.2 10.8-7.2 17.4s2.6 12.8 7.2 17.4l35.2 35.2c4.7 4.7 10.8 7.2 17.4 7.2s12.8-2.6 17.4-7.2l88.1-88.1c4.7-4.7 7.2-10.8 7.2-17.4s-2.6-12.8-7.2-17.4c-4.8-4.7-10.9-7.3-17.5-7.3z" fill="#EA800C" /><path d="M741.1 284.7H278.2c-14.3 0-25.8-11.6-25.8-25.8v-62.4c0-14.3 11.6-25.8 25.8-25.8h462.9c14.3 0 25.8 11.6 25.8 25.8v62.4c0 14.2-11.6 25.8-25.8 25.8z" fill="#F2B843" /><path d="M780.1 92H243.9c-50.7 0-91.9 41.2-91.9 91.9V840c0 50.7 41.2 91.9 91.9 91.9H780.3c24.4 0 47.4-9.5 64.7-26.8 17.4-17.4 27-40.4 27-65V183.9c0-50.7-41.2-91.9-91.9-91.9zM852 840.1c0 19.2-7.5 37.3-21.1 50.8-13.5 13.5-31.5 21-50.6 21H243.9c-39.6 0-71.9-32.3-71.9-71.9V183.9c0-39.6 32.3-71.9 71.9-71.9h536.2c39.6 0 71.9 32.3 71.9 71.9v656.2z" fill="#4D3500" /><path d="M338.7 701c-47 0-85.3 38.3-85.3 85.3s38.3 85.3 85.3 85.3 85.3-38.3 85.3-85.3-38.3-85.3-85.3-85.3z m0 150.6c-36 0-65.3-29.3-65.3-65.3s29.3-65.3 65.3-65.3 65.3 29.3 65.3 65.3-29.3 65.3-65.3 65.3z" fill="#4D3500" /><path d="M338.6 750.3c-19.9 0-36 16.1-36 36s16.1 36 36 36 36-16.1 36-36-16.1-36-36-36z m0 52c-8.8 0-16-7.2-16-16s7.2-16 16-16 16 7.2 16 16-7.2 16-16 16zM742.2 751.6H499.1c-19.1 0-34.7 15.6-34.7 34.7S480 821 499.1 821h243.2c19.1 0 34.7-15.6 34.7-34.7s-15.6-34.7-34.8-34.7z m0.1 49.4H499.1c-8.1 0-14.7-6.6-14.7-14.7s6.6-14.7 14.7-14.7h243.1c8.2 0 14.8 6.6 14.8 14.7s-6.6 14.7-14.7 14.7zM338.6 561.1c-19.9 0-36 16.1-36 36s16.1 36 36 36 36-16.1 36-36-16.1-36-36-36z m0 52c-8.8 0-16-7.2-16-16s7.2-16 16-16 16 7.2 16 16-7.2 16-16 16z" fill="#4D3500" /><path d="M338.7 511.8c-47 0-85.3 38.3-85.3 85.3s38.3 85.3 85.3 85.3 85.3-38.3 85.3-85.3c-0.1-47-38.4-85.3-85.3-85.3z m0 150.6c-36 0-65.3-29.3-65.3-65.3s29.3-65.3 65.3-65.3c35.9 0 65.2 29.3 65.3 65.3 0 36-29.3 65.3-65.3 65.3zM742.2 562.4H499.1c-19.1 0-34.7 15.6-34.7 34.7s15.6 34.7 34.7 34.7h243.2c19.1 0 34.7-15.6 34.7-34.8-0.1-19.1-15.8-34.6-34.8-34.6z m0.1 49.4H499.1c-8.1 0-14.7-6.6-14.7-14.7s6.6-14.7 14.7-14.7h243.1c8.1 0 14.7 6.6 14.8 14.7 0 8.1-6.6 14.7-14.7 14.7zM742.3 393.4H499.1c-19.1 0-34.7 15.6-34.7 34.7s15.6 34.7 34.7 34.7h243.2c19.1 0 34.7-15.6 34.7-34.7s-15.6-34.7-34.7-34.7z m0 49.4H499.1c-8.1 0-14.7-6.6-14.7-14.7s6.6-14.7 14.7-14.7h243.2c8.1 0 14.7 6.6 14.7 14.7s-6.6 14.7-14.7 14.7zM424.8 346.7c-6.7-6.5-15.4-10.2-24.5-10.2-9.2 0-17.9 3.6-24.5 10.1l-63.6 63.6-10.6-10.6c-6.5-6.5-15.2-10.1-24.5-10.1-9.2 0-17.9 3.6-24.5 10.1-6.5 6.5-10.1 15.2-10.1 24.5 0 9.2 3.6 17.9 10.1 24.5l35.2 35.2c6.5 6.5 15.2 10.1 24.5 10.1 9.2 0 17.9-3.6 24.5-10.1l88.1-88.1c6.5-6.5 10.1-15.2 10.1-24.5s-3.6-17.9-10.2-24.5z m-14.1 34.8l-88.1 88.1c-2.8 2.8-6.4 4.3-10.3 4.3-4 0-7.5-1.5-10.3-4.3l-35.2-35.2c-2.8-2.8-4.3-6.4-4.3-10.3 0-4 1.5-7.5 4.3-10.3 2.8-2.8 6.4-4.3 10.3-4.3 4 0 7.5 1.5 10.3 4.3l17.7 17.7c3.9 3.9 10.2 3.9 14.1 0l70.7-70.7c2.8-2.8 6.4-4.3 10.3-4.3 3.9 0 7.5 1.5 10.5 4.4 2.7 2.8 4.2 6.4 4.2 10.3 0.1 4-1.4 7.5-4.2 10.3zM278.2 294.7h462.9c19.7 0 35.8-16.1 35.8-35.8v-62.4c0-19.7-16.1-35.8-35.8-35.8H278.2c-19.7 0-35.8 16.1-35.8 35.8v62.4c0 19.7 16.1 35.8 35.8 35.8z m-15.8-98.2c0-8.7 7.1-15.8 15.8-15.8h462.9c8.7 0 15.8 7.1 15.8 15.8v62.4c0 8.7-7.1 15.8-15.8 15.8H278.2c-8.7 0-15.8-7.1-15.8-15.8v-62.4z" fill="#4D3500" /></svg>