<?xml version="1.0" standalone="no"?><!DOCTYPE svg PUBLIC "-//W3C//DTD SVG 1.1//EN" "http://www.w3.org/Graphics/SVG/1.1/DTD/svg11.dtd"><svg class="icon" width="200px" height="200.00px" viewBox="0 0 1024 1024" version="1.1" xmlns="http://www.w3.org/2000/svg"><path d="M742.8 363l-54-54 54-54 54 54-54 54z" fill="#EA800C" /><path d="M291 935.1L116.7 760.8c-22.5-22.5-22.5-59.1 0-81.6l360.1-360.1c70.7-70.7 185.2-70.7 255.9 0s70.7 185.2 0 255.9L372.6 935.1c-22.5 22.5-59.1 22.5-81.6 0z" fill="#3DC38A" /><path d="M670.6 628.3l-247-247c-7.4-7.4-7.4-19.5 0-26.9l37.9-37.9c7.4-7.4 19.5-7.4 26.9 0l247 247c7.4 7.4 7.4 19.5 0 26.9l-37.9 37.9c-7.5 7.4-19.5 7.4-26.9 0zM395.2 903.6l-247-247c-7.4-7.4-7.4-19.5 0-26.9l37.9-37.9c7.4-7.4 19.5-7.4 26.9 0l247 247c7.4 7.4 7.4 19.5 0 26.9l-37.9 37.9c-7.4 7.5-19.5 7.5-26.9 0z" fill="#F2B843" /><path d="M445 652.5l-48.6-48.6c-109.5-109.5-109.5-287.6 0-397l56.7-56.7c11.8-11.8 30.9-11.8 42.7 0s11.8 30.9 0 42.7l-56.7 56.7c-85.9 85.9-85.9 225.7 0 311.6l48.6 48.6c85.9 85.9 225.7 85.9 311.6 0s85.9-225.7 0-311.6l-98.5-98.5c-11.8-11.8-11.8-30.9 0-42.7s30.9-11.8 42.7 0l98.5 98.5c109.5 109.5 109.5 287.6 0 397s-287.5 109.5-397 0z" fill="#2F9B77" /><path d="M797.8 254m-68.1 0a68.1 68.1 0 1 0 136.2 0 68.1 68.1 0 1 0-136.2 0Z" fill="#F2B843" /><path d="M480.9 165.2m-93.2 0a93.2 93.2 0 1 0 186.4 0 93.2 93.2 0 1 0-186.4 0Z" fill="#EA800C" /><path d="M480.9 165.2m-44.4 0a44.4 44.4 0 1 0 88.8 0 44.4 44.4 0 1 0-88.8 0Z" fill="#3DC38A" /><path d="M872.9 275.3c1.9-6.8 3-13.9 3-21.3 0-43.1-35-78.1-78.1-78.1-6.5 0-12.8 0.8-18.8 2.3l-28.3-28.3c-7.6-7.6-17.7-11.8-28.4-11.8s-20.8 4.2-28.4 11.8c-7.6 7.6-11.8 17.7-11.8 28.4s4.2 20.8 11.8 28.4l28.2 28.2c-1.5 6.1-2.4 12.5-2.4 19 0 3.2 0.2 6.3 0.6 9.4l-18.8 18.9c-69.8-41.1-158.5-33.4-220.4 19.3-9.3-2-19.5 0.6-26.7 7.8l-37.9 37.9c-7 7-9.7 16.8-8 26L384.9 397c2-50.7 22.3-99.2 57.3-136.2 12 4.9 25.1 7.6 38.8 7.6 56.9 0 103.2-46.3 103.2-103.2C584.2 108.3 537.9 62 481 62c-56.9 0-103.2 46.3-103.2 103.2 0 13.7 2.7 26.8 7.6 38.8-33.9 35.3-58.4 78.7-71.1 125.9-12.2 45.7-13.1 94.1-2.6 140.3L204.9 576.8c-9.3-1.7-19 1.1-25.9 8l-37.8 37.8c-7 6.9-9.8 16.7-8 26L109.8 672c-26.4 26.4-26.4 69.3 0 95.7L284 942.1c13.2 13.2 30.5 19.8 47.9 19.8 17.3 0 34.7-6.6 47.9-19.8l23.6-23.6c1.8 0.3 3.6 0.5 5.3 0.5 7.5 0 15-2.9 20.6-8.5l37.8-37.8c7-6.9 9.8-16.7 8-26l108.5-108.4c19.7 4.1 39.8 6.2 60 6.2 26.2 0 52.5-3.5 77.8-10.5 48.1-13.3 92.3-39 127.7-74.5 51-51.1 81.1-119 84.7-191.2 3.4-69.9-18.2-138.2-60.9-193z m-17-21.3c0 32-26.1 58.1-58.1 58.1S739.7 286 739.7 254s26.1-58.1 58.1-58.1 58.1 26.1 58.1 58.1z m-195 378.7l-31.1 31c-51.1-3.3-98.9-24.9-135-61l-48.6-48.6c-34.8-34.7-56.2-80.5-60.6-129.5l33.6-33.6 241.7 241.7z m17.7 10.6c1.8 0.3 3.6 0.5 5.4 0.5 7.4 0 14.9-2.8 20.6-8.4l37.9-37.9c7.3-7.3 9.9-17.6 7.8-26.9 52.5-61.7 60.2-150.2 19.3-220l18.9-19c3.1 0.4 6.2 0.6 9.4 0.6 5.5 0 10.8-0.6 16-1.7 60.4 83.2 51.6 199.1-21.6 272.3-21.3 21.2-46.2 37.3-74 47.9-19.4 7.4-39.5 11.7-60.1 13.1l20.4-20.5zM708 192.6c-3.8-3.8-5.9-8.9-5.9-14.3s2.1-10.5 5.9-14.3c3.8-3.8 8.9-5.9 14.3-5.9s10.5 2.1 14.3 5.9l22.3 22.3c-11.8 6.8-21.7 16.7-28.6 28.5L708 192.6z m58.3 132.8l-8 8c-5.6-7.6-11.8-14.8-18.5-21.5-6.7-6.7-13.9-12.9-21.3-18.4l7.9-8c7.9 17.8 22.1 32.1 39.9 39.9z m-69.8-22.7c0.6 0.5 1.3 0.9 1.9 1.3 9.6 6.3 18.7 13.7 27.2 22.1 8.6 8.6 16.3 18.1 22.8 28.3 39.8 61.7 35.5 141.7-9.5 198.5l-240-240c56.6-44.9 136.1-49.4 197.6-10.2z m-265.8 58.8l37.9-37.9c3.5-3.5 9.2-3.5 12.8 0l247 247c0.4 0.4 0.8 0.9 1.1 1.4 0.2 0.6 0.6 1.3 0.9 1.8 1.2 3.2 0.5 7-2.1 9.5l-37.9 37.9c-3.6 3.5-9.3 3.5-12.8 0l-247-247c-3.4-3.5-3.4-9.2 0.1-12.7zM480.9 82c45.9 0 83.2 37.3 83.2 83.2 0 45.9-37.3 83.2-83.2 83.2s-83.2-37.3-83.2-83.2c0-45.9 37.3-83.2 83.2-83.2zM317.6 492.4c14 44.6 38.6 85.3 71.7 118.5l48.6 48.6c34.4 34.4 76.7 59.4 123 73.1L464.4 829 222.7 587.3l94.9-94.9z m47.9 435.7c-18.6 18.6-48.9 18.6-67.5 0L123.9 753.7c-18.6-18.6-18.6-48.9 0-67.5l20-20 241.7 241.9-20.1 20z m87.4-69.5L415 896.5c-2.7 2.7-6.8 3.4-10.3 1.8-0.2-0.1-0.5-0.2-0.7-0.3-0.6-0.4-1.2-0.8-1.9-1.5l-246.8-247c-0.8-0.8-1.3-1.5-1.7-2.4-0.1-0.3-0.3-0.6-0.5-0.9-1.2-3.3-0.4-6.9 2.1-9.4l37.9-37.9c2.7-2.7 6.8-3.4 10.3-1.8 0.2 0.1 0.5 0.2 0.7 0.3 0.6 0.4 1.2 0.8 1.9 1.5l246.9 246.9c0.8 0.8 1.3 1.5 1.7 2.4 1.8 3.6 1.1 7.7-1.7 10.4z m460.9-391.2c-3.3 67.3-31.3 130.5-78.8 178-33 33-74.1 57-118.9 69.3-43.4 12-89.6 13-133.6 2.9-49.4-11.4-94.5-36.3-130.4-72.2l-48.6-48.6c-34.7-34.7-59.3-78.3-71.2-125.9-11-44.5-10.6-91.5 1.2-135.8 11.2-41.8 32.4-80.5 61.7-112.4 7.6 11.3 17.3 21 28.7 28.5-41.6 46.2-62.9 107.6-58.6 170.2 3.8 55.5 27.5 107.7 66.8 146.9l48.6 48.6c40.7 40.7 94.8 64.5 152.5 67.1 3.6 0.2 7.1 0.2 10.6 0.2 27.9 0 55.3-5 81.5-14.9 30.5-11.6 57.8-29.2 81.1-52.4 78.7-78.7 89.4-202.7 27-293.4 12.3-6.3 22.7-15.8 30.1-27.3 35.5 49.4 53.3 109.6 50.3 171.2z" fill="#4D3500" /><path d="M480.9 219.6c30 0 54.4-24.4 54.4-54.4s-24.4-54.4-54.4-54.4-54.4 24.4-54.4 54.4 24.4 54.4 54.4 54.4z m0-88.8c19 0 34.4 15.4 34.4 34.4s-15.4 34.4-34.4 34.4-34.4-15.4-34.4-34.4 15.4-34.4 34.4-34.4z" fill="#4D3500" /></svg>