<?xml version="1.0" standalone="no"?><!DOCTYPE svg PUBLIC "-//W3C//DTD SVG 1.1//EN" "http://www.w3.org/Graphics/SVG/1.1/DTD/svg11.dtd"><svg class="icon" width="200px" height="200.00px" viewBox="0 0 1024 1024" version="1.1" xmlns="http://www.w3.org/2000/svg"><path d="M336.3 72h331.3v205.6H336.3z" fill="#F2B843" /><path d="M405.6 72h192.8v205.6H405.6z" fill="#EA800C" /><path d="M336.3 746.4h331.3V952H336.3z" fill="#F2B843" /><path d="M405.6 746.4h192.8V952H405.6z" fill="#EA800C" /><path d="M859.7 566h-62.1c-17.2 0-31.3-14.1-31.3-31.3v-49.1c0-17.2 14.1-31.3 31.3-31.3h62.1c17.2 0 31.3 14.1 31.3 31.3v49.1c0 17.3-14.1 31.3-31.3 31.3z" fill="#3DC38A" /><path d="M212.4 721.2l43.9-43.9c12.2-12.2 32.1-12.2 44.3 0l34.7 34.7c12.2 12.2 12.2 32.1 0 44.3l-43.9 43.9c-12.2 12.2-32.1 12.2-44.3 0l-34.7-34.7c-12.2-12.2-12.2-32.1 0-44.3zM668.5 265.1l43.9-43.9c12.2-12.2 32.1-12.2 44.3 0l34.7 34.7c12.2 12.2 12.2 32.1 0 44.3l-43.9 43.9c-12.2 12.2-32.1 12.2-44.3 0l-34.7-34.7c-12.2-12.2-12.2-32.1 0-44.3zM291.4 221.1l43.9 43.9c12.2 12.2 12.2 32.1 0 44.3L300.6 344c-12.2 12.2-32.1 12.2-44.3 0l-43.9-43.9c-12.2-12.2-12.2-32.1 0-44.3l34.7-34.7c12.2-12.1 32.1-12.1 44.3 0zM747.5 677.3l43.9 43.9c12.2 12.2 12.2 32.1 0 44.3l-34.7 34.7c-12.2 12.2-32.1 12.2-44.3 0l-43.9-43.9c-12.2-12.2-12.2-32.1 0-44.3l34.7-34.7c12.2-12.2 32.1-12.2 44.3 0z" fill="#F2B843" /><path d="M501.9 510.7m-328.9 0a328.9 328.9 0 1 0 657.8 0 328.9 328.9 0 1 0-657.8 0Z" fill="#2F9B77" /><path d="M501.9 510.7m-260.1 0a260.1 260.1 0 1 0 520.2 0 260.1 260.1 0 1 0-520.2 0Z" fill="#3DC38A" /><path d="M500.5 379.6l-24.1 131.3 48.1 1.1z" fill="#EA800C" /><path d="M698.9 632.5L513.4 492.8l-25.6 40.8z" fill="#EA800C" /><path d="M494.787015 554.628355a44.5 44.5 0 1 0 14.258559-87.850405 44.5 44.5 0 1 0-14.258559 87.850405Z" fill="#FFFFFF" /><path d="M501.9 361.7c-11.9 0-21.7-9.7-21.7-21.7v-67.7c0-11.9 9.7-21.7 21.7-21.7 11.9 0 21.7 9.7 21.7 21.7V340c-0.1 11.8-9.8 21.7-21.7 21.7zM501.9 770.8c-11.9 0-21.7-9.7-21.7-21.7v-67.7c0-11.9 9.7-21.7 21.7-21.7 11.9 0 21.7 9.7 21.7 21.7v67.7c-0.1 12-9.8 21.7-21.7 21.7zM651 510.7c0-11.9 9.7-21.7 21.7-21.7h67.7c11.9 0 21.7 9.7 21.7 21.7 0 11.9-9.7 21.7-21.7 21.7h-67.7c-12 0-21.7-9.7-21.7-21.7zM241.8 510.7c0-11.9 9.7-21.7 21.7-21.7h67.7c11.9 0 21.7 9.7 21.7 21.7 0 11.9-9.7 21.7-21.7 21.7h-67.7c-11.9 0-21.7-9.7-21.7-21.7z" fill="#F2B843" /><path d="M607.3 405.3c-8.5-8.5-8.5-22.2 0-30.6l47.9-47.9c8.5-8.5 22.2-8.5 30.6 0 8.5 8.5 8.5 22.2 0 30.6l-47.9 47.9c-8.4 8.4-22.2 8.4-30.6 0zM318 694.6c-8.5-8.5-8.5-22.2 0-30.6l47.9-47.9c8.5-8.5 22.2-8.5 30.6 0 8.5 8.5 8.5 22.2 0 30.6l-47.9 47.9c-8.5 8.4-22.2 8.4-30.6 0zM607.3 616.2c8.5-8.5 22.2-8.5 30.6 0l47.9 47.9c8.5 8.5 8.5 22.2 0 30.6-8.5 8.5-22.2 8.5-30.6 0l-47.9-47.9c-8.4-8.5-8.4-22.3 0-30.6zM318 326.8c8.5-8.5 22.2-8.5 30.6 0l47.9 47.9c8.5 8.5 8.5 22.2 0 30.6-8.5 8.5-22.2 8.5-30.6 0L318 357.4c-8.5-8.3-8.5-22.1 0-30.6z" fill="#F2B843" /><path d="M859.7 444.3h-25.4c-8.7-43.9-25.8-84.9-50.7-122.1l14.9-14.9c16.1-16.1 16.1-42.3 0-58.4l-34.7-34.7c-7.8-7.8-18.2-12.1-29.2-12.1s-21.4 4.3-29.2 12.1l-15 14.8c-4.3-2.9-8.6-5.6-12.8-8.2V72c0-5.5-4.5-10-10-10H336.3c-5.5 0-10 4.5-10 10v148.8c-4.3 2.6-8.6 5.4-12.9 8.3l-14.9-14.9c-16.1-16-42.3-16-58.4 0l-34.7 34.7c-16.1 16.1-16.1 42.3 0 58.4l14.9 14.9C182.8 378 163 443 163 510.7s19.8 132.6 57.3 188.5l-14.9 14.9c-16.1 16.1-16.1 42.3 0 58.4l34.7 34.7c7.8 7.8 18.2 12.1 29.2 12.1s21.4-4.3 29.2-12.1l14.9-14.9c4.3 2.9 8.6 5.7 12.9 8.3V952c0 5.5 4.5 10 10 10h331.3c5.5 0 10-4.5 10-10V800.5c4.4-2.7 8.7-5.4 12.8-8.2l14.9 14.9c7.8 7.8 18.2 12.1 29.2 12.1s21.4-4.3 29.2-12.1l34.7-34.7c16.1-16.1 16.1-42.3 0-58.4l-15-15c24.9-37.1 42.3-79.4 50.9-123.2h25.3c22.8 0 41.3-18.5 41.3-41.3v-49.1c0.1-22.7-18.4-41.2-41.2-41.2zM734.5 222c5.7 0 11.1 2.2 15.1 6.2l34.7 34.7c8.3 8.3 8.3 21.8 0 30.2l-12.6 12.6c-18.5-24.4-40.3-46.1-64.9-64.8l12.6-12.6c4.1-4 9.4-6.3 15.1-6.3z m-76.9-12.4c-15.9-8.3-32.4-15.2-49.2-20.7V82h49.2v127.6zM588.4 82v101c-28.3-7.4-57.4-11.2-86.6-11.2-29.3 0-58.2 3.7-86.2 11V82h172.8z m-192.8 0v106.8c-17.1 5.7-33.6 12.6-49.3 20.7V82h49.3z m-176 181l34.7-34.7c8.3-8.3 21.9-8.3 30.2 0l12.5 12.6c-24.5 18.6-46.2 40.3-64.8 64.8l-12.5-12.5c-8.4-8.4-8.4-21.9-0.1-30.2z m21.2 64.6c0.5-0.6 0.9-1.2 1.3-1.8 20.6-29 45.7-54.1 74.7-74.8 0.9-0.4 1.7-1 2.5-1.8 7.2-5 14.4-9.6 21.4-13.8 0.5-0.2 1-0.5 1.4-0.8 20.5-12 42.7-21.7 65.9-28.8 0.4-0.1 0.7-0.2 1.1-0.3 29.9-9.1 61.1-13.7 92.8-13.7 31.7 0 63.2 4.7 93.6 14 23.1 7 45.7 16.9 67.1 29.4 7.7 4.4 15.3 9.3 23.3 15 29.9 21.2 55.7 47 76.6 76.6 27.5 38.9 45.6 82.3 53.7 129.2 3.1 17.8 4.6 36.2 4.6 54.7 0 17.8-1.5 35.9-4.5 53.6-7.9 46.6-26.6 91.6-53.9 130.3-21.2 29.9-47 55.7-76.7 76.6-7.2 5.2-15 10.2-23.2 15-21 12.3-43.6 22.2-67.1 29.4-30 9.3-61.5 14-93.6 14-31.6 0-62.8-4.6-92.8-13.7-0.3-0.1-0.7-0.2-1-0.3-22.9-7.1-45.1-16.8-65.9-28.9-0.4-0.3-0.9-0.6-1.4-0.8-7.5-4.4-15.1-9.3-22.7-14.7-29.8-21-55.6-46.8-76.6-76.6-38.2-54-58.4-117.6-58.4-183.9 0-66 20-129.3 57.8-183.1z m28.4 471.8c-5.7 0-11.1-2.2-15.1-6.2l-34.7-34.7c-8.3-8.3-8.3-21.8 0-30.2l12.6-12.6c18.6 24.5 40.3 46.3 64.9 64.9l-12.6 12.6c-4 3.9-9.3 6.2-15.1 6.2z m77.1 12.5c15.9 8.2 32.4 15.2 49.3 20.8V942h-49.3V811.9zM415.6 942V838.5c28 7.3 57 11.1 86.2 11.1 29.5 0 58.6-3.8 86.6-11.2V942H415.6z m192.8 0V832.5c16.9-5.6 33.4-12.6 49.2-20.7V942h-49.2z m175.9-183.6l-34.7 34.7c-4 4-9.4 6.2-15.1 6.2s-11.1-2.2-15.1-6.2l-12.6-12.6c24.4-18.5 46.1-40.3 64.8-64.9l12.6 12.6c8.4 8.4 8.4 21.9 0.1 30.2zM881 534.7c0 11.7-9.6 21.3-21.3 21.3h-22c2-15.1 3-30.2 3-45.2 0.1-15.6-1-31.2-3-46.5h22c11.7 0 21.3 9.6 21.3 21.3v49.1z" fill="#4D3500" /><path d="M275.6 658.1c9.9 15.2 21.2 29.2 33.8 42 0.5 0.5 0.9 1 1.4 1.5 0.5 0.5 1.1 1 1.6 1.5C334 724.4 359 742 386.7 755c0.2 0.1 0.4 0.2 0.6 0.4 4.9 2.4 9.8 4.4 14.5 6.3 31.8 12.7 65.4 19.1 100 19.1h0.1c34.5 0 68.2-6.5 100.1-19.2 4.3-1.6 8.7-3.5 14.3-6.1 45.6-21.4 84.4-55 112-97.3 28.3-43.4 43.5-93.8 43.8-145.9v-0.5-1-0.8-0.7c-0.3-50.9-14.9-100.5-42.1-143.3-26.5-41.6-63.8-75.3-107.9-97.2-6-3-12.5-5.9-19.9-8.8-31.9-12.7-65.6-19.2-100.2-19.2h-0.1-0.1c-34.3 0-67.6 6.4-99 18.8l-0.9 0.3c-6.4 2.6-12.9 5.5-19.9 8.9-0.3 0.2-0.6 0.3-0.9 0.5-25.8 12.9-49.2 29.8-69.5 50l-0.6 0.6-0.9 0.9c-13.5 13.7-25.7 28.8-36.1 45.2-26.9 42.3-41.5 91.3-42 141.6 0 0.4-0.1 0.8-0.1 1.2v4c0 0.4 0.1 0.8 0.1 1.2 0.5 51.4 15.6 101.2 43.6 144.1z m67.2-147.4c0 3.1-1.2 6-3.4 8.1l-0.1 0.1c-2.2 2.2-5.2 3.5-8.2 3.5h-67.6c-0.4 0-0.7 0-1.1-0.1-0.1 0-0.2 0-0.4-0.1-0.2 0-0.5-0.1-0.7-0.1-0.1 0-0.3-0.1-0.4-0.1-0.2-0.1-0.4-0.1-0.6-0.2-0.1 0-0.3-0.1-0.4-0.2-0.2-0.1-0.4-0.1-0.6-0.2-0.1-0.1-0.3-0.1-0.4-0.2l-0.6-0.3c-0.1-0.1-0.3-0.2-0.4-0.2-0.2-0.1-0.4-0.2-0.5-0.3-0.1-0.1-0.3-0.2-0.4-0.3-0.2-0.1-0.3-0.2-0.5-0.3-0.1-0.1-0.2-0.2-0.4-0.3-0.2-0.1-0.3-0.3-0.5-0.4l-0.3-0.3-0.4-0.4c-0.1-0.1-0.2-0.2-0.3-0.4-0.1-0.2-0.3-0.3-0.4-0.5-0.1-0.1-0.2-0.3-0.3-0.4-0.1-0.2-0.2-0.3-0.3-0.5-0.1-0.1-0.2-0.3-0.2-0.4-0.1-0.2-0.2-0.3-0.3-0.5-0.1-0.1-0.1-0.3-0.2-0.5s-0.2-0.4-0.2-0.5c-0.1-0.2-0.1-0.3-0.2-0.5s-0.1-0.4-0.2-0.6c0-0.2-0.1-0.3-0.1-0.5s-0.1-0.4-0.1-0.6c0-0.2 0-0.3-0.1-0.5 0-0.2 0-0.4-0.1-0.5v-1.9c0-0.2 0-0.4 0.1-0.6 0-0.1 0-0.3 0.1-0.4 0.9-5.5 5.8-9.7 11.5-9.7h67.6c6.4 0.1 11.6 5.3 11.6 11.8zM373 623.2c2.2-2.2 5.1-3.4 8.2-3.4 3.1 0 5.9 1.2 8.1 3.4l0.1 0.1c2.2 2.1 3.4 5 3.4 8.1 0 3.1-1.2 6-3.4 8.1l-0.1 0.1-47.9 47.9c-2.2 2.2-5.2 3.5-8.2 3.4-3.1 0-5.9-1.2-8.1-3.4-2.2-2.2-3.5-5.2-3.4-8.3 0-3.1 1.2-6 3.4-8.2l47.9-47.8z m137.1 50c2.2 2.2 3.5 5.2 3.5 8.2V749c-0.1 6.5-5.3 11.8-11.7 11.8-6.5 0-11.7-5.2-11.7-11.7v-67.7c0-6.5 5.2-11.7 11.7-11.7 3 0 6 1.3 8.2 3.5z m104.3-49.9c2.2-2.2 5.2-3.4 8.3-3.4 3.1 0 6 1.2 8.2 3.4l47.9 47.9c4.5 4.5 4.5 12 0 16.5-2.1 2.1-5.1 3.4-8.2 3.4s-6.1-1.2-8.2-3.4l-47.9-47.9c-4.6-4.6-4.6-12-0.1-16.5z m46.7-112.6c0-6.5 5.2-11.7 11.7-11.7h67.6c0.4 0 0.7 0 1.1 0.1h0.3c0.3 0 0.5 0.1 0.8 0.1 0.1 0 0.2 0.1 0.4 0.1 0.2 0.1 0.5 0.1 0.7 0.2 0.1 0 0.3 0.1 0.4 0.1 0.2 0.1 0.4 0.1 0.6 0.2 0.1 0.1 0.3 0.1 0.4 0.2l0.6 0.3c0.1 0.1 0.3 0.1 0.4 0.2 0.2 0.1 0.4 0.2 0.5 0.3 0.1 0.1 0.2 0.2 0.4 0.3 0.2 0.1 0.3 0.2 0.5 0.4 0.1 0.1 0.2 0.2 0.4 0.3 0.2 0.1 0.3 0.3 0.5 0.4l0.3 0.3 0.4 0.4c0.1 0.1 0.2 0.2 0.3 0.4l0.4 0.4c0.1 0.1 0.2 0.3 0.3 0.4 0.1 0.2 0.2 0.3 0.3 0.5 0.1 0.1 0.2 0.3 0.2 0.4 0.1 0.2 0.2 0.3 0.3 0.5 0.1 0.1 0.1 0.3 0.2 0.4 0.1 0.2 0.2 0.4 0.2 0.5 0.1 0.1 0.1 0.3 0.2 0.5s0.1 0.4 0.2 0.6c0 0.2 0.1 0.3 0.1 0.5s0.1 0.4 0.1 0.6c0 0.2 0 0.3 0.1 0.5 0 0.2 0.1 0.4 0.1 0.6v2c0 0.2 0 0.3-0.1 0.5 0 0.2 0 0.3-0.1 0.5 0 0.2-0.1 0.4-0.1 0.5 0 0.2-0.1 0.3-0.1 0.5s-0.1 0.4-0.2 0.5c0 0.1-0.1 0.3-0.1 0.4-0.1 0.2-0.1 0.4-0.2 0.5-0.1 0.1-0.1 0.3-0.2 0.4-0.1 0.2-0.2 0.3-0.3 0.5-0.1 0.1-0.1 0.3-0.2 0.4-0.1 0.2-0.2 0.3-0.3 0.5-0.1 0.1-0.1 0.2-0.2 0.3-0.1 0.2-0.3 0.4-0.4 0.5-0.1 0.1-0.1 0.2-0.2 0.3-0.2 0.3-0.4 0.5-0.7 0.8-2.2 2.2-5.2 3.5-8.2 3.5h-67.6c-6.6 0.1-11.8-5.1-11.8-11.6z m17.6-160.4l-47.9 47.9c-4.5 4.5-12 4.5-16.5 0-2.2-2.2-3.4-5.1-3.4-8.2 0-3.1 1.2-5.9 3.4-8.1l47.9-47.9c2.2-2.2 5.2-3.4 8.3-3.4 3.1 0 6 1.2 8.2 3.4 2.2 2.2 3.4 5.1 3.4 8.2 0 3.1-1.2 6-3.4 8.1z m-83.9-71.9c6.8 2.7 12.8 5.4 18.4 8.2 15.3 7.6 29.8 16.8 43.1 27.3-3 1.5-5.7 3.5-8.1 5.9l-47.9 47.9c-6 5.9-9.3 13.8-9.3 22.3v0.1c0 8.5 3.3 16.5 9.3 22.5 6.2 6.1 14.3 9.2 22.4 9.2 8.1 0 16.2-3.1 22.3-9.2l47.9-47.9c2.4-2.4 4.4-5.2 5.9-8.2 5.1 6.5 9.9 13.3 14.3 20.3 20.1 31.5 32.7 67 37.2 104-1.2-0.4-2.4-0.7-3.6-0.9-0.1 0-0.2-0.1-0.4-0.1-0.4-0.1-0.9-0.2-1.3-0.2-0.6-0.1-1.1-0.1-1.7-0.2-0.3 0-0.5 0-0.8-0.1-0.6 0-1.3-0.1-1.9-0.1H672.6c-17.5 0-31.7 14.2-31.7 31.7s14.2 31.7 31.7 31.7H740.6c0.6 0 1.2 0 1.9-0.1 0.3 0 0.6 0 0.8-0.1 0.5 0 1-0.1 1.5-0.2l1.5-0.3c0.1 0 0.2 0 0.3-0.1 1.2-0.2 2.4-0.5 3.6-0.9-4.6 37.9-17.7 74.2-38.7 106.4-4 6.2-8.3 12.1-12.8 17.9-1.5-2.9-3.5-5.7-5.9-8.1l-30.7-30.7 32.5 15.2c1.4 0.6 2.8 0.9 4.2 0.9 3.4 0 6.7-1.7 8.6-4.8 0.5-0.8 0.8-1.6 1.1-2.5v-0.1c0-0.1 0.1-0.3 0.1-0.4 0.1-0.5 0.2-0.9 0.2-1.4 0.2-3.3-1.2-6.6-4-8.7L556.5 512.7v-2c0-21.1-12.2-40.1-30.9-49.1l-15.2-83.8c0-0.1-0.1-0.3-0.1-0.4 0-0.1-0.1-0.3-0.1-0.4 0-0.1-0.1-0.3-0.1-0.4 0-0.1-0.1-0.3-0.1-0.4-0.1-0.1-0.1-0.3-0.2-0.4-0.1-0.1-0.1-0.3-0.2-0.4-0.1-0.1-0.1-0.3-0.2-0.4-0.1-0.1-0.1-0.2-0.2-0.4-0.1-0.1-0.2-0.2-0.2-0.4-0.1-0.1-0.2-0.2-0.2-0.4-0.1-0.1-0.2-0.2-0.3-0.4l-0.3-0.3-0.3-0.3-0.3-0.3-0.3-0.3-0.3-0.3-0.3-0.3-0.3-0.3c15.4-2.1 27.3-15.3 27.5-31.4v-67.7c0-3.4-0.5-6.7-1.6-9.9 21.3 2.7 42.3 8 62.5 16.1z m-43.6 255.4l64.8 48.8-74.3-34.8c3.9-4.1 7.1-8.8 9.5-14z m-47-77.6h-2.3c-1.8 0-3.6 0.1-5.3 0.3l3.9-21.1 3.7 20.8z m5.9-192.1c2.2 2.2 3.5 5.2 3.5 8.2v67.6c-0.1 6.5-5.3 11.8-11.7 11.8-6.4 0-11.6-5.3-11.6-11.7v-67.7c0-6.4 5.2-11.7 11.7-11.7 3 0 5.9 1.2 8.1 3.5z m-22.2 215c0.1 0 0.1 0 0 0 4.3-2 9-2.9 14-2.9 3.9 0 7.7 0.7 11.4 1.9 13.8 4.8 23.1 17.9 23.1 32.6 0 1-0.1 2.1-0.2 3.2-0.1 0.7-0.1 1.3-0.2 2-1.6 10.7-8.3 20.2-17.9 25.3-5 2.7-10.5 4-16.2 4-19 0-34.5-15.5-34.5-34.5 0-13.6 8.1-26 20.5-31.6z m-95-89c0 2.7-0.9 5.2-2.7 7.3-0.2 0.3-0.5 0.6-0.8 0.9-2.1 2.1-5.1 3.4-8.2 3.4-3.1 0-6.1-1.2-8.2-3.4l-47.9-47.9c-2.2-2.2-3.4-5-3.4-8.1 0-2.9 1.1-5.7 3.1-7.9l0.7-0.7c2.2-2 5-3.2 8-3.2 3.1 0 6 1.2 8.2 3.4l47.9 47.9c0.3 0.3 0.5 0.6 0.8 0.9 1.5 2 2.5 4.6 2.5 7.4z m-102.1-13.5c4.4-7 9.2-13.7 14.2-20.1 1.5 2.9 3.5 5.6 5.9 8l47.9 47.9c6 6 13.8 9.2 22 9.2h2c0.3 0 0.5 0 0.8-0.1 0.2 0 0.5 0 0.7-0.1 0.3 0 0.5-0.1 0.8-0.1 0.2 0 0.5-0.1 0.7-0.1 0.3 0 0.5-0.1 0.8-0.1 0.2 0 0.5-0.1 0.7-0.1 0.3-0.1 0.5-0.1 0.8-0.2 0.2-0.1 0.5-0.1 0.7-0.2 0.3-0.1 0.5-0.1 0.7-0.2 0.2-0.1 0.5-0.1 0.7-0.2 0.2-0.1 0.5-0.2 0.7-0.2 0.2-0.1 0.5-0.2 0.7-0.2 0.2-0.1 0.5-0.2 0.7-0.3 0.2-0.1 0.5-0.2 0.7-0.3 0.2-0.1 0.5-0.2 0.7-0.3 0.2-0.1 0.5-0.2 0.7-0.3 0.2-0.1 0.4-0.2 0.7-0.3 0.2-0.1 0.5-0.2 0.7-0.4 0.2-0.1 0.4-0.2 0.6-0.4 0.2-0.1 0.5-0.3 0.7-0.4 0.2-0.1 0.4-0.3 0.6-0.4 0.2-0.1 0.5-0.3 0.7-0.4 0.2-0.2 0.4-0.3 0.7-0.5 0.2-0.1 0.4-0.3 0.6-0.4 0.2-0.2 0.5-0.4 0.7-0.5 0.2-0.1 0.4-0.3 0.5-0.4 0.2-0.2 0.5-0.4 0.7-0.6 0.2-0.1 0.3-0.3 0.5-0.4 0.4-0.3 0.8-0.7 1.1-1.1 0.1-0.1 0.3-0.3 0.4-0.5 0.2-0.2 0.4-0.4 0.6-0.7 0.1-0.2 0.3-0.3 0.4-0.5 0.2-0.2 0.4-0.5 0.6-0.7 0.1-0.2 0.3-0.4 0.4-0.5 0.2-0.2 0.4-0.5 0.5-0.7 0.1-0.2 0.3-0.4 0.4-0.6 0.2-0.2 0.3-0.4 0.5-0.7 0.1-0.2 0.3-0.4 0.4-0.7 0.1-0.2 0.3-0.4 0.4-0.6 0.1-0.2 0.3-0.5 0.4-0.7 0.1-0.2 0.3-0.4 0.4-0.6 0.1-0.2 0.2-0.5 0.3-0.7 0.1-0.2 0.2-0.5 0.4-0.7 0.1-0.2 0.2-0.5 0.3-0.7 0.1-0.2 0.2-0.4 0.3-0.7 0.1-0.3 0.2-0.5 0.3-0.8 0.1-0.2 0.2-0.4 0.3-0.7 0.1-0.3 0.2-0.5 0.3-0.8 0.1-0.2 0.2-0.4 0.2-0.7 0.1-0.3 0.2-0.6 0.2-0.9 0.1-0.2 0.1-0.4 0.2-0.6 0.1-0.3 0.2-0.7 0.2-1 0-0.2 0.1-0.3 0.1-0.5 0.1-0.3 0.1-0.6 0.2-0.9 0-0.2 0.1-0.4 0.1-0.6 0-0.3 0.1-0.6 0.1-0.9 0-0.2 0.1-0.4 0.1-0.7 0-0.4 0.1-0.9 0.1-1.3v-0.3-1.6c0-8.5-3.3-16.5-9.3-22.5l-47.9-47.9c-2.4-2.4-5.1-4.4-8.1-5.9 13.4-10.5 27.9-19.7 43.3-27.3l0.6-0.3c6-2.9 11.7-5.5 17.3-7.7 0.2-0.1 0.4-0.1 0.6-0.2 20.1-8 41-13.3 62.4-15.9-1 3.1-1.6 6.4-1.6 9.9v68c0 15.2 10.8 28 25.2 31-2.2 1.3-3.8 3.4-4.5 5.9-0.1 0.3-0.1 0.6-0.2 0.9L475 463.3c-0.1 0.1-0.2 0.1-0.3 0.2-0.2 0.1-0.4 0.3-0.7 0.4-0.3 0.2-0.7 0.4-1 0.6-0.2 0.1-0.4 0.3-0.7 0.4l-0.9 0.6c-0.2 0.1-0.4 0.3-0.6 0.4-0.3 0.2-0.6 0.4-0.9 0.7-0.2 0.2-0.4 0.3-0.6 0.5-0.3 0.2-0.6 0.5-0.9 0.7-0.2 0.2-0.4 0.3-0.6 0.5-0.3 0.3-0.6 0.5-0.9 0.8-0.2 0.1-0.4 0.3-0.5 0.4-0.3 0.3-0.7 0.6-1 0.9l-0.4 0.4-1.2 1.2-0.1 0.1c-0.5 0.4-0.9 0.9-1.3 1.4-0.1 0.1-0.1 0.2-0.2 0.2-0.4 0.4-0.7 0.8-1 1.1-0.1 0.2-0.3 0.3-0.4 0.5-0.3 0.3-0.5 0.6-0.8 1-0.1 0.2-0.3 0.4-0.4 0.5-0.2 0.3-0.5 0.6-0.7 0.9-0.1 0.2-0.3 0.4-0.4 0.6-0.2 0.3-0.5 0.6-0.7 0.9-0.1 0.2-0.3 0.4-0.4 0.6l-0.6 0.9c-0.1 0.2-0.3 0.4-0.4 0.6-0.2 0.3-0.4 0.6-0.6 1-0.1 0.2-0.3 0.4-0.4 0.6-0.2 0.3-0.4 0.7-0.6 1-0.1 0.2-0.2 0.4-0.4 0.6-0.2 0.3-0.4 0.7-0.6 1.1l-0.3 0.6-0.6 1.2c-0.1 0.2-0.2 0.3-0.2 0.5-0.3 0.5-0.5 1.1-0.7 1.6v0.1c-0.2 0.6-0.5 1.2-0.7 1.8-0.1 0.1-0.1 0.3-0.2 0.5-0.2 0.4-0.3 0.9-0.5 1.3-0.1 0.2-0.1 0.4-0.2 0.6-0.1 0.4-0.2 0.8-0.4 1.1-0.1 0.2-0.1 0.5-0.2 0.7-0.1 0.4-0.2 0.7-0.3 1.1-0.1 0.3-0.1 0.5-0.2 0.8-0.1 0.4-0.2 0.7-0.3 1.1-0.1 0.3-0.1 0.5-0.2 0.8-0.1 0.4-0.1 0.7-0.2 1.1-0.1 0.3-0.1 0.5-0.1 0.8-0.1 0.4-0.1 0.7-0.2 1.1 0 0.3-0.1 0.5-0.1 0.8-0.1 0.4-0.1 0.7-0.1 1.1 0 0.3-0.1 0.5-0.1 0.8 0 0.4-0.1 0.8-0.1 1.2 0 0.3 0 0.5-0.1 0.8 0 0.4-0.1 0.9-0.1 1.3v2.5c0 30.1 24.4 54.5 54.5 54.5 1 0 2 0 3.1-0.1 0.3 0 0.6 0 1-0.1 0.7-0.1 1.4-0.1 2.1-0.2 0.4 0 0.7-0.1 1.1-0.1l2.1-0.3c0.3-0.1 0.6-0.1 1-0.2l2.7-0.6c0.1 0 0.2 0 0.3-0.1 1-0.2 2-0.5 2.9-0.8l0.9-0.3c0.7-0.2 1.4-0.5 2-0.7 0.3-0.1 0.7-0.3 1-0.4 0.3-0.1 0.5-0.2 0.8-0.3l87.8 41.1c-3.8 1.6-7.4 3.9-10.4 6.9-12.3 12.3-12.3 32.3 0 44.7l47.9 47.9c2.4 2.4 5.1 4.3 8.1 5.8-14.9 11.7-31.1 21.7-48.4 29.7-5.2 2.4-9.2 4.2-13 5.6 0 0-0.1 0-0.1 0.1-20.2 8.1-41.2 13.4-62.8 16 1-3.1 1.6-6.5 1.7-9.9v-67.7-1.6-0.4c0-0.4 0-0.8-0.1-1.2 0-0.3-0.1-0.5-0.1-0.8 0-0.2-0.1-0.5-0.1-0.7 0-0.3-0.1-0.6-0.2-0.9 0-0.2-0.1-0.4-0.1-0.6-0.1-0.3-0.1-0.6-0.2-0.9 0-0.2-0.1-0.4-0.1-0.6l-0.3-0.9c-0.1-0.2-0.1-0.4-0.2-0.6l-0.3-0.9c-0.1-0.2-0.1-0.4-0.2-0.5l-0.3-0.9c-0.1-0.2-0.1-0.4-0.2-0.5-0.1-0.3-0.2-0.6-0.4-0.8l-0.3-0.6c-0.1-0.3-0.3-0.5-0.4-0.8l-0.3-0.6c-0.1-0.3-0.3-0.5-0.5-0.8-0.1-0.2-0.2-0.4-0.3-0.5-0.2-0.3-0.3-0.5-0.5-0.8-0.1-0.2-0.2-0.4-0.3-0.5-0.2-0.3-0.4-0.5-0.5-0.8-0.1-0.2-0.2-0.3-0.4-0.5-0.2-0.3-0.4-0.5-0.6-0.8-0.1-0.2-0.2-0.3-0.4-0.5-0.2-0.3-0.4-0.5-0.7-0.8-0.1-0.1-0.2-0.3-0.4-0.4-0.2-0.3-0.5-0.5-0.7-0.8-0.1-0.1-0.2-0.2-0.3-0.4l-0.1-0.1c-5.8-5.9-13.9-9.2-22.2-9.2-16.9 0-30.8 13.3-31.7 30.1v69.3c0 3.5 0.6 6.8 1.6 9.9-21.5-2.6-42.5-7.9-62.6-15.9-4.1-1.6-8.3-3.4-12.4-5.4-0.3-0.1-0.5-0.3-0.8-0.4-17.3-8.1-33.5-18.1-48.4-29.8 2.9-1.5 5.7-3.5 8.1-5.9l47.9-47.9 0.1-0.1c5.8-5.7 9.1-13.7 9.2-21.9v-0.2-0.2-1.6c0-0.3 0-0.5-0.1-0.8 0-0.2 0-0.5-0.1-0.7-0.7-7.2-4-14.1-9.1-19.2l-0.6-0.6-0.5-0.5c-0.2-0.1-0.3-0.3-0.5-0.4-0.2-0.2-0.5-0.4-0.7-0.6-0.1-0.1-0.2-0.2-0.3-0.2-0.3-0.2-0.6-0.5-0.9-0.7-0.1 0-0.1-0.1-0.2-0.1-5-3.7-10.8-5.8-17.1-6.1h-1.5-0.1-0.1c-8.5 0-16.4 3.3-22.4 9.3L311.2 657c-2.4 2.4-4.4 5.1-5.9 8-4.5-5.7-8.7-11.6-12.7-17.7-21-32.1-34.1-68.4-38.6-106.3 2.3 0.7 4.7 1.2 7.2 1.4h0.1c0.8 0.1 1.6 0.1 2.4 0.1H331.5c8.2 0 16-3.2 21.9-8.9 0.1-0.1 0.3-0.2 0.4-0.4l0.1-0.1c5.9-5.8 9.3-13.9 9.3-22.3 0-17.5-14.2-31.7-31.7-31.7H263.7c-0.8 0-1.6 0-2.4 0.1h-0.1c-2.5 0.2-4.9 0.7-7.2 1.4 4.1-37 16.8-72.5 36.8-104z" fill="#4D3500" /></svg>