<?xml version="1.0" standalone="no"?><!DOCTYPE svg PUBLIC "-//W3C//DTD SVG 1.1//EN" "http://www.w3.org/Graphics/SVG/1.1/DTD/svg11.dtd"><svg class="icon" width="200px" height="200.00px" viewBox="0 0 1024 1024" version="1.1" xmlns="http://www.w3.org/2000/svg"><path d="M760.1 637.4C828.9 446.8 730 364 730 364s-8.8 31.5-12.1 38.4c-19.5 40.7-78.1 41.2-79.7-37.8C634 155.3 415.7 72 415.7 72s102.7 122.6-6.5 299.2c-16.5 26.8-37.9 10.2-60.4-9.8-39.7-34.8-108-15.1-108-15.1s79.4 46.5 28.1 188.3c-14.9 35.2-10.8 74.5-2.1 103.8l131.9 71.4c70.7 38.3 155.9 38.3 226.7 0.2l134.7-72.6zM273.3 892.5c-3.7-29.6-27-50.9-52.1-47.7-2.7 0.4-5.4 1-7.9 1.9-20.7 7.1-34.1 31.1-30.8 57.4 3.7 29.6 27 50.9 52.1 47.7 1.8-0.2 3.5-0.6 5.2-1l7.6-2.9c17.9-9.2 28.9-31.3 25.9-55.4z" fill="#F2B843" /><path d="M512 846.7l-24.4-57.2H362.5l-149.1 57.1c2.5-0.9 5.2-1.5 7.9-1.9 25.1-3.2 48.4 18.1 52.1 47.7 3 24.1-8 46.3-25.9 55.3l264.5-101z" fill="#2F9B77" /><path d="M620.4 690.8C677 491.1 475 439.2 475 439.2s91.6 72.8 50.6 148.3c-10.3 29.4-53.7 39.9-87.7 14.4s-34.8-47.5-34.8-47.5-40.7 69.2-18.9 129l16.6 11.4c66.5 45.7 154.7 44.1 219.6-4z" fill="#EA800C" /><path d="M812.4 731.9c57.7-22 23.9-123.7-40.2-99.1L512 732.3l34.8 72.8 114.8-15.6 150.8-57.6z" fill="#2F9B77" /><path d="M810.7 846.6l-149.1-57.1L512 732.3l-260.2-99.6c-64.1-24.5-97.8 77.1-40.1 99.1l150.8 57.6L512 846.7l264.6 101.1c-17.8-9-28.9-31.2-25.8-55.3 3.7-29.6 27-50.9 52.1-47.7 2.6 0.3 5.2 0.9 7.8 1.8z" fill="#3DC38A" /><path d="M841.5 904c3.3-26.3-10.1-50.2-30.8-57.4-2.6-0.9-5.2-1.5-7.9-1.8-25-3.2-48.4 18.1-52.1 47.7-3.1 24.1 8 46.3 25.8 55.3l7.7 2.9c1.7 0.5 3.4 0.8 5.2 1 25.1 3.2 48.4-18.1 52.1-47.7z" fill="#F2B843" /><path d="M814.3 837.3l-124.8-47.8L816 741.2c19.1-7.3 31.9-23.2 35.2-43.6 3.9-24.4-6-51-24.7-66.1-14.4-11.6-32-15.2-50.3-10.5 11.7-37.4 17.9-73.2 18.3-106.6 0.4-31.8-4.4-61.6-14.2-88.6-16.8-46.5-42.7-68.6-43.8-69.5-2.6-2.2-6.1-2.9-9.4-1.9-3.2 1-5.8 3.6-6.7 6.9-3.6 12.7-9.5 32.6-11.5 36.8-7.2 15.1-21.1 23.7-33.8 20.9-6.1-1.3-25.9-9.1-26.9-54.6-1-49.4-13.7-96.1-37.8-138.7-19.2-34-45.6-65.4-78.5-93.5-55.8-47.6-110.3-68.7-112.6-69.5-4.3-1.6-9.1-0.2-11.7 3.5-2.6 3.7-2.4 8.7 0.5 12.2 0.2 0.3 24.3 29.4 35.6 79.2 6.7 29.4 7.6 59.9 2.8 90.8-6.1 38.9-21.5 78.4-45.7 117.6-3.4 5.5-6.9 8.6-10.4 9.1-9.5 1.4-25.3-12.7-34.9-21.2-43.3-38-114.4-18.1-117.4-17.2-3.8 1.1-6.7 4.4-7.2 8.4s1.4 7.9 4.9 9.9c0.7 0.4 71.6 43.8 23.8 176-13.8 32.8-11.8 67-7 91.4-20-6.7-39.4-3.6-55 9.1-18.7 15.2-28.6 41.7-24.7 66.1 3.3 20.4 16.1 36.3 35.2 43.6l126.6 48.4-125 47.9c-25.4 8.9-41 37.4-37.1 68 2.3 18.4 11.4 34.9 24.9 45.4 9.6 7.4 20.8 11.4 32.2 11.4 2 0 4.1-0.1 6.1-0.4 2.4-0.3 4.5-0.8 6.3-1.2 0.4-0.1 0.9-0.2 1.3-0.4l7.6-2.9c0.3-0.1 0.7-0.3 1-0.4 0.1 0 0.1-0.1 0.2-0.1L512 857.4l260.3 99.5c0.2 0.1 0.4 0.2 0.7 0.3l7.7 2.9c0.2 0.1 0.5 0.2 0.7 0.2 2.1 0.6 4.3 1.1 6.8 1.3 2 0.3 4.1 0.4 6.1 0.4 11.4 0 22.6-3.9 32.2-11.4 13.5-10.5 22.6-27 24.9-45.4 3.8-30.4-11.7-58.9-37.1-67.9z m-0.5-190.3c13.1 10.6 20.3 30.1 17.6 47.4-1.5 9.5-6.7 22-22.6 28.1l-147.3 56.2L540 732.3l235.8-90.2c17.9-6.9 30.6-1.1 38 4.9z m-421.7 28.7c-10.8-35.2 0.8-73.8 10.2-96.5 6.8 10.7 16.7 21 29.6 30.7 20.2 15.2 45.4 20.2 67.5 13.5 17-5.2 29.8-16.7 35.4-31.8 18.1-33.9 14.6-72.4-10.3-111.4-3.4-5.3-6.9-10.2-10.5-14.8 27.9 14.1 63.4 38.3 85.6 77.1 22.6 39.5 26.8 86.9 12.5 140.8l-89 34c-6.7 0.6-13.5 0.8-20.6 0.6l-110.4-42.2z m-114-137.2c0.1-0.2 0.1-0.3 0.2-0.5 12.1-33.5 18.1-64.7 17.8-92.7-0.2-22.9-4.6-43.8-13-62.1-6.2-13.5-13.7-23.7-20.3-30.9 21.6-2.8 56.4-3.4 79.3 16.7 17 15.1 33.7 28.5 51 26 9.6-1.4 17.9-7.6 24.5-18.4 25.6-41.4 41.9-83.5 48.5-125 5.3-33.4 4.3-66.5-3-98.4-5.4-23.7-13.4-43.1-20.8-57.5 20.5 10.8 48.8 28 77.1 52.2 31 26.5 55.8 56.1 73.8 88 22.3 39.6 34.1 83 35.1 129 0.9 40.6 16.8 68.2 42.6 73.7 21.8 4.7 44.8-8.4 56.1-31.8 1.9-4 5.1-13.9 7.8-23 8.7 11 19.3 28 27.2 50.2 8.7 24.7 13 52 12.5 81.3-0.5 35.6-8 74.1-22.2 114.6l-117.5 44.9c11.5-53.5 5.6-101.3-17.7-142.1-44.1-77.2-135.5-102-139.4-103.1-3.8-1-8 0.3-10.5 3.7-3.3 4.4-2.4 10.6 1.9 13.9 0.7 0.5 22.6 18.3 39.2 44.6 20.7 32.9 23.7 63.5 8.7 91-0.3 0.5-0.5 1-0.7 1.5-3.3 9.4-11.5 16.7-22.6 20.1-15.9 4.8-34.5 1-49.6-10.4-27.8-20.9-30.6-38.4-30.8-40 0-4.5-3-8.2-7.3-9.4-4.4-1.2-9 0.9-11.3 4.8-0.4 0.7-10.9 18.6-18.6 44.3-7.9 26.3-10 51.3-6.3 73.5L275.2 631c-5.9-21.5-11.6-58.2 2.9-92.5z m-85.4 155.8c-2.8-17.3 4.4-36.7 17.5-47.4 5-4.1 12.5-8.1 22.3-8.1 4.7 0 9.9 0.9 15.7 3.1L379.1 692c1 0.6 2.2 1.1 3.4 1.3l113.2 43.3c0.7 0.4 1.4 0.6 2.2 0.8l10.6 4 148.7 56.9 1.5 0.6L771.1 842c-1.8 1.1-3.7 2.3-5.4 3.7-13.6 10.5-22.6 27.1-24.9 45.4-1.5 11.8-0.1 23.3 3.6 33.6l-228.8-87.4L366.1 780l-150.8-57.6c-16-6-21.1-18.6-22.6-28.1z m40.8 247.6h-0.2c-8.2 1.1-16.4-1.3-23.6-6.9-9.4-7.3-15.7-19-17.3-32.1-2.6-21 7.7-41.1 24.1-46.7 0 0 0.1 0 0.1-0.1 1.6-0.6 3.6-1.1 5.9-1.4h0.1c6.5-0.8 13.2 0.7 19.3 4.2 1.4 0.8 2.8 1.7 4.1 2.8 9.4 7.3 15.7 19 17.3 32.1 1.9 15.4-3.1 30.4-12.7 39.6l-0.1 0.1-0.5 0.5c-2.2 2-4.6 3.6-7.1 4.9-0.1 0-0.2 0.1-0.2 0.1l-5.8 2.2c-1.2 0.3-2.4 0.5-3.4 0.7z m50.3-42.8v-0.2c0-0.7 0-1.4-0.1-2.2v-0.5c0-0.7-0.1-1.3-0.1-2v-0.5c-0.1-0.8-0.2-1.6-0.3-2.5v-0.3c-2.3-18.2-11.3-34.6-24.7-45.1-1.4-1.1-2.7-2-4.2-2.9-0.2-0.1-0.3-0.2-0.5-0.3-0.3-0.2-0.5-0.3-0.8-0.5l109.7-42L484 846.7l-204.5 78.1c3-7.9 4.4-16.6 4.3-25.7z m547.8 3.7c-1.6 13.1-8 24.8-17.3 32.1-7.2 5.6-15.4 8-23.6 6.9h-0.2c-1.2-0.1-2.3-0.3-3.2-0.6l-6.4-2.4c-14.4-7.4-22.7-25.9-20.2-45.1 1.6-13.1 8-24.8 17.3-32.1 6.3-4.9 13.3-7.3 20.4-7.2 1 0 2 0.1 3 0.2h0.2c1.3 0.1 2.5 0.4 3.8 0.7 0.2 0 0.3 0.1 0.5 0.1h0.1c0.4 0.1 0.9 0.3 1.3 0.4 16.8 6.1 26.9 25.7 24.3 47z" fill="#4D3500" /></svg>