<?xml version="1.0" standalone="no"?><!DOCTYPE svg PUBLIC "-//W3C//DTD SVG 1.1//EN" "http://www.w3.org/Graphics/SVG/1.1/DTD/svg11.dtd"><svg class="icon" width="200px" height="200.00px" viewBox="0 0 1024 1024" version="1.1" xmlns="http://www.w3.org/2000/svg"><path d="M680.5 201.1l181.2 181.2-7.2 7.1H902V201.1zM447.1 201.1h-231c-52 0-94.2 42.1-94.2 94.2s42.1 94.2 94.2 94.2H273l-7.1-7.1 181.2-181.3z" fill="#2F9B77" /><path d="M344.5 234.5c-8.7 0.7-17.5 1-26.3 1.4-7.4 0.3-13.2 6.5-12.9 13.9 0.3 7.2 6.2 12.9 13.4 12.9h0.5c9.2-0.3 18.5-0.8 27.4-1.4 7.4-0.6 12.9-7 12.4-14.4-0.7-7.3-7.1-12.9-14.5-12.4zM264.4 237.3c-9.3 0.3-18.5 0.6-27.4 1.1-7.4 0.5-13 6.8-12.6 14.3 0.5 7.1 6.4 12.7 13.4 12.7h0.9c8.6-0.6 17.4-0.9 26.4-1.1 7.4-0.2 13.3-6.4 13.1-13.8-0.2-7.6-6.6-12.9-13.8-13.2zM180.6 247.4c-12.2 4-21.5 9.3-28.5 16.3-5.2 5.2-5.2 13.8 0 19 2.7 2.7 6.1 3.9 9.5 3.9s6.8-1.3 9.5-3.9c3.9-3.9 9.9-7.1 17.9-9.8 7-2.3 10.9-9.9 8.6-16.9-2.3-7.1-9.9-11-17-8.6zM794.4 241.5h-26.9c-7.4 0-13.4 6-13.4 13.4s6 13.4 13.4 13.4h26.9c7.4 0 13.4-6 13.4-13.4s-6-13.4-13.4-13.4zM875.1 241.5h-26.9c-7.4 0-13.4 6-13.4 13.4s6 13.4 13.4 13.4h26.9c7.4 0 13.4-6 13.4-13.4 0.1-7.4-6-13.4-13.4-13.4z" fill="#EA800C" /><path d="M869.1 389.4L603.4 124.1c-0.8-0.8-1.9-0.8-2.7 0L335.2 389.4h533.9z" fill="#F2B843" /><path d="M335.5 389.4l228.3-228.3-37-37c-0.8-0.8-1.9-0.8-2.7 0L258.5 389.4h77z" fill="#EA800C" /><path d="M758.6 397.9l4.2-4.2-159.9-159.6c-0.5-0.5-1.1-0.5-1.5 0L441.6 393.7l4.2 4.2h312.8z" fill="#FFFFFF" /><path d="M122 295.3v522.4c0 45.7 37 82.8 82.8 82.8H902V389.4H216.2c-52.1 0-94.2-42.2-94.2-94.1z" fill="#3DC38A" /><path d="M821.3 456.6h-26.9c-7.4 0-13.4-6-13.4-13.4s6-13.4 13.4-13.4h26.9c7.4 0 13.4 6 13.4 13.4s-5.9 13.4-13.4 13.4z m-80.7 0h-26.9c-7.4 0-13.4-6-13.4-13.4s6-13.4 13.4-13.4h26.9c7.4 0 13.4 6 13.4 13.4s-5.9 13.4-13.4 13.4z m-80.7 0H633c-7.4 0-13.4-6-13.4-13.4s6-13.4 13.4-13.4h26.9c7.4 0 13.4 6 13.4 13.4s-6 13.4-13.4 13.4z m-80.6 0h-26.9c-7.4 0-13.4-6-13.4-13.4s6-13.4 13.4-13.4h26.9c7.4 0 13.4 6 13.4 13.4s-6 13.4-13.4 13.4z m-80.7 0h-26.9c-7.4 0-13.4-6-13.4-13.4s6-13.4 13.4-13.4h26.9c7.4 0 13.4 6 13.4 13.4s-6 13.4-13.4 13.4z m-80.8 0h-26.9c-7.4 0-13.4-6-13.4-13.4s6-13.4 13.4-13.4h26.9c7.4 0 13.4 6 13.4 13.4s-5.9 13.4-13.4 13.4z m-80.6 0h-26.9c-7.4 0-13.4-6-13.4-13.4s6-13.4 13.4-13.4h26.9c7.4 0 13.4 6 13.4 13.4s-6 13.4-13.4 13.4z m-80.7 0h-26.9c-7.4 0-13.4-6-13.4-13.4s6-13.4 13.4-13.4h26.9c7.4 0 13.4 6 13.4 13.4s-6 13.4-13.4 13.4z m-79.5-8.4c-1.9 0-3.8-0.4-5.6-1.2-9.3-4.3-18-9.8-25.8-16.6-5.6-4.9-6.2-13.4-1.3-19s13.4-6.2 18.9-1.3c5.8 5 12.4 9.2 19.3 12.5 6.8 3 9.7 11 6.7 17.8-2.2 4.8-7.1 7.8-12.2 7.8zM821.3 860.1h-26.9c-7.4 0-13.4-6-13.4-13.4s6-13.4 13.4-13.4h26.9c7.4 0 13.4 6 13.4 13.4s-5.9 13.4-13.4 13.4z m-80.7 0h-26.9c-7.4 0-13.4-6-13.4-13.4s6-13.4 13.4-13.4h26.9c7.4 0 13.4 6 13.4 13.4s-5.9 13.4-13.4 13.4z m-80.7 0H633c-7.4 0-13.4-6-13.4-13.4s6-13.4 13.4-13.4h26.9c7.4 0 13.4 6 13.4 13.4s-6 13.4-13.4 13.4z m-80.6 0h-26.9c-7.4 0-13.4-6-13.4-13.4s6-13.4 13.4-13.4h26.9c7.4 0 13.4 6 13.4 13.4s-6 13.4-13.4 13.4z m-80.7 0h-26.9c-7.4 0-13.4-6-13.4-13.4s6-13.4 13.4-13.4h26.9c7.4 0 13.4 6 13.4 13.4s-6 13.4-13.4 13.4z m-80.8 0h-26.9c-7.4 0-13.4-6-13.4-13.4s6-13.4 13.4-13.4h26.9c7.4 0 13.4 6 13.4 13.4s-5.9 13.4-13.4 13.4z m-80.6 0h-26.9c-7.4 0-13.4-6-13.4-13.4s6-13.4 13.4-13.4h26.9c7.4 0 13.4 6 13.4 13.4s-6 13.4-13.4 13.4z m-80.7 0h-26.9c-7.4 0-13.4-6-13.4-13.4s6-13.4 13.4-13.4h26.9c7.4 0 13.4 6 13.4 13.4s-6 13.4-13.4 13.4z m-79.5-8.5c-1.9 0-3.8-0.4-5.6-1.2-9.3-4.3-18-9.8-25.8-16.6-5.6-4.9-6.2-13.4-1.3-19s13.4-6.2 18.9-1.3c5.8 5 12.4 9.2 19.3 12.5 6.8 3 9.7 11 6.7 17.8-2.2 4.9-7.1 7.8-12.2 7.8zM902 712.1H740.6c-44.6 0-80.7-36.1-80.7-80.7s36.1-80.7 80.7-80.7H902v161.4z" fill="#F2B843" /><path d="M754.1 631.5m-40.3 0a40.3 40.3 0 1 0 80.6 0 40.3 40.3 0 1 0-80.6 0Z" fill="#EA800C" /><path d="M902 191.1H684.7L610.5 117c-2.3-2.3-5.3-3.5-8.4-3.5-3.2 0-6.1 1.3-8.4 3.5l-29.9 29.9-29.9-29.9c-2.3-2.3-5.3-3.5-8.4-3.5-3.2 0-6.1 1.3-8.4 3.5l-74.2 74.1H216.1c-57.5 0-104.2 46.7-104.2 104.2 0 1.5 0 3 0.1 4.4v518c0 51.2 41.6 92.8 92.8 92.8H902c5.5 0 10-4.5 10-10V201.1c0-5.5-4.5-10-10-10z m-10 20v27.6l-0.2-0.2c-4.4-4.5-10.4-7-16.7-7h-26.9c-12.9 0-23.4 10.5-23.4 23.4s10.5 23.4 23.4 23.4h26.9c6.6 0 12.6-2.8 16.9-7.2v108.3h-18.8L772 278.3h22.4c12.9 0 23.4-10.5 23.4-23.4s-10.5-23.4-23.4-23.4h-26.9c-11.5 0-21.1 8.4-23 19.3l-39.8-39.7H892z m-13.5 43.7v0.1c0 1.9-1.5 3.4-3.4 3.4h-26.9c-1.9 0-3.4-1.5-3.4-3.4s1.5-3.4 3.4-3.4h26.9c1.3 0 2.1 0.6 2.5 1 0.4 0.5 0.9 1.2 0.9 2.3z m-114.4 0.1c0-1.9 1.5-3.4 3.4-3.4h26.9c1.9 0 3.4 1.5 3.4 3.4s-1.5 3.4-3.4 3.4h-26.9c-1.9 0-3.4-1.5-3.4-3.4z m-162-118l71.3 71.2 0.1 0.1 171.2 171.2h-82.2L609.9 227c-4-4-10.4-4.3-14.8-0.7-0.3 0.2-0.6 0.5-0.8 0.7L441.8 379.4h-82.1l211.2-211.2c0.3-0.3 0.6-0.6 0.8-1l30.4-30.3z m0 110.6l132.1 131.9H470.1l132-131.9z m-76.7-110.6l24.1 24.1-218.4 218.4h-48l171.1-171.2c0.2-0.2 0.4-0.4 0.5-0.6l70.7-70.7z m-309.3 74.2h206.8L254.4 379.4h-38.2c-46.4 0-84.2-37.7-84.2-84.1 0-0.4 0-0.8-0.1-1.1 0.6-45.9 38.2-83.1 84.2-83.1z m-11.3 679.4c-34 0-62.6-23.4-70.6-55 1.3 2.2 2.9 4.1 4.8 5.9 8.3 7.2 17.8 13.3 28.2 18.1 0 0 0.1 0 0.1 0.1 3.1 1.4 6.3 2.1 9.7 2.1 9.2 0 17.6-5.4 21.3-13.8 5.2-11.8 0-25.7-11.7-30.9-6.3-3-12-6.7-16.9-11-4.6-4.1-10.6-6.1-16.8-5.7-6.3 0.4-12.1 3.2-16.2 8-2.2 2.5-3.8 5.4-4.8 8.6V427c1.2 4.1 3.6 7.9 7 11 8.3 7.2 17.8 13.3 28.2 18.1 0 0 0.1 0 0.1 0.1 3.1 1.4 6.3 2.1 9.7 2.1 9.1 0 17.5-5.4 21.3-13.6 0 0 0-0.1 0.1-0.1 5.2-11.8 0-25.7-11.6-30.9-6.3-3-12-6.7-16.9-11-4.6-4.1-10.6-6.1-16.8-5.7-6.3 0.4-12.1 3.2-16.2 8-2.3 2.6-3.8 5.6-4.8 8.7V357c19 25.9 49.6 42.8 84.1 42.8H273c0.5 0 0.9 0 1.4-0.1H892V541H740.6c-50 0-90.7 40.7-90.7 90.7s40.7 90.7 90.7 90.7H892v168.4H204.8z m-53-69.1c0.8-1 1.9-1.2 2.4-1.2 0.6 0 1.5 0.1 2.3 0.8l0.1 0.1c6.3 5.5 13.6 10.1 21.5 13.9 0.1 0 0.2 0.1 0.3 0.1 1 0.4 1.5 1.2 1.7 1.8 0.2 0.5 0.4 1.6-0.1 2.7-0.6 1.4-2.1 1.9-3.1 1.9-0.5 0-1-0.1-1.5-0.3-8.7-4-16.5-9.1-23.3-15-1-0.8-1.2-1.9-1.2-2.4 0-0.6 0.2-1.5 0.9-2.4z m0-403.4c0.8-1 1.9-1.2 2.4-1.2 0.6 0 1.5 0.1 2.3 0.8l0.1 0.1c6.3 5.5 13.6 10.1 21.5 13.9 0.1 0 0.2 0.1 0.3 0.1 1.7 0.7 2.4 2.8 1.6 4.5-0.5 1.1-1.8 1.9-3.1 1.9-0.5 0-1-0.1-1.5-0.3-8.7-4-16.5-9.1-23.3-15-1-0.8-1.2-1.9-1.2-2.4 0-0.6 0.2-1.5 0.9-2.4zM892 702.1H740.6c-39 0-70.7-31.7-70.7-70.7s31.7-70.7 70.7-70.7H892v141.4z" fill="#4D3500" /><path d="M318.7 272.7h0.8c8.6-0.3 18-0.8 27.7-1.4h0.1c12.8-1 22.4-12.3 21.6-25v-0.3c-1.2-12.7-12.5-22.3-25.1-21.4h-0.1c-6.8 0.5-13.9 0.9-20.7 1.1-1.8 0.1-3.5 0.2-5.2 0.2-12.9 0.5-23 11.4-22.5 24.3 0.5 12.6 10.8 22.5 23.4 22.5z m0-26.8c1.7-0.1 3.5-0.2 5.2-0.2 7-0.3 14.2-0.6 21.4-1.2 1.9-0.1 3.6 1.3 3.8 3.2 0.1 1.9-1.3 3.4-3.2 3.6-9.4 0.6-18.5 1.1-26.8 1.4h-0.3c-1.8 0-3.3-1.5-3.4-3.3-0.2-1.9 1.3-3.4 3.3-3.5zM214.4 253.4c0.9 12.3 11.1 22 23.4 22h1.6c7.3-0.5 15.3-0.8 26-1.1 12.9-0.3 23.2-11.1 22.8-24.1-0.3-12.5-10.4-22.4-23.4-22.9h-0.7c-9.1 0.3-18.5 0.6-27.6 1.1h-0.1c-13 0.9-22.6 11.8-21.9 24.8-0.1 0.1-0.1 0.1-0.1 0.2z m23.2-5c8.7-0.5 17.8-0.8 26.6-1.1 1.6 0.2 3.9 1.2 4 3.5 0 1.2-0.6 2.1-1 2.4-0.4 0.4-1.2 1.1-2.4 1.1-10.8 0.2-19 0.6-26.5 1.1h-0.6c-1.7 0-3.2-1.5-3.4-3.3 0-2 1.4-3.6 3.3-3.7zM161.6 296.6c6.1 0 12-2.4 16.4-6.7l0.1-0.1c2.7-2.7 7.4-5.2 13.9-7.4 12.3-4 19-17.3 15-29.5-2-6-6.1-10.9-11.8-13.7-5.6-2.8-11.9-3.3-17.9-1.3-13.7 4.5-24.3 10.6-32.4 18.7-4.4 4.4-6.8 10.3-6.8 16.6 0 6.3 2.4 12.2 6.8 16.6 4.5 4.4 10.4 6.8 16.7 6.8z m-2.4-25.8c5.8-5.8 13.9-10.4 24.5-13.9h0.1c0.4-0.1 0.8-0.2 1.1-0.2 0.6 0 1.1 0.2 1.5 0.4 0.5 0.2 1.3 0.8 1.7 2.1 0.6 1.7-0.4 3.7-2.3 4.3-9.7 3.3-16.8 7.2-21.7 12.1-0.9 0.9-1.9 1.1-2.5 1.1-1.3 0-2-0.6-2.4-1-0.8-0.8-1-1.9-1-2.4s0.1-1.7 1-2.5zM794.4 466.6h26.9c12.9 0 23.4-10.5 23.4-23.4s-10.5-23.4-23.4-23.4h-26.9c-12.9 0-23.4 10.5-23.4 23.4s10.5 23.4 23.4 23.4z m0-26.8h26.9c1.9 0 3.4 1.5 3.4 3.4s-1.5 3.4-3.4 3.4h-26.9c-1.9 0-3.4-1.5-3.4-3.4s1.5-3.4 3.4-3.4zM633 466.6h26.9c12.9 0 23.4-10.5 23.4-23.4s-10.5-23.4-23.4-23.4H633c-12.9 0-23.4 10.5-23.4 23.4s10.5 23.4 23.4 23.4z m0-26.8h26.9c1.9 0 3.4 1.5 3.4 3.4s-1.5 3.4-3.4 3.4H633c-1.9 0-3.4-1.5-3.4-3.4s1.5-3.4 3.4-3.4zM713.7 466.6h26.9c12.9 0 23.4-10.5 23.4-23.4s-10.5-23.4-23.4-23.4h-26.9c-12.9 0-23.4 10.5-23.4 23.4s10.5 23.4 23.4 23.4z m0-26.8h26.9c1.9 0 3.4 1.5 3.4 3.4s-1.5 3.4-3.4 3.4h-26.9c-1.9 0-3.4-1.5-3.4-3.4s1.5-3.4 3.4-3.4zM498.6 419.8h-26.9c-12.9 0-23.4 10.5-23.4 23.4s10.5 23.4 23.4 23.4h26.9c12.9 0 23.4-10.5 23.4-23.4s-10.5-23.4-23.4-23.4z m0 26.8h-26.9c-1.9 0-3.4-1.5-3.4-3.4s1.5-3.4 3.4-3.4h26.9c1.9 0 3.4 1.5 3.4 3.4s-1.5 3.4-3.4 3.4zM337.2 419.8h-26.9c-12.9 0-23.4 10.5-23.4 23.4s10.5 23.4 23.4 23.4h26.9c12.9 0 23.4-10.5 23.4-23.4s-10.5-23.4-23.4-23.4z m0 26.8h-26.9c-1.9 0-3.4-1.5-3.4-3.4s1.5-3.4 3.4-3.4h26.9c1.9 0 3.4 1.5 3.4 3.4s-1.5 3.4-3.4 3.4zM256.5 419.8h-26.9c-12.9 0-23.4 10.5-23.4 23.4s10.5 23.4 23.4 23.4h26.9c12.9 0 23.4-10.5 23.4-23.4s-10.5-23.4-23.4-23.4z m0 26.8h-26.9c-1.9 0-3.4-1.5-3.4-3.4s1.5-3.4 3.4-3.4h26.9c1.9 0 3.4 1.5 3.4 3.4s-1.5 3.4-3.4 3.4zM417.8 419.8h-26.9c-12.9 0-23.4 10.5-23.4 23.4s10.5 23.4 23.4 23.4h26.9c12.9 0 23.4-10.5 23.4-23.4s-10.5-23.4-23.4-23.4z m0 26.8h-26.9c-1.9 0-3.4-1.5-3.4-3.4s1.5-3.4 3.4-3.4h26.9c1.9 0 3.4 1.5 3.4 3.4s-1.5 3.4-3.4 3.4zM579.3 419.8h-26.9c-12.9 0-23.4 10.5-23.4 23.4s10.5 23.4 23.4 23.4h26.9c12.9 0 23.4-10.5 23.4-23.4s-10.5-23.4-23.4-23.4z m0 26.8h-26.9c-1.9 0-3.4-1.5-3.4-3.4s1.5-3.4 3.4-3.4h26.9c1.9 0 3.4 1.5 3.4 3.4s-1.5 3.4-3.4 3.4zM417.8 823.3h-26.9c-12.9 0-23.4 10.5-23.4 23.4 0 12.9 10.5 23.4 23.4 23.4h26.9c12.9 0 23.4-10.5 23.4-23.4 0-12.9-10.5-23.4-23.4-23.4z m0 26.8h-26.9c-1.9 0-3.4-1.5-3.4-3.4s1.5-3.4 3.4-3.4h26.9c1.9 0 3.4 1.5 3.4 3.4s-1.5 3.4-3.4 3.4zM740.6 823.3h-26.9c-12.9 0-23.4 10.5-23.4 23.4 0 12.9 10.5 23.4 23.4 23.4h26.9c12.9 0 23.4-10.5 23.4-23.4 0-12.9-10.5-23.4-23.4-23.4z m0 26.8h-26.9c-1.9 0-3.4-1.5-3.4-3.4s1.5-3.4 3.4-3.4h26.9c1.9 0 3.4 1.5 3.4 3.4s-1.5 3.4-3.4 3.4zM821.3 823.3h-26.9c-12.9 0-23.4 10.5-23.4 23.4 0 12.9 10.5 23.4 23.4 23.4h26.9c12.9 0 23.4-10.5 23.4-23.4 0-12.9-10.5-23.4-23.4-23.4z m0 26.8h-26.9c-1.9 0-3.4-1.5-3.4-3.4s1.5-3.4 3.4-3.4h26.9c1.9 0 3.4 1.5 3.4 3.4s-1.5 3.4-3.4 3.4zM659.9 823.3H633c-12.9 0-23.4 10.5-23.4 23.4 0 12.9 10.5 23.4 23.4 23.4h26.9c12.9 0 23.4-10.5 23.4-23.4 0-12.9-10.5-23.4-23.4-23.4z m0 26.8H633c-1.9 0-3.4-1.5-3.4-3.4s1.5-3.4 3.4-3.4h26.9c1.9 0 3.4 1.5 3.4 3.4s-1.5 3.4-3.4 3.4zM579.3 823.3h-26.9c-12.9 0-23.4 10.5-23.4 23.4 0 12.9 10.5 23.4 23.4 23.4h26.9c12.9 0 23.4-10.5 23.4-23.4 0-12.9-10.5-23.4-23.4-23.4z m0 26.8h-26.9c-1.9 0-3.4-1.5-3.4-3.4s1.5-3.4 3.4-3.4h26.9c1.9 0 3.4 1.5 3.4 3.4s-1.5 3.4-3.4 3.4zM256.5 823.3h-26.9c-12.9 0-23.4 10.5-23.4 23.4 0 12.9 10.5 23.4 23.4 23.4h26.9c12.9 0 23.4-10.5 23.4-23.4 0-12.9-10.5-23.4-23.4-23.4z m0 26.8h-26.9c-1.9 0-3.4-1.5-3.4-3.4s1.5-3.4 3.4-3.4h26.9c1.9 0 3.4 1.5 3.4 3.4s-1.5 3.4-3.4 3.4zM337.2 823.3h-26.9c-12.9 0-23.4 10.5-23.4 23.4 0 12.9 10.5 23.4 23.4 23.4h26.9c12.9 0 23.4-10.5 23.4-23.4 0-12.9-10.5-23.4-23.4-23.4z m0 26.8h-26.9c-1.9 0-3.4-1.5-3.4-3.4s1.5-3.4 3.4-3.4h26.9c1.9 0 3.4 1.5 3.4 3.4s-1.5 3.4-3.4 3.4zM498.6 823.3h-26.9c-12.9 0-23.4 10.5-23.4 23.4 0 12.9 10.5 23.4 23.4 23.4h26.9c12.9 0 23.4-10.5 23.4-23.4 0-12.9-10.5-23.4-23.4-23.4z m0 26.8h-26.9c-1.9 0-3.4-1.5-3.4-3.4s1.5-3.4 3.4-3.4h26.9c1.9 0 3.4 1.5 3.4 3.4s-1.5 3.4-3.4 3.4zM703.8 631.5c0 27.7 22.6 50.3 50.3 50.3 27.7 0 50.3-22.6 50.3-50.3s-22.6-50.3-50.3-50.3c-27.7 0-50.3 22.6-50.3 50.3z m50.3-30.3c16.7 0 30.3 13.6 30.3 30.3s-13.6 30.3-30.3 30.3c-16.7 0-30.3-13.6-30.3-30.3s13.6-30.3 30.3-30.3z" fill="#4D3500" /></svg>