<?xml version="1.0" standalone="no"?><!DOCTYPE svg PUBLIC "-//W3C//DTD SVG 1.1//EN" "http://www.w3.org/Graphics/SVG/1.1/DTD/svg11.dtd"><svg class="icon" width="200px" height="200.00px" viewBox="0 0 1024 1024" version="1.1" xmlns="http://www.w3.org/2000/svg"><path d="M258.3 867.6H126.5c-22.7 0-41-18.4-41-41V632.5c0-22.7 18.4-41 41-41h131.8v276.1zM897.5 867.6H765.7V591.5h131.8c22.7 0 41 18.4 41 41v194.1c0 22.7-18.4 41-41 41z" fill="#F2B843" /><path d="M751.6 952H274.4c-55.8 0-101.1-45.2-101.1-101.1V242c0-55.8 45.2-101.1 101.1-101.1h477.2c55.8 0 101.1 45.2 101.1 101.1v609c0 55.8-45.3 101-101.1 101z" fill="#3DC38A" /><path d="M630.2 150.8l-34.9-74.1c-1.4-2.9-4.2-4.7-7.4-4.7H438.1c-3.2 0-6 1.8-7.4 4.7l-34.9 74.1c-2.6 5.5 1.4 11.8 7.4 11.8h219.7c6-0.1 9.9-6.4 7.3-11.8z m-53.7-9.9h-127c-5.8 0-9.8-5.9-7.6-11.4l8.4-20.6c1.3-3.1 4.3-5.1 7.6-5.1H568c3.3 0 6.3 2 7.6 5.1l8.4 20.6c2.3 5.5-1.7 11.4-7.5 11.4z" fill="#EA800C" /><path d="M751.9 140.9H274.2c-55.7 0-100.8 45.4-100.8 101.3v87.9c0 54.5 44 98.8 98.2 98.8h482.9c54.2 0 98.2-44.2 98.2-98.8v-87.9c0-55.9-45.1-101.3-100.8-101.3z" fill="#2F9B77" /><path d="M723.7 568.8h-44.9c-13.6 0-24.6-11-24.6-24.6V140.9h94.1v403.3c0 13.6-11 24.6-24.6 24.6zM347.2 568.8h-44.9c-13.6 0-24.6-11-24.6-24.6V140.9h94.1v403.3c0 13.6-11 24.6-24.6 24.6z" fill="#F2B843" /><path d="M762.6 374.4H639.9c-6.8 0-12.3 5.5-12.3 12.3v82.4c0 6.8 5.5 12.3 12.3 12.3h122.7c6.8 0 12.3-5.5 12.3-12.3v-82.4c0-6.8-5.5-12.3-12.3-12.3z m-16.3 78.2h-90v-49.4h90v49.4zM386.1 374.4H263.4c-6.8 0-12.3 5.5-12.3 12.3v82.4c0 6.8 5.5 12.3 12.3 12.3h122.7c6.8 0 12.3-5.5 12.3-12.3v-82.4c0-6.8-5.5-12.3-12.3-12.3z m-16.3 78.2h-90v-49.4h90v49.4z" fill="#EA800C" /><path d="M751.6 952H274.4l-6.9-0.2V788.2h491V951.8z" fill="#F2B843" /><path d="M685.8 664H340.2c-40.2 0-72.7 29.5-72.7 65.8V818h491.1v-88.2c0-36.4-32.6-65.8-72.8-65.8z" fill="#EA800C" /><path d="M694.1 843.2H334c-4.5 0-8.2-3.7-8.2-8.2v-33c0-4.5 3.7-8.2 8.2-8.2h360.1c4.5 0 8.2 3.7 8.2 8.2v33c0 4.5-3.7 8.2-8.2 8.2z" fill="#FFFFFF" /><path d="M678.8 823.8H345.2c-3.4 0-6.1-2.8-6.1-6.1 0-3.4 2.7-6.1 6.1-6.1h333.5c3.4 0 6.1 2.7 6.1 6.1 0.1 3.3-2.7 6.1-6 6.1z" fill="#3DC38A" /><path d="M897.5 581.5h-34.8V239.3c0-0.8 0-1.9-0.1-3 0-0.4 0-0.8-0.1-1.2v-0.4-0.7c-0.1-1.6-0.2-3.4-0.5-5.1l-0.3-2c-3.1-22.9-13.2-43.9-29.1-60.9l-0.2-0.2-0.9-0.9-0.6-0.6-2.5-2.5-0.3-0.3-3.6-3.3c-1.5-1.3-3-2.5-4.3-3.6-0.3-0.3-0.7-0.6-1.1-0.8-0.2-0.2-0.4-0.3-0.6-0.5-0.2-0.2-0.4-0.3-0.6-0.5-0.2-0.1-0.3-0.2-0.4-0.3-0.5-0.4-1.1-0.8-1.9-1.3-16.2-11.5-35.3-18.4-55.3-19.9h-0.4c-0.4 0-0.8-0.1-1.3-0.1-0.3 0-0.5 0-0.8-0.1-1.5-0.2-2.6-0.2-3.7-0.2H631.9l-27.6-58.4C601.2 66 594.9 62 587.9 62H438.1c-7 0-13.3 4-16.4 10.4l-27.5 58.4H271.8c-0.7 0-1.3 0-1.9 0.1h-0.7c-1.3 0-2.4 0.1-3.2 0.2h-0.3c-20 1.5-39.2 8.4-55.7 20.1l-0.9 0.6c-0.4 0.3-0.7 0.5-1.1 0.8-0.9 0.7-1.7 1.3-2.3 1.8-1.3 1-2.6 2.1-4 3.3l-0.3 0.3-3.6 3.3-0.3 0.3-2.5 2.5c-0.5 0.5-1.2 1.2-1.9 2-18.6 20-29.2 46-29.9 73.2v90.8c0 2.1 0.1 4.1 0.2 6.2v245.2h-36.8c-28.1 0-51 22.9-51 51v194.1c0 28.1 22.9 51 51 51h40.1c11.3 45.8 51.2 80.5 99.5 84.1 0.4 0.1 0.8 0.1 1.2 0.1h1c2 0.1 4.1 0.2 6.2 0.2h477.2c2.1 0 4.1-0.1 6.2-0.2h1c0.4 0 0.8-0.1 1.2-0.1 48.4-3.6 88.2-38.3 99.5-84.1h38c28.1 0 51-22.9 51-51V632.5c-0.2-28.1-23.1-51-51.2-51z m-233.3-90.1h74.1v52.8c0 8-6.5 14.6-14.6 14.6h-44.9c-8 0-14.6-6.5-14.6-14.6v-52.8z m-24.3-20c-1.3 0-2.3-1-2.3-2.3v-82.4c0-1.3 1-2.3 2.3-2.3h122.7c1.3 0 2.3 1 2.3 2.3v82.4c0 1.3-1 2.3-2.3 2.3H639.9z m-352.2 20h74.1v52.8c0 8-6.5 14.6-14.6 14.6h-44.9c-8.1 0-14.6-6.5-14.6-14.6v-52.8z m-24.3-20c-1.3 0-2.3-1-2.3-2.3v-82.4c0-1.3 1-2.3 2.3-2.3h122.7c1.3 0 2.3 1 2.3 2.3v82.4c0 1.3-1 2.3-2.3 2.3H263.4z m-22.3-84.7v26.8c-14.8-5.4-28-14.8-38-27.1-11.7-14.3-18.6-32.1-19.8-50.6V242c0-48 37.3-87.4 84.4-90.9v213.3h-4.3c-12.3 0-22.3 10-22.3 22.3z m423.1-22.3V150.9h74.1v213.5h-74.1z m-212-233.6l6.9-17h107.7l6.9 17H452.2z m-90.4 233.6h-74.1V150.9h74.1v213.5z m24.3 0h-4.3V150.9H644.1v213.5h-4.3c-12.3 0-22.3 10-22.3 22.3V419H408.4v-32.3c0-12.3-10-22.3-22.3-22.3z m376.5 0h-4.3V151.1c47.1 3.4 84.4 42.9 84.4 90.9v88.9c-0.2 20.4-7.3 40.2-20.2 55.8-10 12.1-23 21.4-37.6 26.8v-26.8c0-12.3-10-22.3-22.3-22.3zM439.3 82h147.5l23 48.8h-15.2c-0.2-1.7-0.6-3.4-1.3-5.1l-8.4-20.7c-2.9-6.8-9.5-11.2-16.8-11.2H457.9c-7.4 0-14 4.4-16.9 11.3l-8.4 20.7c-0.7 1.6-1.1 3.3-1.2 5h-15.2L439.3 82zM126.5 857.6c-17.1 0-31-13.9-31-31V632.5c0-17.1 13.9-31 31-31h36.8v249.4c0 2.2 0.1 4.5 0.2 6.7h-37z m622.2-71.4c-0.1 0.6-0.2 1.3-0.2 2V808h-36.2v-6c0-10-8.2-18.2-18.2-18.2H334c-10 0-18.2 8.2-18.2 18.2v6h-38.3v-78.2c0-30.8 28.2-55.8 62.8-55.8h345.6c34.6 0 62.8 25 62.8 55.8v56.4z m-412.9 17.6h356.5v29.4H335.8v-29.4zM277.5 942V828h38.3v7c0 10 8.2 18.2 18.2 18.2h360.1c10 0 18.2-8.2 18.2-18.2v-7h36.2v114h-471z m491-1.6V820c0.1-0.6 0.2-1.3 0.2-2v-88.2c0-41.8-37.1-75.8-82.8-75.8H340.3c-45.7 0-82.8 34-82.8 75.8V940.4c-37.2-7-66.6-36.8-72.9-74.3 0-0.2-0.1-0.4-0.1-0.7-0.8-4.8-1.2-9.6-1.2-14.6v-258c0.1-0.4 0.1-0.9 0.1-1.3s0-0.9-0.1-1.3V393.3c1.4 1.9 2.8 3.8 4.3 5.6 13.9 17 32.7 29.4 53.5 35.5V469c0 12.3 10 22.3 22.3 22.3h4.3v52.8c0 19.1 15.5 34.6 34.6 34.6h44.9c19.1 0 34.6-15.5 34.6-34.6v-52.8h4.3c12.3 0 22.3-10 22.3-22.3v-30h209.2v30.1c0 12.3 10 22.3 22.3 22.3h4.3v52.8c0 19.1 15.5 34.6 34.6 34.6h44.9c19.1 0 34.6-15.5 34.6-34.6v-52.8h4.3c12.3 0 22.3-10 22.3-22.3v-34.5c20.6-6.1 39.3-18.4 53-35.1 1.7-2 3.2-4.1 4.8-6.3V851c0 4.9-0.4 9.7-1.1 14.3-0.1 0.4-0.2 0.9-0.2 1.3-6.5 37.3-35.8 66.8-72.9 73.8z m160-113.8c0 17.1-13.9 31-31 31h-35c0.1-2.2 0.2-4.4 0.2-6.6V601.5h34.8c17.1 0 31 13.9 31 31v194.1z" fill="#4D3500" /><path d="M746.3 393.2h-90c-5.5 0-10 4.5-10 10v49.4c0 5.5 4.5 10 10 10h90c5.5 0 10-4.5 10-10v-49.4c0-5.5-4.5-10-10-10z m-10 49.4h-70v-29.4h70v29.4zM369.8 393.2h-90c-5.5 0-10 4.5-10 10v49.4c0 5.5 4.5 10 10 10h90c5.5 0 10-4.5 10-10v-49.4c0-5.5-4.5-10-10-10z m-10 49.4h-70v-29.4h70v29.4z" fill="#4D3500" /></svg>