<?xml version="1.0" standalone="no"?><!DOCTYPE svg PUBLIC "-//W3C//DTD SVG 1.1//EN" "http://www.w3.org/Graphics/SVG/1.1/DTD/svg11.dtd"><svg class="icon" width="200px" height="200.00px" viewBox="0 0 1024 1024" version="1.1" xmlns="http://www.w3.org/2000/svg"><path d="M425.3 577.2V179.3C425.3 131.2 386 92 338 92h-0.1c-24 0-45.8 9.9-61.6 25.7-15.8 15.8-25.6 37.6-25.6 61.6V577c-59.9 31.5-100.9 94.4-100.9 166.8 0 104 84.1 188.2 188.1 188.2h0.1c104 0 188.2-84.3 188.2-188.2-0.1-72.4-40.9-135.3-100.9-166.6z" fill="#EA800C" /><path d="M362.9 637.3v-453c0-13.8-11.2-25-25-25s-25 11.2-25 25v453c-48.4 11.2-84.5 54.7-84.5 106.7 0 60.5 49.1 109.5 109.5 109.5S447.4 804.4 447.4 744c0.1-52-36-95.5-84.5-106.7z" fill="#F2B843" /><path d="M495.1 258.7H318.2c-11 0-20-9-20-20s9-20 20-20h176.9c11 0 20 9 20 20s-9 20-20 20zM763.8 529.3c2.9 10.7-3.4 21.6-14.1 24.5-1.7 0.5-3.5 0.7-5.2 0.7-8.8 0-16.9-5.9-19.3-14.8l-9.7-36c-2.9-10.7 3.4-21.6 14.1-24.5 10.7-2.9 21.6 3.4 24.5 14.1l9.7 36zM715.5 265.3l9.7-36c2.9-10.7 13.8-17 24.5-14.1s17 13.8 14.1 24.5l-9.7 36c-2.4 8.9-10.5 14.8-19.3 14.8-1.7 0-3.5-0.2-5.2-0.7-10.7-2.9-17-13.8-14.1-24.5zM828 480.1c7.8 7.8 7.8 20.5 0 28.3-3.9 3.9-9 5.9-14.1 5.9s-10.2-2-14.1-5.9L773.4 482c-7.8-7.8-7.8-20.5 0-28.3s20.5-7.8 28.3 0l26.3 26.4zM773.4 315.2c-7.8-7.8-7.8-20.5 0-28.3l26.4-26.4c7.8-7.8 20.5-7.8 28.3 0 7.8 7.8 7.8 20.5 0 28.3l-26.4 26.4c-3.9 3.9-9 5.9-14.1 5.9s-10.3-1.9-14.2-5.9zM873.5 429.8c-2.4 9-10.5 14.9-19.3 14.9-1.7 0-3.4-0.2-5.2-0.7l-36-9.6c-10.7-2.8-17-13.8-14.2-24.5s13.8-17 24.5-14.2l36 9.6c10.7 2.9 17.1 13.9 14.2 24.5zM813 334.5l36-9.6c10.7-2.8 21.6 3.5 24.5 14.2 2.8 10.7-3.5 21.6-14.2 24.5l-36 9.6c-1.7 0.5-3.5 0.7-5.2 0.7-8.8 0-16.9-5.9-19.3-14.8-2.8-10.8 3.6-21.8 14.2-24.6zM654.2 275.7c2.4 8.9 10.5 14.9 19.3 14.9 1.7 0 3.4-0.2 5.2-0.7 10.7-2.8 17-13.8 14.2-24.5l-9.6-36c-2.8-10.7-13.8-17-24.5-14.2s-17 13.8-14.2 24.5l9.6 36zM606.6 315.2c3.9 3.9 9 5.9 14.2 5.9 5.1 0 10.2-1.9 14.1-5.8 7.8-7.8 7.8-20.5 0.1-28.3l-26.3-26.4c-7.8-7.8-20.5-7.8-28.3-0.1-7.8 7.8-7.8 20.5-0.1 28.3l26.3 26.4zM549 363.5l36 9.6c1.7 0.5 3.5 0.7 5.2 0.7 8.8 0 16.9-5.9 19.3-14.9 2.8-10.7-3.5-21.6-14.2-24.5l-36-9.6c-10.7-2.8-21.6 3.5-24.5 14.2-2.8 10.7 3.6 21.7 14.2 24.5zM609.5 409.9c-2.8-10.7-13.8-17-24.5-14.2l-36 9.6c-10.7 2.8-17 13.8-14.2 24.5 2.4 8.9 10.5 14.9 19.3 14.9 1.7 0 3.4-0.2 5.2-0.7l36-9.6c10.7-2.8 17.1-13.8 14.2-24.5zM606.6 453.7l-26.3 26.4c-7.8 7.8-7.8 20.5 0.1 28.3 3.9 3.9 9 5.8 14.1 5.8s10.3-2 14.2-5.9l26.3-26.4c7.8-7.8 7.8-20.5-0.1-28.3-7.8-7.8-20.5-7.7-28.3 0.1zM678.7 479.2c-10.7-2.8-21.6 3.5-24.5 14.2l-9.6 36c-2.8 10.7 3.5 21.6 14.2 24.5 1.7 0.5 3.5 0.7 5.2 0.7 8.8 0 16.9-5.9 19.3-14.9l9.6-36c2.8-10.7-3.6-21.7-14.2-24.5z" fill="#3DC38A" /><path d="M337.9 159.3c-13.8 0-25 11.2-25 25v34.4h50v-34.4c0-13.8-11.2-25-25-25z" fill="#F2B843" /><path d="M704.2 384.5m-82.5 0a82.5 82.5 0 1 0 165 0 82.5 82.5 0 1 0-165 0Z" fill="#2F9B77" /><path d="M435.3 571.2V268.7h59.8c16.5 0 30-13.5 30-30s-13.5-30-30-30h-59.8v-29.4c0-53.7-43.6-97.3-97.3-97.3h-0.1c-25.8 0-50.2 10.2-68.7 28.6-18.4 18.4-28.5 42.8-28.5 68.7v391.8C178.3 606.4 139.8 672 139.8 743.8c0 53 20.6 102.8 58 140.2 37.4 37.4 87.2 58 140.1 58h0.1c109.3 0 198.2-88.9 198.2-198.2-0.1-72-38.6-137.6-100.9-172.6z m69.8-332.5c0 5.5-4.5 10-10 10H318.2c-5.5 0-10-4.5-10-10s4.5-10 10-10H495.1c5.5 0 10 4.5 10 10zM360.6 647c21.5 5 41 17.2 54.9 34.6 14.3 17.8 21.9 39.4 21.8 62.4 0 54.9-44.6 99.5-99.5 99.5s-99.5-44.6-99.5-99.5c0-23 7.6-44.5 21.9-62.4 13.9-17.3 33.4-29.6 54.9-34.6 4.5-1 7.7-5.1 7.7-9.7V268.7h30v368.6c0.1 4.7 3.3 8.7 7.8 9.7z m-7.7-438.3h-30v-24.4c0-8.3 6.7-15 15-15s15 6.7 15 15v24.4zM338 922h-0.1c-47.6 0-92.4-18.5-126-52.2-33.6-33.6-52.1-78.4-52.1-126 0-66.4 36.6-127 95.6-157.9 3.3-1.7 5.3-5.1 5.3-8.9V179.3c0-20.5 8.1-39.9 22.7-54.5 14.7-14.7 34-22.8 54.5-22.8h0.1c42.6 0 77.3 34.7 77.3 77.3v29.4h-42.4v-24.4c0-19.3-15.7-35-35-35s-35 15.7-35 35v28.6c-8.8 5.2-14.7 14.8-14.7 25.8s5.9 20.6 14.7 25.8v365.1c-22.7 6.9-43.2 20.7-58.2 39.5-17 21.1-26.3 47.7-26.3 74.9 0 65.9 53.6 119.5 119.5 119.5S457.4 809.9 457.4 744c0.1-27.2-9.3-53.8-26.2-74.9-15-18.7-35.5-32.5-58.3-39.5V268.7h42.4v308.5c0 3.7 2.1 7.1 5.4 8.9 58.8 30.7 95.4 91.1 95.5 157.7 0 98.3-79.9 178.2-178.2 178.2z" fill="#4D3500" /><path d="M880.2 409.8c-4-7-10.5-12-18.4-14.2l-36-9.6c-7.8-2-15.8-0.9-22.7 3.1-2.6 1.5-4.9 3.4-6.9 5.5 0.4-3.3 0.6-6.7 0.6-10.1 0-3.5-0.2-6.9-0.6-10.2 5.5 6 13.4 9.6 22 9.6 2.8 0 5.4-0.4 7.9-1.1l35.9-9.6c15.9-4.3 25.4-20.8 21.2-36.8-4.3-15.9-20.8-25.4-36.7-21.2l-36 9.6c-11.1 2.9-19.1 11.9-21.5 22.5-2.7-6.2-6.2-12.1-10.2-17.6 2.8 0.9 5.8 1.3 8.9 1.3 8 0 15.5-3.1 21.2-8.8l26.4-26.4c5.7-5.7 8.8-13.2 8.8-21.2s-3.1-15.6-8.8-21.2c-11.7-11.7-30.7-11.7-42.4 0l-26.4 26.4c-5.7 5.7-8.8 13.2-8.8 21.2 0 3.1 0.5 6.1 1.3 8.9-5.4-4-11.3-7.4-17.6-10.2 10.7-2.4 19.5-10.5 22.5-21.5l9.7-36c2.1-7.8 1.1-15.8-2.9-22.8-4-6.9-10.4-11.9-18.2-14-7.8-2.1-15.8-1.1-22.8 2.9-6.9 4-11.9 10.4-14 18.2l-9.7 36c-2.1 7.8-1.1 15.8 2.9 22.8 1.5 2.7 3.5 5.1 5.7 7.1-3.4-0.4-6.8-0.6-10.3-0.6-3.5 0-6.9 0.2-10.2 0.6 7.8-7.3 11.5-18.6 8.6-29.7l-9.6-36c-2-7.8-7-14.3-14-18.3-6.9-4-15-5.1-22.7-3.1-7.8 2-14.3 7-18.3 14-4 6.9-5.1 15-3 22.8l9.6 36c3 10.9 11.7 19.1 22.4 21.5-6.2 2.8-12.1 6.2-17.5 10.2 3.2-10.3 0.7-21.9-7.3-30.1L616 253.3c-11.7-11.7-30.7-11.7-42.4-0.1-11.7 11.7-11.7 30.7-0.1 42.4l26.3 26.4c5.7 5.7 13.2 8.8 21.3 8.8 3.1 0 6-0.5 8.9-1.3-4 5.5-7.5 11.4-10.2 17.7-2.3-10.6-10.4-19.7-21.6-22.7l-36-9.6c-15.9-4.2-32.4 5.4-36.7 21.3-4.2 16 5.4 32.5 21.3 36.7l35.9 9.6c2.5 0.7 5.1 1.1 7.9 1.1 8.6 0 16.5-3.7 22.1-9.8-0.4 3.4-0.6 7-0.6 10.5s0.2 6.9 0.6 10.2c-2-2.2-4.4-4.1-7.1-5.6-6.9-4-15-5.1-22.8-3l-36 9.6c-16 4.2-25.5 20.6-21.3 36.8 3.5 13.1 15.4 22.3 29 22.3 2.7 0 5.3-0.3 7.8-1l35.9-9.6c7.8-2 14.3-7 18.3-14 1.6-2.7 2.7-5.5 3.3-8.5 2.7 6.2 6.1 12.1 10.1 17.5-10.3-3.1-21.9-0.6-30.1 7.5L573.2 473c-5.7 5.7-8.8 13.2-8.8 21.3 0 8 3.2 15.6 8.9 21.2 5.6 5.6 13.1 8.7 21.2 8.7 7.9 0 15.7-3.2 21.3-8.8l26.3-26.4c5.7-5.7 8.8-13.2 8.8-21.3 0-3-0.4-5.9-1.3-8.6 5.5 4 11.4 7.4 17.6 10.2-10.6 2.4-19.6 10.4-22.7 21.6l-9.6 36c-4.2 15.9 5.3 32.3 21.2 36.7 2.5 0.7 5.1 1.1 7.9 1.1 13.5 0 25.5-9.2 29-22.3l9.6-36c2.9-11.2-0.8-22.5-8.8-29.8 3.4 0.4 6.9 0.6 10.4 0.6s6.9-0.2 10.3-0.6c-2.2 2-4.1 4.4-5.7 7.1-4 6.9-5 15-2.9 22.8l9.7 36c3.5 13.1 15.4 22.2 29 22.2 2.8 0 5.4-0.4 7.9-1.1 7.7-2.1 14.1-7.1 18.1-14 4-6.9 5-15 2.9-22.8l-9.7-36c-2.1-7.7-7.1-14.2-14-18.2-2.7-1.5-5.5-2.6-8.4-3.3 6.2-2.7 12.1-6.1 17.5-10.1-0.8 2.8-1.3 5.7-1.3 8.8 0 8 3.1 15.6 8.8 21.2l26.4 26.4c5.7 5.7 13.2 8.8 21.2 8.8s15.5-3.1 21.2-8.8c11.7-11.7 11.7-30.7 0-42.4l-26.3-26.4c-5.7-5.7-13.2-8.8-21.2-8.8-3 0-6 0.4-8.8 1.3 4-5.4 7.4-11.2 10.1-17.4 0.7 2.9 1.8 5.7 3.3 8.4 4 7 10.5 11.9 18.2 13.9l36 9.6c2.6 0.7 5.1 1 7.8 1 13.5 0 25.4-9.2 29-22.3 1.9-7.7 0.9-15.8-3.1-22.7z m-64.6-65.6l36-9.6c0.9-0.2 1.8-0.3 2.6-0.3 4.5 0 8.4 2.9 9.7 7.4 1.4 5.4-1.7 10.8-7.1 12.3l-36 9.6c-0.1 0-0.2 0-0.2 0.1-0.6 0.2-1.5 0.3-2.4 0.3-4.5 0-8.5-3-9.6-7.3-1.5-5.6 1.6-11.1 7-12.5z m-90.4-76.3l9.7-36c0.7-2.6 2.4-4.8 4.7-6.1 1.5-0.9 3.2-1.3 4.9-1.3 0.9 0 1.8 0.1 2.7 0.4 2.6 0.7 4.8 2.4 6.1 4.7 1.3 2.3 1.7 5 1 7.6l-9.7 36c-1.2 4.4-5.1 7.4-9.6 7.4-0.9 0-1.7-0.1-2.4-0.3-0.1 0-0.1 0-0.2-0.1-2.6-0.7-4.8-2.4-6.1-4.7-1.5-2.3-1.8-5-1.1-7.6z m-61.3 5.2l-9.6-35.9c-0.7-2.6-0.3-5.4 1-7.7s3.5-3.9 6-4.6c2.6-0.7 5.3-0.3 7.7 1 2.3 1.3 3.9 3.5 4.6 6.1l9.6 36c1.4 5.4-1.8 10.9-7.1 12.3h-0.1c-0.8 0.2-1.6 0.3-2.5 0.3-4.4 0-8.5-3.2-9.6-7.5z m-64.1 83.2c-1.2 4.4-5.1 7.5-9.6 7.5-0.9 0-1.7-0.1-2.4-0.3-0.1 0-0.2 0-0.2-0.1l-36-9.6c-5.3-1.4-8.5-6.9-7.1-12.2 1.2-4.6 5.2-7.5 9.7-7.5 0.9 0 1.7 0.1 2.6 0.3l36 9.6c5.3 1.5 8.4 6.9 7 12.3z m-0.9 63.8c-1.3 2.3-3.5 4-6.1 4.7l-36 9.6h-0.1c-0.8 0.2-1.6 0.3-2.5 0.3-4.4 0-8.5-3.2-9.6-7.4-1.4-5.4 1.8-10.9 7.1-12.3l36-9.6c0.9-0.2 1.7-0.3 2.6-0.3 1.8 0 3.5 0.5 5.1 1.4 2.3 1.3 3.9 3.5 4.6 6v0.1c0.5 2.5 0.2 5.2-1.1 7.5z m84.3 81l-9.6 36c-1.2 4.4-5.1 7.5-9.6 7.5-0.9 0-1.7-0.1-2.4-0.3-0.1 0-0.1 0-0.2-0.1-5.4-1.5-8.6-6.9-7.2-12.3l9.6-36c1.2-4.5 5.2-7.5 9.7-7.5 0.9 0 1.7 0.1 2.6 0.3 5.4 1.6 8.5 7.1 7.1 12.4z m61.2-5.2l9.7 36c0.7 2.6 0.4 5.3-1 7.6-1.3 2.3-3.5 4-6.1 4.7-0.1 0-0.1 0-0.2 0.1-0.6 0.2-1.5 0.3-2.4 0.3-4.5 0-8.5-3-9.6-7.4l-9.7-36c-0.7-2.6-0.4-5.3 1-7.6 1.3-2.3 3.5-4 6.1-4.7 0.9-0.2 1.8-0.4 2.7-0.4 1.7 0 3.4 0.4 4.9 1.3 2.3 1.3 3.9 3.5 4.6 6.1zM780.5 294l26.4-26.4c2-2 4.5-2.9 7.1-2.9 2.6 0 5.1 1 7.1 2.9 1.9 1.9 2.9 4.4 2.9 7.1s-1 5.2-2.9 7.1l-26.4 26.4c-1.9 1.9-4.4 3-7 3-1.6 0-4.6-0.4-7-2.9l-0.1-0.1c-1.9-1.9-2.9-4.4-2.9-7.1-0.2-2.7 0.9-5.2 2.8-7.1z m-159.7 17.1c-2.7 0-5.2-1.1-7.1-3l-26.3-26.4c-3.9-3.9-3.9-10.3 0-14.2 3.9-3.9 10.3-3.9 14.2 0l26.3 26.4c3.9 3.9 3.9 10.3-0.1 14.2-1.8 2-4.3 3-7 3z m7.1 163.7l-26.3 26.4c-1.9 1.9-4.5 3-7.1 3-2.7 0-5.2-1-7.1-2.9-1.9-1.9-3-4.4-3-7.1 0-2.7 1-5.2 2.9-7.1l26.3-26.4c3.9-3.9 10.3-4 14.2-0.1 1.9 1.9 3 4.4 3 7.1 0 2.7-1 5.2-2.9 7.1z m76.3-17.8c-40 0-72.5-32.5-72.5-72.5s32.5-72.5 72.5-72.5 72.5 32.5 72.5 72.5-32.5 72.5-72.5 72.5z m83.3 0.9c2.7 0 5.2 1 7.1 2.9l26.3 26.4c3.9 3.9 3.9 10.3 0 14.2-1.9 1.9-4.4 3-7 3-2.6 0-5.1-1.1-7-3L780.5 475c-1.9-1.9-2.9-4.4-2.9-7.1s1-5.2 2.9-7.1c1.9-1.9 4.4-2.9 7-2.9z m76.4-30.7c-0.1 0-0.1 0 0 0-1.2 4.5-5.2 7.5-9.7 7.5-0.9 0-1.7-0.1-2.5-0.3h-0.1l-36-9.6c-5.3-1.4-8.5-6.9-7.1-12.3 0.7-2.6 2.3-4.7 4.6-6 1.6-0.9 3.3-1.4 5.1-1.4 0.9 0 1.7 0.1 2.6 0.3l36 9.6c2.6 0.7 4.8 2.4 6.2 4.8 1.2 2.2 1.5 4.9 0.9 7.4z" fill="#4D3500" /></svg>