<?xml version="1.0" standalone="no"?><!DOCTYPE svg PUBLIC "-//W3C//DTD SVG 1.1//EN" "http://www.w3.org/Graphics/SVG/1.1/DTD/svg11.dtd"><svg class="icon" width="200px" height="200.00px" viewBox="0 0 1024 1024" version="1.1" xmlns="http://www.w3.org/2000/svg"><path d="M711.7 568.3H574.5c-10.5 0-19.3 7.9-20.4 18.3l-0.3 2.5-37.5 340c-1.3 12.2 8.2 22.8 20.4 22.8H130.2c-19.4 0-34.5-16.8-32.4-36.1l59.8-545.3c1.8-16.5 15.8-29 32.4-29h467.9c16.6 0 30.6 12.5 32.4 29l21.4 197.8z" fill="#3DC38A" /><path d="M224.6 341.6H294V952h-69.4zM389.2 341.6h69.4V952h-69.4zM623.2 341.6v226.8h-48.7c-10.5 0-19.3 7.9-20.4 18.3l-0.3 2.5V341.6h69.4z" fill="#2F9B77" /><path d="M592.7 425.7c-7.2 0-13.1-5.9-13.1-13.1V253.9c0-85.9-69.9-155.7-155.7-155.7S268.1 168 268.1 253.9v158.7c0 7.2-5.9 13.1-13.1 13.1-7.2 0-13.1-5.9-13.1-13.1V253.9C242 153.6 323.6 72 423.9 72s181.9 81.6 181.9 181.9v158.7c0 7.2-5.9 13.1-13.1 13.1z" fill="#EA800C" /><path d="M255 486.5c-23.5 0-42.6-19.1-42.6-42.6s19.1-42.6 42.6-42.6 42.6 19.1 42.6 42.6-19.1 42.6-42.6 42.6z m0-59c-9 0-16.4 7.4-16.4 16.4s7.4 16.4 16.4 16.4 16.4-7.4 16.4-16.4-7.3-16.4-16.4-16.4zM592.7 486.5c-23.5 0-42.6-19.1-42.6-42.6s19.1-42.6 42.6-42.6 42.6 19.1 42.6 42.6-19.1 42.6-42.6 42.6z m0-59c-9 0-16.4 7.4-16.4 16.4s7.4 16.4 16.4 16.4 16.4-7.4 16.4-16.4-7.4-16.4-16.4-16.4zM905.8 952H535c-12.2 0-21.8-10.6-20.4-22.8l2.6-23.6 5.6-51.4 29.5-269.3c1.1-10.4 9.9-18.3 20.4-18.3h295.4c10.5 0 19.3 7.9 20.4 18.3L918 854.2l5.6 51.4 2.6 23.6c1.4 12.2-8.1 22.8-20.4 22.8z" fill="#F2B843" /><path d="M923.7 905.6H517.1l5.7-51.4h395.3z" fill="#EA800C" /><path d="M720.4 856.8c-60.1 0-109-48.9-109-109v-77.6c0-7.2 5.9-13.1 13.1-13.1s13.1 5.9 13.1 13.1v77.6c0 45.7 37.2 82.9 82.9 82.9s82.9-37.2 82.9-82.9v-77.6c0-7.2 5.9-13.1 13.1-13.1s13.1 5.9 13.1 13.1v77.6c-0.2 60.1-49.1 109-109.2 109z" fill="#3DC38A" /><path d="M816.4 681.5c-22.6 0-41-18.4-41-41s18.4-41 41-41 41 18.4 41 41c-0.1 22.6-18.4 41-41 41z m0-55.8c-8.2 0-14.8 6.6-14.8 14.8s6.6 14.8 14.8 14.8 14.8-6.6 14.8-14.8-6.7-14.8-14.8-14.8z" fill="#FFFFFF" /><path d="M624.5 681.5c-22.6 0-41-18.4-41-41s18.4-41 41-41 41 18.4 41 41c-0.1 22.6-18.4 41-41 41z m0-55.8c-8.2 0-14.8 6.6-14.8 14.8s6.6 14.8 14.8 14.8 14.8-6.6 14.8-14.8-6.7-14.8-14.8-14.8z" fill="#FFFFFF" /><path d="M281.4 443.9c0-14.6-11.8-26.4-26.4-26.4s-26.4 11.8-26.4 26.4 11.8 26.4 26.4 26.4 26.4-11.8 26.4-26.4z m-32.8 0c0-3.5 2.9-6.4 6.4-6.4 3.5 0 6.4 2.9 6.4 6.4 0 3.5-2.9 6.4-6.4 6.4s-6.4-2.9-6.4-6.4zM566.3 443.9c0 14.6 11.8 26.4 26.4 26.4 14.6 0 26.4-11.8 26.4-26.4s-11.8-26.4-26.4-26.4c-14.6 0-26.4 11.8-26.4 26.4z m32.8 0c0 3.5-2.9 6.4-6.4 6.4-3.5 0-6.4-2.9-6.4-6.4s2.9-6.4 6.4-6.4c3.5 0 6.4 2.9 6.4 6.4z" fill="#4D3500" /><path d="M936.1 928.1l-2.5-22.3v-1.3l-5.6-51.4c0-0.5-0.1-0.9-0.2-1.3l-29.4-267.9c-1.6-15.5-14.7-27.2-30.3-27.2H720.5l-20.3-187.1c-2.4-21.6-20.6-37.9-42.3-37.9h-42V254c-0.1-105.9-86.2-192-192-192S232 148.1 232 253.9v77.7h-42c-21.8 0-40 16.3-42.3 37.9L87.9 914.8c-1.3 12 2.6 24.1 10.6 33 8.1 9 19.6 14.1 31.7 14.1H905.8c8.7 0 17-3.7 22.8-10.2 5.8-6.4 8.5-15 7.5-23.6zM231.9 466.8l-0.3-0.3c-5.7-5.9-9.2-13.9-9.2-22.7 0-8.8 3.5-16.8 9.2-22.7l0.3-0.3c3.4-3.5 7.6-6.1 12.3-7.8 0.6-0.1 1.2-0.3 1.8-0.6 2.9-0.8 5.9-1.3 9.1-1.3 13.2 0 24.7 7.9 29.8 19.3 0.1 0.1 0.1 0.3 0.2 0.4 1.7 4 2.7 8.3 2.7 12.9 0 4.3-0.9 8.4-2.4 12.2-0.3 0.5-0.5 1-0.7 1.5-5.2 11.1-16.5 18.9-29.6 18.9-9.1 0.2-17.3-3.5-23.2-9.5z m46.3-115.2h5.8V400c-1.9-1.2-3.8-2.3-5.8-3.3v-45.1zM304 463c2.3-5.9 3.6-12.4 3.6-19.1s-1.3-13.2-3.6-19.1v-73.2h75.2V942H304V463z m-10-131.4h-15.8v-77.7c0-80.3 65.4-145.7 145.7-145.7s145.7 65.4 145.7 145.7v77.7H294z m278.7 225c-3.1 0-6.1 0.5-8.9 1.3v-70.1c8.3 5.5 18.2 8.7 28.9 8.7 7.3 0 14.2-1.5 20.5-4.2v64.3h-40.5z m29.4-143.9c0.4 0.1 0.7 0.3 1.1 0.4 4.9 1.7 9.3 4.5 12.8 8.1l0.1 0.1c5.7 5.9 9.1 13.8 9.1 22.6s-3.5 16.7-9.1 22.6l-0.1 0.1c-5.9 6.1-14.2 9.9-23.3 9.9-13 0-24.2-7.6-29.4-18.6-0.2-0.6-0.5-1.2-0.8-1.7-1.6-3.8-2.4-8-2.4-12.3 0-14.3 9.3-26.5 22.1-30.8 0.4-0.1 0.7-0.2 1.1-0.4 3-0.9 6.2-1.4 9.4-1.4 3.3 0 6.4 0.5 9.4 1.4zM563.7 400v-48.4h5.9v45.1c-2 1-4 2.1-5.9 3.3z m-20-48.4v73.2c-2.3 5.9-3.6 12.4-3.6 19.1 0 6.8 1.3 13.3 3.7 19.3v114c-0.7 2.1-1.2 4.3-1.4 6.6l-29.5 269.3-5.7 51.4c0 0.4-0.1 0.9 0 1.3l-2.4 22.2c-0.5 4.8 0.1 9.5 1.7 13.9h-37.7V351.6h74.9z m-10.2 512.6h162.2c8.2 1.7 16.5 2.6 24.7 2.6 8.4 0 16.7-0.9 24.7-2.6H909l3.4 31.4H530.1l3.4-31.4z m101.7-194.6c-0.6 0.1-1.2 0.3-1.8 0.6-2.8 0.9-5.8 1.3-8.9 1.3-3.2 0-6.2-0.5-9.1-1.4-0.5-0.2-1-0.4-1.5-0.5-11.9-4.4-20.3-15.8-20.3-29.1 0-17.1 13.9-31 31-31s31 13.9 31 31c-0.2 13.3-8.6 24.7-20.4 29.1z m-13.8 21.8c1 0.1 2.1 0.1 3.1 0.1s2 0 3-0.1v56.4c0 51.2 41.7 92.9 92.9 92.9s92.9-41.7 92.9-92.9v-56.4c1 0.1 2.1 0.1 3.1 0.1s2 0 3-0.1v56.4c0 22.6-7.9 44.8-22.1 62.3-14.1 17.3-33.7 29.5-55.3 34.3-13.9 3.1-28.8 3.2-43.1 0-21.6-4.8-41.3-17-55.3-34.3-14.3-17.6-22.1-39.7-22.1-62.3v-56.4z m205.7-21.8c-0.6 0.1-1.2 0.3-1.8 0.6-2.8 0.9-5.8 1.3-8.9 1.3-3.2 0-6.2-0.5-9.1-1.4-0.5-0.2-1-0.4-1.5-0.5-11.9-4.4-20.3-15.8-20.3-29.1 0-17.1 13.9-31 31-31s31 13.9 31 31c-0.2 13.3-8.6 24.7-20.4 29.1z m51.5-83.6l28.3 258.2H790c8.4-6.1 16.1-13.3 22.7-21.4 17.2-21.1 26.6-47.7 26.6-75V686c16.5-8.4 27.9-25.6 28-45.5 0-28.1-22.9-51-51-51s-51 22.9-51 51c0 19.8 11.4 37 27.9 45.4v61.9c0 40.2-32.7 72.9-72.9 72.9s-72.9-32.7-72.9-72.9V686c16.5-8.4 27.9-25.6 28-45.5 0-28.1-22.9-51-51-51s-51 22.9-51 51c0 19.8 11.4 37 27.9 45.4v61.9c0 27.2 9.4 53.8 26.6 75 6.6 8.2 14.3 15.3 22.7 21.4h-115l28-253.8 0.3-2.5v-0.1c0.6-5.3 5.1-9.4 10.5-9.4h137.2c2.1 0 4-0.6 5.7-1.8H868c5.5 0 10 4 10.6 9.4zM680.3 371.7l20.1 184.9h-67.2v-79.2c7.6-9.1 12.1-20.8 12.1-33.5s-4.5-24.4-12.1-33.5v-58.8h24.6c11.6 0 21.2 8.6 22.5 20.1zM252 253.9C252 159.1 329.1 82 423.9 82c94.8 0 171.9 77.1 171.9 171.9v137.5c-1-0.1-2.1-0.1-3.1-0.1s-2.1 0-3.1 0.1V253.9c0-91.4-74.3-165.7-165.7-165.7-91.4 0-165.7 74.3-165.7 165.7v86.4c-0.1 0.4-0.1 0.9-0.1 1.3s0 0.9 0.1 1.3v48.5c-1.1-0.1-2.1-0.1-3.2-0.1-1 0-2 0-3 0.1V253.9zM113.4 934.5c-4.3-4.8-6.3-11.1-5.6-17.5l59.8-545.3c1.2-11.5 10.9-20.1 22.5-20.1h24.6v58.7c-7.6 9.1-12.2 20.9-12.2 33.6s4.6 24.5 12.2 33.6V942h-84.4c-6.6 0-12.6-2.7-16.9-7.5z m121.2 7.5V492.4c6.3 2.7 13.2 4.1 20.4 4.1 10.7 0 20.7-3.2 29-8.7V942h-49.4z m164.6 0V351.6h49.4V942h-49.4z m514.5-3.5c-2 2.3-4.8 3.5-7.9 3.5H536.7c-3 0-5.8-1.2-7.8-3.5s-3-5.2-2.7-8.2l1.6-14.7h386.8l1.6 14.7c0.4 3.1-0.5 5.9-2.5 8.2z" fill="#4D3500" /><path d="M816.4 615.7c-13.7 0-24.8 11.1-24.8 24.8s11.1 24.8 24.8 24.8 24.8-11.1 24.8-24.8-11.1-24.8-24.8-24.8z m0 29.6c-2.7 0-4.8-2.1-4.8-4.8s2.1-4.8 4.8-4.8c2.6 0 4.8 2.2 4.8 4.8 0 2.7-2.1 4.8-4.8 4.8zM624.5 615.7c-13.7 0-24.8 11.1-24.8 24.8s11.1 24.8 24.8 24.8 24.8-11.1 24.8-24.8-11.1-24.8-24.8-24.8z m0 29.6c-2.7 0-4.8-2.1-4.8-4.8s2.1-4.8 4.8-4.8c2.6 0 4.8 2.2 4.8 4.8 0 2.7-2.1 4.8-4.8 4.8z" fill="#4D3500" /></svg>