<?xml version="1.0" standalone="no"?><!DOCTYPE svg PUBLIC "-//W3C//DTD SVG 1.1//EN" "http://www.w3.org/Graphics/SVG/1.1/DTD/svg11.dtd"><svg class="icon" width="200px" height="200.00px" viewBox="0 0 1024 1024" version="1.1" xmlns="http://www.w3.org/2000/svg"><path d="M83.9 328.4L72 278.2l331-77.8 11.9 50.2-331 77.8zM609.1 151.6l330.8-80 12.1 50.1-330.8 80-12.1-50.1z" fill="#3DC38A" /><path d="M512 252.7h-25.8v154.7h51.6V252.7H512z" fill="#F2B843" /><path d="M730.7 381.6H293.4c-3.7 6.3-94.2 105.1-103.1 259.6-1.5 17-1.5 34.5 0 51.6l54 25.8h525.5l63.9-25.8c1.5-17 1.5-34.5 0-51.6-6.3-111.4-47.5-186.9-103-259.6z" fill="#3DC38A" /><path d="M512 692.8H190.3c9.3 158.5 99 252.3 103.1 259.6h437.2c4.1-7.2 93.8-100.9 103.1-259.6H512z" fill="#2F9B77" /><path d="M782.3 641.2H641v-208h64.5c46.3 61.9 72.1 135.3 76.8 208zM383.1 433.2v208H241.8c4.6-72.7 30.4-146.1 76.8-208h64.5z" fill="#EA800C" /><path d="M434.7 433.2v471h154.7v-471H434.7z" fill="#F2B843" /><path d="M634.3 145.4c-6.5-27.5-34-44.5-61.4-38L512 121.7l-96.2 22.6c-27.5 6.5-44.5 34-38 61.4l12 51.2c6.5 27.5 34 44.5 61.4 38l60.8-14.3 96.2-22.6c27.5-6.5 44.5-34 38-61.4l-11.9-51.2z" fill="#EA800C" /><path d="M961.7 119.5l-12.1-50.1c-0.6-2.6-2.2-4.8-4.5-6.2-2.3-1.4-5-1.8-7.6-1.2L641 133.7c-4.9-11.8-13.3-21.7-24.3-28.5-13.9-8.6-30.2-11.2-46.1-7.5l-157.1 36.9c-15.9 3.8-29.4 13.5-38 27.3-6.9 11.1-10 23.9-8.9 36.7L69.7 268.5c-2.6 0.6-4.8 2.2-6.2 4.5-1.4 2.3-1.8 5-1.2 7.6l11.9 50.2c1.1 4.6 5.2 7.7 9.7 7.7 0.8 0 1.5-0.1 2.3-0.3L383 268.3c4.8 11.9 13.3 22 24.4 28.9 9.8 6 20.8 9.1 31.9 9.1 4.7 0 9.5-0.6 14.1-1.7l22.8-5.4v72.3H293.4c-3.5 0-6.7 1.8-8.5 4.7-0.4 0.5-1.5 2-2.7 3.4-77.4 97.5-98.1 195.6-101.9 260.7-1.5 17.6-1.5 35.4 0 53 3.6 61.5 19.4 120.6 46.9 175.8 22 44 45.6 73.2 54.4 84.2 1.3 1.6 2.8 3.4 3.2 4 1.8 3 5 4.8 8.5 4.8h437.3c3.5 0 6.7-1.8 8.5-4.8 0.4-0.6 1.9-2.4 3.2-4 8.9-11 32.5-40.2 54.4-84.2 27.5-55.2 43.3-114.3 46.9-175.8 1.5-17.7 1.5-35.5 0-53.1-7-121-54.6-198.8-105.1-264.9-1.9-2.5-4.8-3.9-7.9-3.9H547.8v-89.1l62.7-14.7c15.9-3.8 29.4-13.5 38-27.3 7-11.3 10-24.2 8.9-37.1l297-71.7c5.3-1.3 8.6-6.7 7.3-12zM84 285.6l286.4-67.4 7.2 30.7-286.3 67.5-7.3-30.8z m642.9 655.3c-0.4 0.5-0.8 0.9-1.1 1.4H298.3c-0.3-0.4-0.7-0.9-1.1-1.3-69.4-86-90.9-175.2-96.2-238.2h223.7v201.4c0 5.5 4.5 10 10 10h154.7c5.5 0 10-4.5 10-10V702.8h223.7c-5.3 63-26.8 152.2-96.2 238.1z m-147.5-46.7H444.7v-451h134.7v451z m244.4-252.4v0.3c1.2 13.5 1.4 27.1 0.6 40.7h-225V433.2c0-5.5-4.5-10-10-10H434.7c-5.5 0-10 4.5-10 10v249.6H199.6c-0.7-13.5-0.5-27.4 0.6-40.7v-0.3c3.6-62.2 23.4-156.1 97.6-249.6 0.2-0.2 0.3-0.4 0.5-0.6h427.4c47.5 62.8 91.6 136.9 98.1 250.2z m-296-270.2h-31.5v-77l18-4.2 13.5-3.2v84.4z m103.6-141.7c-5.8 9.3-14.8 15.9-25.5 18.4l-96.2 22.6-60.8 14.3c-10.6 2.5-21.6 0.7-31-5-9.3-5.8-15.9-14.8-18.4-25.5v-0.2c0-0.1 0-0.2-0.1-0.3 0-0.1-0.1-0.2-0.1-0.3l-11.8-50.4c-2.5-10.6-0.7-21.6 5-31 5.8-9.3 14.8-15.9 25.5-18.4l157.1-36.9c3.2-0.7 6.3-1.1 9.5-1.1 7.5 0 14.9 2.1 21.5 6.1 9.2 5.7 15.7 14.6 18.3 25.1 0 0.2 0.1 0.5 0.1 0.7 0.1 0.2 0.1 0.5 0.2 0.7l11.7 50.2c2.6 10.7 0.8 21.7-5 31z m22.1-46.3l-7.1-30.7 286.2-69.2 7.4 30.7-286.5 69.2z" fill="#4D3500" /><path d="M641 651.2h141.3c2.8 0 5.4-1.1 7.3-3.2s2.9-4.7 2.7-7.5c-2.4-37.7-10.3-75-23.4-110.8-13.4-36.9-32.1-71.3-55.4-102.5-1.9-2.5-4.9-4-8-4H641c-5.5 0-10 4.5-10 10v208c0 5.5 4.5 10 10 10z m10-208h49.5c20.8 28.5 37.5 59.9 49.7 93.4 11.2 30.7 18.4 62.5 21.4 94.6H651v-188zM383.1 423.2h-64.5c-3.1 0-6.1 1.5-8 4-23.4 31.2-42 65.7-55.5 102.5-13.1 35.9-20.9 73.2-23.3 110.8-0.2 2.8 0.8 5.5 2.7 7.5s4.5 3.2 7.3 3.2h141.3c5.5 0 10-4.5 10-10v-208c0-5.5-4.5-10-10-10z m-10 208H252.6c3-32.1 10.1-63.9 21.3-94.6 12.2-33.4 28.9-64.8 49.7-93.4h49.5v188z" fill="#4D3500" /></svg>