<?xml version="1.0" standalone="no"?><!DOCTYPE svg PUBLIC "-//W3C//DTD SVG 1.1//EN" "http://www.w3.org/Graphics/SVG/1.1/DTD/svg11.dtd"><svg class="icon" width="200px" height="200.00px" viewBox="0 0 1024 1024" version="1.1" xmlns="http://www.w3.org/2000/svg"><path d="M584.7 211.9h-147c-16.8 0-30.4-13.6-30.5-30.5V106c0-16.8 13.6-30.4 30.5-30.5h147c16.8 0 30.4 13.6 30.5 30.5v75.5c-0.1 16.7-13.7 30.4-30.5 30.4z m-147-122.7c-9.2 0-16.7 7.5-16.7 16.7v75.5c0 9.2 7.5 16.7 16.7 16.7h147c9.2 0 16.7-7.5 16.7-16.7V106c0-9.2-7.5-16.7-16.7-16.7l-147-0.1z" fill="#EA800C" /><path d="M552.3 167.7H472c-10.5 0-19 8.5-19 19V258h118.4v-71.3c-0.1-10.4-8.6-19-19.1-19z" fill="#F2B843" /><path d="M512 593.6m-354.9 0a354.9 354.9 0 1 0 709.8 0 354.9 354.9 0 1 0-709.8 0Z" fill="#2F9B77" /><path d="M512 593.6m-286.7 0a286.7 286.7 0 1 0 573.4 0 286.7 286.7 0 1 0-573.4 0Z" fill="#DBE2EB" /><path d="M512 593.6m-286.7 0a286.7 286.7 0 1 0 573.4 0 286.7 286.7 0 1 0-573.4 0Z" fill="#3DC38A" /><path d="M449.6 535.2L334 775.9l240.6-115.6 115.6-240.6-240.6 115.5z" fill="#EA800C" /><path d="M449.6 535.2L334 775.9l240.6-115.6-125-125.1z" fill="#F2B843" /><path d="M483.425556 626.366713a40.4 40.4 0 1 0 57.133231-57.135225 40.4 40.4 0 1 0-57.133231 57.135225Z" fill="#FFFFFF" /><path d="M512.1 361.2c-3.8 0-6.9-3.1-6.9-6.9v-20.4c0-3.8 3.1-6.9 6.9-6.9s6.9 3.1 6.9 6.9v20.4c0 3.8-3.1 6.9-6.9 6.9zM512.1 859.1c-3.8 0-6.9-3.1-6.9-6.9v-20.4c0-3.8 3.1-6.9 6.9-6.9s6.9 3.1 6.9 6.9v20.4c0 3.8-3.1 6.9-6.9 6.9zM771.3 600h-20.4c-3.8 0-6.9-3.1-6.9-6.9s3.1-6.9 6.9-6.9h20.4c3.8 0 6.9 3.1 6.9 6.9s-3.1 6.9-6.9 6.9zM273.4 600H253c-3.8 0-6.9-3.1-6.9-6.9s3.1-6.9 6.9-6.9h20.4c3.8 0 6.9 3.1 6.9 6.9s-3.1 6.9-6.9 6.9z" fill="#2F9B77" /><path d="M848.2 451.6c-18.4-43.5-44.7-82.5-78.2-116s-72.5-59.8-116-78.2c-23.6-10-47.9-17.3-72.8-22.1v-13.4h3.5c22.2 0 40.4-18.1 40.5-40.4V106c0-22.2-18.1-40.4-40.5-40.5h-147c-22.2 0-40.4 18.1-40.5 40.5v75.5c0 22.3 18.2 40.4 40.5 40.4h5.2v13.3c-25 4.8-49.3 12.2-72.9 22.1-43.5 18.4-82.5 44.7-116 78.2s-59.8 72.5-78.2 116c-19 45-28.7 92.8-28.7 142s9.6 97 28.7 142c18.4 43.5 44.7 82.5 78.2 116s72.5 59.8 116 78.2c45 19 92.8 28.7 142 28.7s97-9.6 142-28.7c43.5-18.4 82.5-44.7 116-78.2s59.8-72.5 78.2-116c19-45 28.7-92.8 28.7-142s-9.6-96.9-28.7-141.9zM437.7 188.2c-3.7 0-6.7-3-6.7-6.7V106c0-3.7 3-6.7 6.7-6.7h147c3.7 0 6.7 3 6.7 6.7v75.4c0 3.7-3 6.7-6.7 6.7h-3.5v-1.4c0-16-13-29-29-29h-80.3c-16 0-29 13-29 29v1.5h-5.2z m25.2-1.5c0-5 4-9 9-9h80.3c5 0 9 4 9 9V232c-16.2-2.2-32.6-3.3-49.2-3.3s-32.9 1.1-49.1 3.3v-45.3z m293 650.8c-65.1 65.1-151.8 101-243.9 101s-178.7-35.9-243.9-101c-65.1-65.1-101-151.8-101-243.9s35.9-178.7 101-243.9c51.4-51.4 116.2-84.6 186.4-96.3 0.1 0 0.3 0 0.4-0.1 18.7-3.1 37.7-4.7 57.1-4.7 92.1 0 178.7 35.9 243.9 101 65.1 65.1 101 151.8 101 243.9s-35.9 178.8-101 244z" fill="#4D3500" /><path d="M721.8 383.8c-56-56-130.5-86.9-209.8-86.9-79.3 0-153.8 30.9-209.8 86.9-56 56-86.9 130.5-86.9 209.8 0 79.3 30.9 153.8 86.9 209.8 56 56 130.5 86.9 209.8 86.9 79.3 0 153.8-30.9 209.8-86.9s86.9-130.5 86.9-209.8c0-79.3-30.9-153.8-86.9-209.8z m-14.1 405.5c-52.3 52.3-121.7 81-195.7 81s-143.4-28.8-195.7-81c-52.3-52.3-81-121.7-81-195.7s28.8-143.4 81-195.7c52.3-52.3 121.7-81 195.7-81s143.4 28.8 195.7 81 81 121.7 81 195.7-28.8 143.4-81 195.7z" fill="#4D3500" /><path d="M685.9 410.7L445.3 526.2l-0.6 0.3s-0.1 0-0.1 0.1l-0.9 0.6c-0.1 0.1-0.2 0.1-0.2 0.2-0.2 0.2-0.4 0.3-0.6 0.5l-0.2 0.2c-0.2 0.2-0.5 0.5-0.7 0.8 0 0.1-0.1 0.1-0.1 0.2-0.2 0.2-0.4 0.5-0.5 0.7-0.1 0.1-0.1 0.2-0.2 0.2-0.2 0.3-0.4 0.6-0.5 0.9L325 771.6c-1.8 3.8-1.1 8.4 1.9 11.4 0.5 0.5 1 0.9 1.6 1.3 1.7 1.1 3.6 1.7 5.5 1.7 1 0 2-0.2 2.9-0.5 0.1 0 0.2-0.1 0.3-0.1 0.1 0 0.1-0.1 0.2-0.1 0.3-0.1 0.6-0.2 0.8-0.3L579 669.3c2.5-1.2 4.3-3.3 5.1-5.8l115-239.5c1.8-3.8 1.1-8.4-1.9-11.4-2.9-3-7.5-3.8-11.3-1.9zM490.6 576.3s0-0.1 0 0c5.6-5.5 13.1-8.9 21.4-8.9 16.8 0 30.4 13.6 30.4 30.4 0 8-3.1 15.2-8.1 20.6-0.3 0.2-0.5 0.4-0.8 0.7-0.3 0.3-0.5 0.5-0.7 0.8-5.4 5.1-12.8 8.3-20.8 8.3-16.8 0-30.4-13.6-30.4-30.4 0-8.3 3.4-15.9 8.9-21.4 0-0.1 0-0.1 0.1-0.1z m21.4 71.9c10.3 0 20-3.1 28-8.5l17.7 17.7-202.3 97.2 97.1-202.3 17.6 17.6c-5.3 8-8.5 17.6-8.5 27.9 0 27.8 22.6 50.4 50.4 50.4z m59.7-5L554 625.5c5.3-8 8.3-17.5 8.3-27.7 0-27.8-22.6-50.4-50.4-50.4-10.3 0-19.8 3.1-27.8 8.4l-17.6-17.7L668.9 441l-97.2 202.2z" fill="#4D3500" /></svg>