<?xml version="1.0" standalone="no"?><!DOCTYPE svg PUBLIC "-//W3C//DTD SVG 1.1//EN" "http://www.w3.org/Graphics/SVG/1.1/DTD/svg11.dtd"><svg class="icon" width="200px" height="200.00px" viewBox="0 0 1024 1024" version="1.1" xmlns="http://www.w3.org/2000/svg"><path d="M512 210.5c-14.2 0-25.8-11.5-25.8-25.8v-51.6c0-14.2 11.5-25.8 25.8-25.8s25.8 11.5 25.8 25.8v51.6c0 14.2-11.6 25.8-25.8 25.8z" fill="#F2B843" /><path d="M867.4 688.7l34.4-103.3c4.5-13.5 19.1-20.8 32.6-16.3s20.8 19.1 16.3 32.6L916.3 705c0-0.1-53.4-2.8-48.9-16.3zM107.7 704.9L73.3 601.7c-4.5-13.5 2.8-28.1 16.3-32.6s28.1 2.8 32.6 16.3l34.4 103.3c4.5 13.5-48.9 16.2-48.9 16.2z" fill="#2F9B77" /><path d="M916.3 704.9c-0.4 1.1-0.8 2.1-1.3 3.1-4.3 8.9-13.3 14.5-23.2 14.5H132.2c-9.9 0-18.9-5.6-23.2-14.5-0.5-1-0.9-2-1.3-3.1 0-0.1-0.1-0.2-0.1-0.2-2.4-7.4-1.6-16.4 4.3-23.9l29.1-39.2L237.1 512l56.4-76 192.7-259.8 5.5-7.5c4.9-6.2 12.3-9.8 20.2-9.8s15.4 3.6 20.2 9.8l5.5 7.5L730.5 436l56.4 76L883 641.7l29.1 39.2c6 7.5 6.7 16.6 4.2 24z" fill="#3DC38A" /><path d="M471.5 570.1l-57 75.6-31.3-23.6L237.1 512l56.4-76 141.9 106.9zM786.9 512L640.8 622.1l-31.3 23.6-57-75.6 36.1-27.2L730.5 436z" fill="#F2B843" /><path d="M706.9 722.6L512 426.3 317.1 722.6z" fill="#EA800C" /><path d="M619.4 796.8c26.2-72.6-11.5-104.1-11.5-104.1s-3.4 12-4.6 14.6c-7.4 15.5-29.7 15.7-30.4-14.4-1.6-79.7-84.8-111.5-84.8-111.5s39.1 46.7-2.5 114c-6.3 10.2-14.5 3.9-23-3.7-15.1-13.3-41.2-5.7-41.2-5.7s30.2 17.7 10.7 71.7c-5.7 13.4-4.1 28.4-0.8 39.5l50.3 27.2c26.9 14.6 59.4 14.6 86.4 0.1l51.4-27.7zM433.9 894c-1.4-11.3-10.3-19.4-19.9-18.2-1 0.1-2 0.4-3 0.7-7.9 2.7-13 11.8-11.7 21.9 1.4 11.3 10.3 19.4 19.8 18.2 0.7-0.1 1.3-0.2 2-0.4l2.9-1.1c6.9-3.5 11.1-11.9 9.9-21.1z" fill="#F2B843" /><path d="M524.9 876.5l-9.3-21.8H468l-56.8 21.8c1-0.3 2-0.6 3-0.7 9.6-1.2 18.5 6.9 19.9 18.2 1.1 9.2-3.1 17.6-9.9 21.1l100.7-38.6z" fill="#2F9B77" /><path d="M566.2 817.1c21.6-76.1-55.4-95.9-55.4-95.9s34.9 27.7 19.3 56.5c-3.9 11.2-20.5 15.2-33.4 5.5s-13.2-18.1-13.2-18.1-15.5 26.4-7.2 49.2l6.3 4.3c25.3 17.5 58.9 16.9 83.6-1.5z" fill="#EA800C" /><path d="M639.3 832.8c22-8.4 9.1-47.1-15.3-37.8l-99.1 38 13.2 27.7 43.7-5.9 57.5-22z" fill="#2F9B77" /><path d="M638.7 876.5l-56.8-21.7-57-21.8-99.2-38c-24.4-9.4-37.3 29.4-15.3 37.8l57.5 22 57 21.8L625.7 915c-6.8-3.4-11-11.9-9.8-21.1 1.4-11.3 10.3-19.4 19.8-18.2 1 0.2 2 0.5 3 0.8z" fill="#3DC38A" /><path d="M650.4 898.4c1.3-10-3.9-19.1-11.7-21.9-1-0.3-2-0.6-3-0.7-9.5-1.2-18.4 6.9-19.8 18.2-1.2 9.2 3.1 17.6 9.8 21.1l2.9 1.1c0.6 0.2 1.3 0.3 2 0.4 9.5 1.2 18.4-7 19.8-18.2z" fill="#F2B843" /><path d="M958.2 577.5c-4.3-8.5-11.6-14.9-20.7-17.9-9.1-3-18.8-2.3-27.3 1.9-8.5 4.3-14.9 11.6-17.9 20.7l-12.7 38.2L794.9 506l-56.4-76-190.7-256.8v-40c0-19.7-16.1-35.8-35.8-35.8s-35.8 16.1-35.8 35.8v39.7L285.5 430l-56.4 76-84.7 114.2-12.6-38c-6.2-18.7-26.5-28.9-45.2-22.6-18.7 6.2-28.9 26.5-22.6 45.2l33.2 99.6c0.3 1.2 0.5 2.3 0.9 3.4 0.1 0.3 0.2 0.7 0.4 1 0.4 1 0.9 2.3 1.5 3.6 6 12.4 18.3 20.1 32.2 20.1h296c-0.8 6.6-2.6 13.8-5.3 21.4-4.3 10.3-4.9 20.7-4.2 29.6-6.3-0.1-12.4 2-17.4 6.1-8.8 7.1-13.5 19.6-11.7 31 1.6 10 7.9 17.9 17.3 21.5l32.9 12.6-32.1 12.3c-0.3 0.1-0.5 0.2-0.7 0.3-12 4.6-19.3 18-17.5 32.2 1.1 8.6 5.4 16.4 11.8 21.4 4.7 3.7 10.3 5.6 16 5.6 1 0 2.1-0.1 3.1-0.2h0.2c1-0.1 2.1-0.3 3.3-0.7 0.3-0.1 0.5-0.2 0.8-0.3l2.9-1.1c0.3-0.1 0.7-0.3 1-0.4l96.2-36.8 96.2 36.6 0.1 0.1c0.4 0.2 0.7 0.3 1.1 0.5l2.9 1.1c0.1 0 0.3 0.1 0.4 0.1 1.5 0.5 2.8 0.7 3.8 0.8h0.2c1 0.1 2.1 0.2 3.1 0.2 5.7 0 11.3-2 16-5.6 6.5-5 10.8-12.8 11.9-21.4 1.8-14.2-5.6-27.7-17.7-32.4-0.1 0-0.2-0.1-0.3-0.2L610 854.4l33-12.4c15-5.7 21.7-22.4 15.4-38.7-3.9-10.3-12.9-18.7-24.5-19.8 5.3-20.3 5.7-37.2 3.7-51h254.3c13.8 0 26.2-7.7 32.2-20.1 0.8-1.6 1.3-3 1.7-4.1 0-0.1 0.1-0.2 0.1-0.3 0.1-0.3 0.2-0.7 0.3-1l34.1-102.4c2.9-8.9 2.2-18.6-2.1-27.1z m-314.9 30.2l-41.2-62.5L728.5 450l44.5 60-129.7 97.7z m-262.6 0L251 510l44.5-59.9 126.4 95.2-41.2 62.4z m52.2-79.2L307.4 434l186.8-251.9 5.4-7.3c3-3.7 7.5-5.9 12.3-5.9 4.8 0 9.3 2.2 12.2 5.8l5.4 7.4 187 251.8L591 528.4l-70.7-107.7c-1.8-2.8-5-4.5-8.4-4.5-3.4 0-6.5 1.7-8.4 4.5l-70.6 107.8zM512 117.4c8.7 0 15.8 7.1 15.8 15.8v19.4c-4.9-2.4-10.3-3.7-15.9-3.7-5.5 0-10.9 1.3-15.7 3.6v-19.3c0-8.7 7.1-15.8 15.8-15.8zM92.9 578.6c4-1.3 8.3-1 12 0.9 3.8 1.9 6.6 5.1 7.9 9.1l17 51.3-22.9 30.9-24-72.2c-2.8-8.3 1.7-17.3 10-20z m4.8 127.7c0 0.2 0 0.4 0.1 0.5-0.1-0.1-0.1-0.3-0.1-0.5z m20.2-2.6s0-0.1-0.1-0.1c-0.1-0.2-0.2-0.3-0.2-0.5-0.1-0.7-0.3-1.5-0.6-2.2l-0.6-1.7c-0.5-3-0.3-7.7 3.2-12.2l0.2-0.2 28.4-38.2c0.6-0.6 1-1.2 1.4-1.9l89.5-120.6 130.6 98.4-58 88.2H132.1c-6.1-0.1-11.6-3.5-14.2-9z m394.3-92.9c-0.5-2-0.9-3.9-1.5-5.7 22.4 15.4 51.3 43.8 52.2 87.9 0.2 6.9 2.2 29.9 21.2 34 10.4 2.2 21.1-3.2 27-13.2 1.5 2.9 2.9 6.4 4.1 10.4 0.1 0.9 0.4 1.7 0.7 2.4 3.8 14.3 4.7 34.9-4.5 62.5l-31.9 12.3c1.9-17.4-1.2-33.2-9-47.2-17.4-30.9-52.9-41.3-57-42.5h-0.1c-0.2-0.1-0.4-0.1-0.6-0.1-0.1 0-0.2-0.1-0.4-0.1s-0.3 0-0.5-0.1c-1.1-0.1-2.1-0.1-3.1 0.1h-0.2c-0.2 0-0.4 0.1-0.6 0.1-0.1 0-0.3 0.1-0.4 0.1-0.1 0-0.3 0.1-0.4 0.2-0.2 0.1-0.3 0.1-0.5 0.2-0.1 0.1-0.2 0.1-0.4 0.2s-0.3 0.2-0.5 0.2c-0.1 0.1-0.2 0.1-0.4 0.2-0.1 0.1-0.3 0.2-0.4 0.3-0.1 0.1-0.3 0.2-0.4 0.3-0.1 0.1-0.2 0.2-0.3 0.2-0.2 0.2-0.4 0.3-0.5 0.5-0.1 0.1-0.1 0.1-0.2 0.1-0.2 0.2-0.4 0.4-0.6 0.7l-0.1 0.1c-0.2 0.2-0.4 0.5-0.5 0.7l-0.1 0.1c-0.1 0.2-0.2 0.3-0.3 0.5-0.1 0.1-0.2 0.3-0.2 0.4 0 0 0 0.1-0.1 0.1-0.1 0.3-0.2 0.5-0.4 0.8v0.1l-0.3 0.9v0.2c-0.1 0.2-0.1 0.5-0.2 0.7 0 0.1 0 0.3-0.1 0.4 0 0.2-0.1 0.3-0.1 0.5v2c0 0.2 0 0.4 0.1 0.5 0 0.1 0 0.3 0.1 0.4 0 0.2 0.1 0.3 0.1 0.5s0.1 0.3 0.1 0.5c0 0.1 0.1 0.3 0.1 0.4 0.1 0.2 0.1 0.4 0.2 0.5 0 0.1 0.1 0.2 0.2 0.3 0.1 0.2 0.2 0.4 0.3 0.5 0.1 0.1 0.1 0.2 0.2 0.3 0.1 0.2 0.2 0.3 0.3 0.5 0.1 0.1 0.2 0.3 0.3 0.4 0.1 0.1 0.2 0.3 0.3 0.4 0.1 0.2 0.3 0.3 0.5 0.5l0.2 0.2 0.1 0.1c0.1 0.1 0.3 0.3 0.7 0.6 4.6 3.9 27.3 24.5 16.8 43.9-0.3 0.5-0.5 1-0.7 1.5-0.8 2.3-3.2 3.3-4.6 3.8-4.2 1.3-9.2 0.2-13.4-3-7.1-5.3-8.8-9.5-9.1-10.7 0.4-4.5-2.5-8.1-6.8-9.6-4.5-1.5-9.4 1-11.8 5.1-0.6 1-10.7 18.5-11 38.8l-24.2-9.3c-1.6-7.4-2.6-18.2 1.6-28.1 0.1-0.2 0.1-0.3 0.2-0.5 5.2-14.5 7.2-26.7 7.2-37 0.1-0.4 0.1-0.9 0.1-1.3 0-0.6-0.1-1.2-0.2-1.8-0.5-11.4-3.5-20.2-7.2-26.9 5.3 0.4 10.7 1.8 14.5 5.2 6.1 5.4 14.5 12.8 24.4 11.3 3.8-0.6 9.3-2.7 13.7-9.9 23.5-37.5 22.9-69.4 18.3-89.6z m15.7 210.3c-1.8 0.1-3.7 0.2-5.5 0.2l-37.9-14.5c-1.4-6.7-0.5-13.7 1-19.8 1.5 1.4 3.2 2.8 5.1 4.3 9.3 7 20.9 9.2 31.2 6.1 8.2-2.5 14.5-8.1 17.3-15.5 5.1-9.8 6.2-20.5 3.3-31.3 3.9 3.8 7.6 8.2 10.5 13.4 7.2 12.8 8.8 28.2 4.8 45.7l-29.8 11.4z m-118.7 76c-0.7-5.6 1.9-10 4.9-11.1 0.4-0.1 0.8-0.2 0.9-0.3h0.2c1.9-0.2 3.5 0.6 4.5 1.4 2.3 1.8 3.8 4.7 4.2 8.1v0.1c0.3 2.3 0 4.5-0.7 6.3 0 0.1 0 0.1-0.1 0.1-0.1 0.1-0.1 0.3-0.2 0.4-0.9 1.8-2.1 3.2-3.4 3.9l-1.5 0.6c-0.1 0-0.2 0-0.3 0.1-1.8 0.2-3.3-0.6-4.3-1.4-2.2-1.8-3.8-4.7-4.2-8.2z m34.7-4.4c-0.7-5.8-2.9-11.3-6.2-15.7l30-11.5 29.1 11.1-52.6 20.1c0-1.4-0.1-2.7-0.3-4z m196.6 4.4c-0.4 3.4-2 6.4-4.3 8.2-1 0.8-2.5 1.6-4.3 1.4h-0.3l-1.2-0.4c-0.1 0-0.2-0.1-0.2-0.1-2.3-1.1-4.4-4.4-4.5-8.8 0-0.7 0-1.4 0.1-2.1 0.4-3.4 2-6.3 4.2-8.1 1-0.8 2.5-1.6 4.4-1.4h0.2c0.1 0 0.3 0.1 0.6 0.2 0.1 0 0.2 0.1 0.3 0.1 3 1.1 5.7 5.5 5 11z m-34.5-4.5c-0.1 0.8-0.2 1.7-0.2 2.5v0.2c0 0.5-0.1 0.9-0.1 1.4l-76-29c-0.8-0.4-1.6-0.7-2.5-1l-53.8-20.6c-1.2-0.7-2.4-1.2-3.8-1.5L414 823.5c-1.7-0.7-4.1-2-4.7-5.9-0.7-4.4 1.2-9.7 4.5-12.3 1.4-1.1 2.9-1.7 4.6-1.7 1.2 0 2.4 0.3 3.8 0.8l50.2 19.2c0.3 0.1 0.6 0.2 0.9 0.4l43 16.5c0.4 0.2 0.8 0.3 1.2 0.4l4 1.5 90.8 34.7c-3.4 4.4-5.6 9.8-6.3 15.5z m33.7-82.1c0.2 0.4 3.7 10-3.9 12.9l-54 20.6-29-11 15.9-6.1c0.7-0.2 1.3-0.4 2-0.8l51.3-19.7c0.6-0.2 1.2-0.4 1.7-0.7l3.9-1.5c7.7-2.9 11 3.4 12.1 6.3z m-7.3-97.9c-6.9-18.1-17.2-26.9-18-27.7-2.6-2.2-6.1-2.9-9.4-1.9-3.2 1-5.8 3.6-6.7 6.8-1.5 5.2-3.5 11.7-4 13.1-1.6 3.3-4.3 4.8-5.9 4.5-2-0.4-5.2-4.8-5.4-14.9-0.7-35.5-16.8-67.7-46.5-93-22.1-18.8-43.8-27.2-44.7-27.6-4.3-1.6-9.1-0.2-11.7 3.5s-2.4 8.7 0.5 12.2c0.3 0.4 34 41.9-3.3 102.3l-0.1 0.1c-2.4-1.3-6.3-4.8-7.8-6.1-19-16.7-49.3-8.2-50.6-7.8-3.8 1.1-6.6 4.4-7.1 8.4s1.4 7.8 4.9 9.9c0 0 5 3.3 8.6 11.1 1 2.2 1.8 4.5 2.4 6.9h-91.7l55.9-85 52.2-79.2 68-103.7 68.2 103.9 52.2 79.2 55.9 85h-55.9z m273.6-8.8c-2.6 5.5-8.1 8.8-14.2 8.8H712.3l-58-88.2L784.9 526 875 647.7l29.1 39.2c0.1 0.1 0.1 0.2 0.2 0.2 4.1 5.2 3.7 10.6 2.8 13.8l-0.3 0.8c0 0.1-0.1 0.2-0.1 0.3-0.2 0.6-0.5 1.1-0.7 1.6v0.2z m35.2-105.4l-24.1 72.4-23-30.9 17.2-51.5c1.3-4 4.1-7.2 7.9-9.1s8-2.2 12-0.9c4 1.3 7.2 4.1 9.1 7.9 1.9 3.9 2.2 8.1 0.9 12.1z" fill="#4D3500" /></svg>