<?xml version="1.0" standalone="no"?><!DOCTYPE svg PUBLIC "-//W3C//DTD SVG 1.1//EN" "http://www.w3.org/Graphics/SVG/1.1/DTD/svg11.dtd"><svg class="icon" width="200px" height="200.00px" viewBox="0 0 1024 1024" version="1.1" xmlns="http://www.w3.org/2000/svg"><path d="M207.3 723.5c-46.6 0-89.3-31.2-101.8-78.4-14.9-56.2 18.6-113.9 74.8-128.9C324.2 478 478 324.2 516.2 180.3c14.9-56.2 72.6-89.7 128.9-74.8 56.2 14.9 89.7 72.6 74.8 128.9-27.7 104.5-92.8 211.8-183.3 302.3-90.4 90.5-197.7 155.6-302.2 183.3-9 2.4-18.1 3.5-27.1 3.5z" fill="#3DC38A" /><path d="M253.2 862.2c-52.4 0-100.2-35-114.3-88-16.8-63.2 20.9-128 84-144.7C397.1 583.3 583.3 397.1 629.5 223c16.8-63.2 81.5-100.8 144.7-84s100.8 81.5 84 144.7c-32.8 123.5-109.8 250.5-216.9 357.6S407.1 825.5 283.6 858.2c-10.1 2.7-20.3 4-30.4 4z" fill="#F2B843" /><path d="M405.8 922c-46.6 0-89.3-31.2-101.8-78.4-14.9-56.2 18.6-113.9 74.8-128.9 143.9-38.2 297.7-192 335.9-335.9 14.9-56.2 72.6-89.7 128.9-74.8 56.2 14.9 89.7 72.6 74.8 128.9-27.7 104.5-92.8 211.8-183.3 302.3S537.3 890.8 432.8 918.5c-9 2.4-18.1 3.5-27 3.5z" fill="#3DC38A" /><path d="M529.9 529.9c-21.4 21.4-49.9 33.2-80.2 33.2-19 0-34.5 15.5-34.5 34.5 0 62.5-50.9 113.4-113.4 113.4-21.8 0-39.4-17.7-39.4-39.4s17.7-39.4 39.4-39.4c19 0 34.5-15.5 34.5-34.5 0-62.5 50.9-113.4 113.4-113.4 9.2 0 17.9-3.6 24.4-10.1s10.1-15.2 10.1-24.4c0-30.3 11.8-58.8 33.2-80.2s49.9-33.2 80.2-33.2c19 0 34.5-15.5 34.5-34.5 0-21.8 17.7-39.4 39.4-39.4 21.8 0 39.4 17.7 39.4 39.4 0 62.5-50.9 113.4-113.4 113.4-19 0-34.5 15.5-34.5 34.5 0.2 30.2-11.6 58.7-33.1 80.1z" fill="#EA800C" /><path d="M863.9 300.6c1.4-4.9 2.8-9.7 4.1-14.5 8.8-33.1 4.2-67.7-13-97.3-17.2-29.6-44.9-50.8-78.1-59.6-24.1-6.3-49-5.6-72.4 1.9C689.6 114 670.1 102 647.7 96c-29.8-7.9-60.9-3.8-87.6 11.7-26.7 15.5-45.7 40.4-53.6 70.2-9.1 34.2-24.9 69.5-47.2 105.1-21.5 34.4-48 67.4-78.5 98-30.6 30.6-63.6 57-98 78.5-35.6 22.2-70.9 38.1-105.1 47.2-61.4 16.4-98.2 79.7-81.9 141.1 6 22.3 18.1 41.8 35.4 57-7.5 23.4-8.2 48.2-1.9 72.1 14.9 56.2 65.9 95.4 124 95.4 11 0 22.1-1.5 33-4.3h0.1c4.7-1.3 9.5-2.6 14.3-4 18.3 40.8 59.2 68 105.1 68 10.1 0 20-1.3 29.6-3.8 106.1-28.2 215-94.2 306.8-185.9C834 650.5 900 541.6 928.1 435.5c14.6-55.4-13.7-112.2-64.2-134.9z m-748.7 342c-13.5-50.8 16.9-103.1 67.7-116.7C254.1 507 329.5 460.6 395 395.1c65.5-65.5 112-140.8 130.9-212.1 6.5-24.6 22.2-45.3 44.3-58s47.7-16.2 72.4-9.6c16.3 4.3 30.6 12.6 42.3 24-31.8 16.6-55.7 46-64.9 81-9.5 35.5-24.9 71.9-45.7 108.3-24 4.6-46.1 16.2-63.8 33.9-23.3 23.3-36.1 54.3-36.1 87.3 0 6.6-2.5 12.7-7.2 17.3-4.6 4.6-10.8 7.2-17.3 7.2-60 0-110.2 43.1-121.2 99.9-36.7 21-73 36.3-108.1 45.6-35 9.4-64.4 33.3-81 65.2-11.8-11.9-20.1-26.3-24.4-42.5z m585.7-340.7c0 57-46.4 103.4-103.4 103.4-24.5 0-44.5 20-44.5 44.6 0.2 27.5-10.5 53.4-30.2 72.9-19.5 19.5-45.5 30.3-73.1 30.3-24.5 0-44.5 20-44.5 44.5 0 57-46.4 103.4-103.4 103.4-16.2 0-29.4-13.2-29.4-29.4s13.2-29.4 29.4-29.4c24.5 0 44.5-20 44.5-44.5 0-4.9 0.4-9.8 1-14.5 0.2-0.8 0.3-1.6 0.4-2.4 8.1-49 50.7-86.5 102-86.5 11.9 0 23.1-4.6 31.5-13 8.4-8.4 13-19.6 13-31.5 0-27.6 10.8-53.6 30.3-73.1 19.5-19.5 45.5-30.3 73.1-30.3 24.5 0 44.5-20 44.5-44.5 0-16.2 13.2-29.4 29.4-29.4s29.4 13.2 29.4 29.4zM281.1 848.6c-9.2 2.4-18.5 3.7-27.8 3.7-49 0-92-33.1-104.6-80.6-5.9-22.2-4.6-45.2 3.6-66.6 12.5-32.3 39.9-57 73.3-65.9 32.9-8.7 66.7-22.4 100.7-40.8-0.4 13.2-11.2 23.8-24.5 23.8-27.2 0-49.4 22.2-49.4 49.4s22.2 49.4 49.4 49.4c68 0 123.4-55.4 123.4-123.4 0-13.5 11-24.5 24.5-24.5 33 0 64-12.8 87.3-36.1 23.5-23.4 36.3-54.3 36-87.2 0-13.5 11-24.5 24.5-24.5 68 0 123.4-55.4 123.4-123.4 0-8.7-2.3-16.9-6.2-24-0.5-1.4-1.3-2.8-2.4-3.9-8.9-13-23.8-21.5-40.7-21.5-27.2 0-49.4 22.2-49.4 49.4 0 13.3-10.6 24.1-23.8 24.5 18.3-33.9 32-67.8 40.9-100.9 8.8-33 32.8-60.1 64.5-72.8 0.8-0.2 1.6-0.5 2.4-0.9 21.1-7.9 43.8-9 65.7-3.2 28 7.4 51.4 25.3 65.9 50.3 14.5 25 18.4 54.2 11 82.1-1.1 4.3-2.4 8.7-3.7 13.1-61.2-15.5-123.8 21.1-139.9 82.2-9.1 34.2-24.9 69.5-47.2 105.1-21.5 34.4-48 67.4-78.5 98s-63.6 57-98 78.5c-35.6 22.2-70.9 38.1-105.1 47.2-61.1 16.3-97.7 78.9-82.2 140-4.5 1.2-8.8 2.4-13.1 3.5z m627.6-418.3C881.5 533.1 817.3 638.8 728 728.1c-89.3 89.3-195 153.5-297.8 180.7-7.9 2.1-16.1 3.2-24.4 3.2-43.2 0-81.1-29.2-92.1-71-13.5-50.8 16.9-103.1 67.7-116.7C452.6 705.4 528 659 593.5 593.5c65.5-65.5 112-140.8 130.9-212.1 11.3-42.6 50-70.9 92.2-70.9 8.1 0 16.3 1 24.4 3.2 50.8 13.4 81.2 65.8 67.7 116.6z" fill="#4D3500" /></svg>