<?xml version="1.0" standalone="no"?><!DOCTYPE svg PUBLIC "-//W3C//DTD SVG 1.1//EN" "http://www.w3.org/Graphics/SVG/1.1/DTD/svg11.dtd"><svg class="icon" width="200px" height="200.00px" viewBox="0 0 1024 1024" version="1.1" xmlns="http://www.w3.org/2000/svg"><path d="M444.6 512.7c0 8.1-6.6 14.8-14.8 14.8H266.3l59.1 136.8c3.2 7.5-0.3 16.2-7.7 19.4-1.9 0.8-3.9 1.2-5.8 1.2-5.7 0-11.2-3.3-13.6-8.9l-64.2-148.4h-59.9c-8.1 0-14.8-6.6-14.8-14.8 0-8.1 6.6-14.8 14.8-14.8h255.7c8.1-0.1 14.7 6.5 14.7 14.7z" fill="#EA800C" /><path d="M787 729l-77.9-99.3-64.2-530h263.9l36.7 210.8C973 468.5 912.2 628.9 787 729z" fill="#2F9B77" /><path d="M411 923.5c-1.6 0.5-3.2 0.8-4.8 0.8-6.1 0-11.8-3.8-14-10L329 730.2l-60.9 183.9c-2.1 6.2-7.8 10.1-14 10.1-1.5 0-3.1-0.2-4.6-0.8-7.7-2.6-11.9-10.9-9.4-18.6L313 685.1c2.3-6.8 9-10.9 15.9-10 6.8-0.9 13.5 3.1 15.8 9.8l75.5 219.9c2.6 7.7-1.5 16.1-9.2 18.7z" fill="#EA800C" /><path d="M497.2 99.7h413L772.5 709.4h-413c54.1-193.3 98.7-389.1 133.6-586.7l4.1-23z" fill="#3DC38A" /><path d="M792.2 99.7l-4.1 23c-34.9 197.6-79.5 393.4-133.6 586.7h-177c54.1-193.3 98.7-389.1 133.6-586.7l4.1-23h177z" fill="#F2B843" /><path d="M733.2 748.7H111.3c-21.7 0-39.3-17.6-39.3-39.3S89.6 670 111.3 670h661.2l-39.3 78.7z" fill="#F2B843" /><path d="M929.8 497.9H556.2c-8.1 0-14.8 6.6-14.8 14.8 0 8.1 6.6 14.8 14.8 14.8h131.3L746.1 690l-71.2 215c-2.6 7.7 1.6 16.1 9.4 18.6 1.5 0.5 3.1 0.8 4.6 0.8 6.2 0 12-3.9 14-10.1L762.3 735 827 914.4c2.1 6.1 7.8 10 14 10 1.6 0 3.2-0.3 4.8-0.8 7.7-2.6 11.8-11 9.2-18.7l-77.6-215.2 53.7-162.1H930c8.1 0 14.8-6.6 14.8-14.8s-6.8-14.9-15-14.9zM761.1 644.6l-42.3-117.2h81l-38.7 117.2z" fill="#EA800C" /><path d="M955.5 308.8l-35.8-205.7 0.3-1.2c0.7-3 0-6.1-1.9-8.5-1.9-2.4-4.8-3.8-7.8-3.8h-413c-4.8 0-9 3.5-9.8 8.2l-4.1 23c-21.7 122.4-47.4 245.8-76.5 366.9H174.2c-13.7 0-24.8 11.1-24.8 24.8s11.1 24.8 24.8 24.8h53.3l53 122.6H111.3C84.1 660 62 682.2 62 709.4s22.1 49.3 49.3 49.3h166.8l-47.3 143c-2.1 6.3-1.6 13 1.4 19 3 5.9 8.1 10.3 14.4 12.3 2.6 0.8 5.2 1.3 7.7 1.3 10.8 0 20.2-6.8 23.5-17l51.6-155.7L383 917.5c3.3 10.1 12.7 16.8 23.4 16.8 2.5 0 5.1-0.4 7.8-1.3 0.1 0 0.1 0 0.2-0.1 6.3-2.1 11.3-6.6 14.2-12.5 2.9-5.9 3.3-12.6 1.2-18.9l-49.1-142.9h332.2l-47.4 143.1c-2.1 6.3-1.6 13 1.4 19 3 5.9 8.1 10.3 14.4 12.3 2.6 0.8 5.2 1.3 7.7 1.3 10.8 0 20.2-6.8 23.5-17l50.3-151.9 54.9 152.1c3.5 10 12.9 16.7 23.4 16.7 2.5 0 5.1-0.4 7.8-1.3 0.1 0 0.1 0 0.2-0.1 6.3-2.1 11.3-6.6 14.2-12.5 2.9-5.9 3.3-12.6 1.2-18.9 0-0.1 0-0.1-0.1-0.2l-62.1-172.1c60.8-51.3 106.8-117.6 133.4-192.5 10.9-2.6 19-12.4 19-24.1 0-6.4-2.4-12.2-6.4-16.6 15.7-61.2 18-124.2 7.2-187.1z m-25.7 179.1h-97.1l75.5-334.1 27.6 158.4c10.2 59 8.2 118-6 175.7z m-207.5 0c28.7-120.1 54.2-242.3 75.6-363.4l2.6-14.8h97.1l-85.4 378.2h-89.9z m-166.1 0c-4.2 0-8.1 1-11.6 2.9 29.1-121.3 54.7-243.9 76.3-366.3l2.6-14.8H780.2l-2 11.3c-21.7 122.4-47.4 245.8-76.5 366.9H556.2z m0 49.6h124.3l5.4 15c-8.8 35.1-18.2 71.2-28.1 107.5H501.5c11.9-44.1 23.4-88.5 34.4-133.2 4.4 6.5 11.9 10.7 20.3 10.7zM724.7 660h-46.2c6.7-24.9 13.2-49.6 19.5-74l26.7 74zM502.9 124.4l2.6-14.8h97.7l-2 11.4c-32 181-72.6 362.3-120.5 539h-97.4c12-44.6 23.4-88.3 33.7-130.2l3.6-14.7c1.2-4.9 2.4-9.9 3.6-14.8 30.1-124.1 56.5-250.6 78.7-375.9zM334.5 660l-53-122.6h113.1c-9.9 39.6-20.6 80.8-32 122.6h-28.1z m-91.2-136.6c-1.6-3.7-5.2-6-9.2-6h-59.9c-2.6 0-4.8-2.2-4.8-4.8 0-2.7 2.1-4.8 4.8-4.8h227.7c-0.2 0.8-0.4 1.7-0.6 2.5-0.6 2.4-1.2 4.7-1.7 7.1H266.3c-3.4 0-6.5 1.7-8.4 4.5-1.8 2.8-2.2 6.4-0.8 9.5L312.7 660h-10.3l-59.1-136.6z m15.4 387.7c-0.7 2.2-2.8 3.2-4.5 3.2-0.3 0-0.8-0.1-1.4-0.3h-0.1c-1.6-0.5-2.4-1.7-2.7-2.3-0.3-0.6-0.8-2-0.2-3.6l49.4-149.3h10l-50.5 152.3z m152-3.1c0.6 1.6 0.1 3-0.2 3.7-0.3 0.6-1.1 1.8-2.6 2.3-0.7 0.2-1.3 0.3-1.7 0.3-1.7 0-3.7-1.1-4.4-3.1v-0.1l-52.3-152.3h10.1L410.7 908z m-87.5-169.3h-31.1H111.3c-16.2 0-29.3-13.1-29.3-29.3 0-16.2 13.1-29.4 29.3-29.4H664c0.5 0.1 0.9 0.1 1.4 0.1 0.5 0 0.9 0 1.4-0.1h65.1l3.7 10.1-16.1 48.6H323.2z m522.1 173.1c-0.3 0.6-1.1 1.8-2.6 2.3-0.8 0.3-1.4 0.3-1.7 0.3-2 0-3.9-1.3-4.5-3.3v-0.1l-64.7-179.4c-1.4-4-5.2-6.6-9.4-6.6h-0.1c-4.3 0.1-8 2.8-9.4 6.9l-59.4 179.4c-0.7 2.2-2.8 3.2-4.5 3.2-0.3 0-0.8-0.1-1.4-0.3h-0.1c-1.6-0.5-2.4-1.7-2.7-2.3s-0.8-2-0.2-3.6l71.2-215c0.7-2.1 0.7-4.4-0.1-6.5l-7-19.5c-0.1-0.3-0.2-0.7-0.3-1l-51.2-142c-1.4-4-5.2-6.6-9.4-6.6H556.2c-2.6 0-4.8-2.2-4.8-4.8 0-2.6 2.2-4.8 4.8-4.8h152c0.9 0.1 1.9 0.1 2.8 0h218.8c2.7 0 5 2.2 5 4.9 0 2.6-2 4.6-4.5 4.8-1.3-0.2-2.5-0.2-3.7 0h-95.5c-4.3 0-8.1 2.8-9.5 6.9l-53.7 162.1c-0.7 2.1-0.7 4.4 0.1 6.5l12.8 35.5c0.2 0.6 0.4 1.3 0.7 1.9l64.1 177.7c0.5 1.4 0 2.7-0.3 3.4z m-50.2-202.6l-7.1-19.7 50.3-152h75.9c-24.9 66.3-65.8 125.2-119.1 171.7z" fill="#4D3500" /><path d="M770.6 647.7l38.7-117.2c1-3 0.5-6.4-1.4-9-1.9-2.6-4.9-4.1-8.1-4.1h-81c-3.3 0-6.3 1.6-8.2 4.3s-2.3 6.1-1.2 9.1L751.7 648c1.4 4 5.2 6.6 9.4 6.6h0.1c4.3-0.1 8.1-2.8 9.4-6.9z m-9.9-33.7L733 537.4h53L760.7 614z" fill="#4D3500" /></svg>