<?xml version="1.0" standalone="no"?><!DOCTYPE svg PUBLIC "-//W3C//DTD SVG 1.1//EN" "http://www.w3.org/Graphics/SVG/1.1/DTD/svg11.dtd"><svg class="icon" width="200px" height="200.00px" viewBox="0 0 1024 1024" version="1.1" xmlns="http://www.w3.org/2000/svg"><path d="M876.9 222.2c-19.5 0-35.6-15-37.2-34.2-0.1-1.5-1.4-2.7-2.9-2.7h-66.1c-1.5 0-2.8 1.1-2.9 2.7-1.6 19.1-17.7 34.2-37.2 34.2s-35.6-15-37.2-34.2c-0.1-1.5-1.4-2.7-2.9-2.7h-66.1c-1.5 0-2.8 1.1-2.9 2.7-1.6 19.1-17.7 34.2-37.2 34.2s-35.6-15-37.2-34.2c-0.1-1.5-1.4-2.7-2.9-2.7h-66.1c-1.5 0-2.8 1.1-2.9 2.7-1.6 19.1-17.7 34.2-37.2 34.2s-35.6-15-37.2-34.2c-0.1-1.5-1.4-2.7-2.9-2.7h-66.1c-1.5 0-2.8 1.1-2.9 2.7-1.6 19.1-17.7 34.2-37.2 34.2s-35.6-15-37.2-34.2c-0.1-1.5-1.4-2.7-2.9-2.7h-66.1c-1.5 0-2.8 1.1-2.9 2.7-1.6 19.1-17.7 34.2-37.2 34.2s-35.6-15-37.2-34.2c-0.1-1.5-1.4-2.7-2.9-2.7H74.2c-6.7 0-12.2 5.4-12.2 12.2v56.7c0 1.6 1.3 3 3 3 20.7 0 37.3 16.8 37.3 37.3 0 20.7-16.8 37.3-37.3 37.3-1.6 0-3 1.2-3 3v65.7c0 1.6 1.3 3 3 3 20.7 0 37.3 16.8 37.3 37.3 0 20.6-16.6 37.3-37.2 37.3-1.6 0-3 1.2-3 3V543c0 1.6 1.3 3 3 3 20.7 0 37.3 16.8 37.3 37.3 0 20.6-16.7 37.3-37.3 37.3-1.6 0-3 1.2-3 3v65.7c0 1.6 1.3 3 3 3 20.7 0 37.3 16.8 37.3 37.3 0 20.7-16.8 37.3-37.3 37.3-1.6 0-3 1.2-3 3v56.7c0 6.7 5.4 12.2 12.2 12.2h31.5c1.5 0 2.8-1.1 2.9-2.7 1.6-19.1 17.7-34.2 37.2-34.2s35.6 15 37.2 34.2c0.1 1.5 1.4 2.7 2.9 2.7h66c1.5 0 2.8-1.1 2.9-2.7 1.6-19.1 17.7-34.2 37.2-34.2s35.6 15 37.2 34.2c0.1 1.5 1.4 2.7 2.9 2.7h66.1c1.5 0 2.8-1.1 2.9-2.7 1.6-19.1 17.7-34.2 37.2-34.2s35.6 15 37.2 34.2c0.1 1.5 1.4 2.7 2.9 2.7h66.1c1.5 0 2.8-1.1 2.9-2.7 1.6-19.1 17.7-34.2 37.2-34.2s35.6 15 37.2 34.2c0.1 1.5 1.4 2.7 2.9 2.7h66.1c1.5 0 2.8-1.1 2.9-2.7 1.6-19.1 17.7-34.2 37.2-34.2s35.6 15 37.2 34.2c0.1 1.5 1.4 2.7 2.9 2.7h66.1c1.5 0 2.8-1.1 2.9-2.7 1.6-19.1 17.7-34.2 37.2-34.2s35.6 15 37.2 34.2c0.1 1.5 1.4 2.7 2.9 2.7h32.7c6.7 0 12.2-5.4 12.2-12.2v-56.8c0-1.5-1.1-2.8-2.7-2.9-19.4-1.3-34.7-17.5-34.7-37.2s15.3-35.9 34.7-37.2c1.5-0.1 2.7-1.4 2.7-2.9v-65.9c0-1.5-1.1-2.8-2.7-2.9-19.4-1.3-34.7-17.5-34.7-37.2s15.3-35.9 34.7-37.2c1.5-0.1 2.7-1.4 2.7-2.9v-62.1c0-1.5-1.1-2.8-2.7-2.9-19.4-1.3-34.7-17.5-34.7-37.2s15.3-35.9 34.7-37.2c1.5-0.1 2.7-1.4 2.7-2.9v-65.9c0-1.5-1.1-2.8-2.7-2.9-19.4-1.3-34.7-17.5-34.7-37.2s15.3-35.9 34.7-37.2c1.5-0.1 2.7-1.4 2.7-2.9v-56.8c0-6.7-5.4-12.2-12.2-12.2h-32.7c-1.5 0-2.8 1.1-2.9 2.7-2 18.4-17.9 33.4-37.6 33.4z" fill="#3DC38A" /><path d="M838.2 677.2H179.1c-12.7 0-23-10.3-23-23s10.3-23 23-23h659.1c12.7 0 23 10.3 23 23 0.1 12.7-10.4 23-23 23zM838.2 756.5H179.1c-12.7 0-23-10.3-23-23s10.3-23 23-23h659.1c12.7 0 23 10.3 23 23 0.1 12.6-10.4 23-23 23z" fill="#2F9B77" /><path d="M861.3 271.7v306.6c0 5.4-4.4 9.9-9.9 9.9H165.9c-5.4 0-9.9-4.4-9.9-9.9V271.7c0-5.4 4.4-9.9 9.9-9.9h685.5c5.4 0 9.9 4.5 9.9 9.9z" fill="#F2B843" /><path d="M662.5 588.2H165.9c-5.4 0-9.9-4.4-9.9-9.9v-17.5l230.6-209.6 159.6 137.2 116.3 99.8z" fill="#2F9B77" /><path d="M831.6 588.2H436.4l109.9-99.9 82.2-74.7z" fill="#FFFFFF" /><path d="M722.7 351.1m-51.6 0a51.6 51.6 0 1 0 103.2 0 51.6 51.6 0 1 0-103.2 0Z" fill="#EA800C" /><path d="M960.3 268c6.7-0.5 12-6.1 12-12.9v-56.8c0-12.2-10-22.2-22.2-22.2h-32.7c-6.7 0-12.3 5.1-12.9 11.7-1.6 13.7-13.7 24.4-27.6 24.4-14.1 0-26-11-27.2-25-0.5-6.7-6.1-11.9-12.9-11.9h-66.1c-6.7 0-12.4 5.2-12.9 11.9-1.2 14-13.2 25-27.2 25-14.1 0-26-11-27.2-25-0.5-6.7-6.1-11.9-12.9-11.9h-66.1c-6.8 0-12.4 5.2-12.9 11.9-1.2 14-13.2 25-27.2 25-14.1 0-26-11-27.2-25-0.5-6.7-6.1-11.9-12.9-11.9h-66.1c-6.8 0-12.4 5.2-12.9 11.9-1.2 14-13.2 25-27.2 25-14.1 0-26-11-27.2-25-0.5-6.7-6.1-11.9-12.9-11.9h-66.1c-6.7 0-12.4 5.2-12.9 11.9-1.2 14-13.2 25-27.2 25-14.1 0-26-11-27.2-25-0.5-6.7-6.1-11.9-12.9-11.9h-66.1c-6.8 0-12.4 5.2-12.9 11.9-1.2 14-13.2 25-27.2 25-14.1 0-26-11-27.2-25-0.5-6.7-6.1-11.9-12.9-11.9H74.2c-12.2 0-22.2 10-22.2 22.2v56.7c0 7.2 5.8 13 13 13 15.1 0 27.3 12.2 27.3 27.3S80.1 321.8 65 321.8c-7.2 0-13 5.8-13 13v65.7c0 7.2 5.8 13 13 13 15.1 0 27.3 12.2 27.3 27.3s-12.2 27.3-27.2 27.3c-7.2 0-13 5.8-13 13V543c0 7.2 5.8 13 13 13 15.1 0 27.3 12.2 27.3 27.3s-12.2 27.3-27.3 27.3c-7.2 0-13 5.8-13 13v65.7c0 7.2 5.8 13 13 13 15.1 0 27.3 12.2 27.3 27.3 0 15.1-12.2 27.3-27.3 27.3-7.2 0-13 5.8-13 13v56.7c0 12.2 10 22.2 22.2 22.2h31.5c6.7 0 12.4-5.2 12.9-11.9 1.2-14 13.2-25 27.2-25 14.1 0 26 11 27.2 25 0.5 6.7 6.1 11.9 12.9 11.9h66c6.7 0 12.4-5.2 12.9-11.9 1.2-14 13.2-25 27.2-25 14.1 0 26 11 27.2 25 0.5 6.7 6.1 11.9 12.9 11.9h66.1c6.7 0 12.4-5.2 12.9-11.9 1.2-14 13.2-25 27.2-25 14.1 0 26 11 27.2 25 0.5 6.7 6.1 11.9 12.9 11.9h66.1c6.8 0 12.4-5.2 12.9-11.9 1.2-14 13.2-25 27.2-25 14.1 0 26 11 27.2 25 0.5 6.7 6.1 11.9 12.9 11.9h66.1c6.7 0 12.4-5.2 12.9-11.9 1.2-14 13.2-25 27.2-25 14.1 0 26 11 27.2 25 0.5 6.7 6.1 11.9 12.9 11.9h66.1c6.7 0 12.4-5.2 12.9-11.9 1.2-14 13.2-25 27.2-25 14.1 0 26 11 27.2 25 0.5 6.7 6.1 11.9 12.9 11.9h32.7c12.2 0 22.2-10 22.2-22.2v-56.8c0-6.8-5.3-12.5-12-12.9-14.2-1-25.4-12.9-25.4-27.2s11.1-26.3 25.4-27.2c6.7-0.4 12-6.1 12-12.9v-65.9c0-6.8-5.3-12.5-12-12.9-14.2-1-25.4-12.9-25.4-27.2s11.1-26.3 25.4-27.2c6.7-0.4 12-6.1 12-12.9v-62.1c0-6.8-5.3-12.5-12-12.9-14.2-1-25.4-12.9-25.4-27.2s11.1-26.3 25.4-27.2c6.7-0.4 12-6.1 12-12.9v-65.9c0-6.8-5.3-12.5-12-12.9-14.2-1-25.4-12.9-25.4-27.2s11.1-26.3 25.4-27.2z m-8 73.5V395c-21.4 4.6-37.4 23.7-37.4 46.3 0 22.5 15.9 41.7 37.4 46.3v49.8c-21.4 4.6-37.4 23.7-37.4 46.3 0 22.5 15.9 41.7 37.4 46.3v53.6c-21.4 4.6-37.4 23.7-37.4 46.3 0 22.5 15.9 41.7 37.4 46.3v50.6c0 1.2-1 2.2-2.2 2.2h-26.6c-4.8-21.1-24-36.9-46.2-36.9-22.2 0-41.3 15.8-46.2 36.9h-54c-4.8-21.1-24-36.9-46.2-36.9-22.2 0-41.3 15.8-46.2 36.9h-54c-4.8-21.1-24-36.9-46.2-36.9-22.2 0-41.3 15.8-46.2 36.9h-54c-4.8-21.1-24-36.9-46.2-36.9-22.2 0-41.3 15.8-46.2 36.9h-54c-4.8-21.1-24-36.9-46.2-36.9-22.2 0-41.3 15.8-46.2 36.9h-53.9c-4.8-21.1-24-36.9-46.2-36.9-22.2 0-41.3 15.8-46.2 36.9H74.3c-1.2 0-2.2-1-2.2-2.2v-50.2c22.8-3.4 40.3-23.1 40.3-46.8S94.9 686.4 72.1 683v-52.7c22.8-3.4 40.3-23.1 40.3-46.8s-17.5-43.4-40.3-46.8v-48.9c22.7-3.4 40.2-23.1 40.2-46.8 0-23.7-17.5-43.4-40.3-46.8v-52.7c22.8-3.4 40.3-23.1 40.3-46.8s-17.5-43.6-40.3-47v-50.2c0-1.2 1-2.2 2.2-2.2h25c4.8 21.1 24 36.9 46.2 36.9 22.2 0 41.3-15.8 46.2-36.9h54c4.8 21.1 24 36.9 46.2 36.9 22.2 0 41.3-15.8 46.2-36.9h54c4.8 21.1 24 36.9 46.2 36.9 22.2 0 41.3-15.8 46.2-36.9h54c4.8 21.1 24 36.9 46.2 36.9 22.2 0 41.3-15.8 46.2-36.9h54c4.8 21.1 24 36.9 46.2 36.9 22.2 0 41.3-15.8 46.2-36.9h54c4.8 21.1 24 36.9 46.2 36.9 22.3 0 41.3-15.1 46.4-36.1h26.8c1.2 0 2.2 1 2.2 2.2v50.6c-21.4 4.6-37.4 23.7-37.4 46.3-0.5 22.5 15.4 41.7 36.9 46.3z" fill="#4D3500" /><path d="M838.2 621.2H179.1c-18.2 0-33 14.8-33 33s14.8 33 33 33h659.1c8.9 0 17.2-3.5 23.5-9.8 6.2-6.3 9.6-14.5 9.5-23.2 0-18.2-14.8-33-33-33z m9.3 42.1c-2.5 2.5-5.8 3.9-9.3 3.9H179.1c-7.2 0-13-5.8-13-13s5.8-13 13-13h659.1c7.2 0 13 5.8 13 13.1 0 3.4-1.3 6.6-3.7 9zM838.2 700.5H179.1c-18.2 0-33 14.8-33 33s14.8 33 33 33h659.1c8.8 0 17.2-3.5 23.5-9.8 6.2-6.3 9.6-14.5 9.5-23.2 0-18.2-14.8-33-33-33z m9.3 42.1c-2.5 2.5-5.8 3.9-9.3 3.9H179.1c-7.2 0-13-5.8-13-13s5.8-13 13-13h659.1c7.2 0 13 5.8 13 13.1 0 3.3-1.3 6.5-3.7 9zM851.4 251.8H165.9c-11 0-19.9 8.9-19.9 19.9v306.6c0 11 8.9 19.9 19.9 19.9h685.5c11 0 19.9-8.9 19.9-19.9V271.7c0-11-8.9-19.9-19.9-19.9zM166 578.1v-13l220.8-200.7 144.4 124.1-98.6 89.6H166z m497.8 0.1c-0.4-0.1-0.9-0.1-1.3-0.1H462.4l90.6-82.4 75.7-68.8 175.9 151.3H663.8z m187.5 0h-16L635 406c-3.8-3.3-9.5-3.2-13.2 0.2L546.1 475l-153-131.4c-3.8-3.3-9.5-3.2-13.2 0.2L166 538.1V271.8h685.3v306.4z" fill="#4D3500" /><path d="M722.7 412.7c34 0 61.6-27.6 61.6-61.6s-27.6-61.6-61.6-61.6-61.6 27.6-61.6 61.6 27.6 61.6 61.6 61.6z m0-103.2c22.9 0 41.6 18.7 41.6 41.6s-18.7 41.6-41.6 41.6-41.6-18.7-41.6-41.6 18.7-41.6 41.6-41.6z" fill="#4D3500" /></svg>