<?xml version="1.0" standalone="no"?><!DOCTYPE svg PUBLIC "-//W3C//DTD SVG 1.1//EN" "http://www.w3.org/Graphics/SVG/1.1/DTD/svg11.dtd"><svg class="icon" width="200px" height="200.00px" viewBox="0 0 1024 1024" version="1.1" xmlns="http://www.w3.org/2000/svg"><path d="M529.5 455.4c-3.3-6.6-10.1-10.8-17.5-10.8s-14.2 4.2-17.5 10.8L289.8 908.6h43.8L512 508l179.9 400.6h43.8L529.5 455.4z" fill="#3DC38A" /><path d="M786.5 424.9h-243l171.8-171.8c5.1-5.1 5.1-13.4 0-18.5s-13.4-5.1-18.5 0L525.1 406.5v-243c0-7.2-5.9-13.1-13.1-13.1-7.2 0-13.1 5.9-13.1 13.1v243L327.1 234.7c-5.1-5.1-13.4-5.1-18.5 0s-5.1 13.4 0 18.5L480.4 425h-243c-7.2 0-13.1 5.9-13.1 13.1s5.9 13.1 13.1 13.1h243L308.6 622.9c-5.1 5.1-5.1 13.4 0 18.5 2.6 2.6 5.9 3.8 9.2 3.8s6.7-1.3 9.2-3.8l171.8-171.8v243c0 7.2 5.9 13.1 13.1 13.1 7.2 0 13.1-5.9 13.1-13.1v-243l171.8 171.8c2.6 2.6 5.9 3.8 9.2 3.8s6.7-1.3 9.2-3.8c5.1-5.1 5.1-13.4 0-18.5L543.6 451.1h243c7.2 0 13.1-5.9 13.1-13.1s-6-13.1-13.2-13.1z" fill="#F2B843" /><path d="M512 764.8c-180.2 0-326.8-146.6-326.8-326.8S331.8 111.2 512 111.2 838.8 257.8 838.8 438 692.2 764.8 512 764.8z m0-627.4c-165.8 0-300.7 134.9-300.7 300.7S346.2 738.7 512 738.7 812.7 603.8 812.7 438 677.8 137.4 512 137.4z" fill="#2F9B77" /><path d="M512 585.5c-81.3 0-147.5-66.2-147.5-147.5S430.7 290.5 512 290.5 659.5 356.7 659.5 438 593.3 585.5 512 585.5z m0-268.9c-66.9 0-121.4 54.5-121.4 121.4S445.1 559.4 512 559.4 633.4 505 633.4 438 578.9 316.6 512 316.6z" fill="#2F9B77" /><path d="M512 438m-52.3 0a52.3 52.3 0 1 0 104.6 0 52.3 52.3 0 1 0-104.6 0Z" fill="#EA800C" /><path d="M507.833172 463.76405a26.1 26.1 0 1 0 8.362886-51.525743 26.1 26.1 0 1 0-8.362886 51.525743Z" fill="#FFFFFF" /><path d="M237.5 372.7h-78.4c-14.4 0-26.1 11.7-26.1 26.1V438c0 36 29.3 65.4 65.4 65.4s65.4-29.3 65.4-65.4v-39.2c-0.2-14.4-11.9-26.1-26.3-26.1z" fill="#F9CB2A" /><path d="M237.5 372.7h-78.4c-14.4 0-26.1 11.7-26.1 26.1v26.1h130.7v-26.1c-0.1-14.4-11.8-26.1-26.2-26.1z" fill="#EA800C" /><path d="M329 150.4h-78.4c-14.4 0-26.1 11.7-26.1 26.1v39.2c0 36 29.3 65.4 65.4 65.4s65.4-29.3 65.4-65.4v-39.2c-0.2-14.3-11.9-26.1-26.3-26.1z" fill="#3DC38A" /><path d="M329 150.4h-78.4c-14.4 0-26.1 11.7-26.1 26.1v26.1h130.7v-26.1c-0.1-14.4-11.8-26.1-26.2-26.1zM551.2 72h-78.4c-14.4 0-26.1 11.7-26.1 26.1v39.2c0 36 29.3 65.4 65.4 65.4s65.4-29.3 65.4-65.4V98.1c-0.1-14.4-11.9-26.1-26.3-26.1z" fill="#F9CB2A" /><path d="M551.2 72h-78.4c-14.4 0-26.1 11.7-26.1 26.1v26.1h130.7V98.1c0-14.4-11.7-26.1-26.2-26.1z" fill="#EA800C" /><path d="M773.4 150.4H695c-14.4 0-26.1 11.7-26.1 26.1v39.2c0 36 29.3 65.4 65.4 65.4s65.4-29.3 65.4-65.4v-39.2c-0.1-14.3-11.8-26.1-26.3-26.1z" fill="#3DC38A" /><path d="M773.4 150.4H695c-14.4 0-26.1 11.7-26.1 26.1v26.1h130.7v-26.1c0-14.4-11.7-26.1-26.2-26.1zM864.9 372.7h-78.4c-14.4 0-26.1 11.7-26.1 26.1V438c0 36 29.3 65.4 65.4 65.4s65.4-29.3 65.4-65.4v-39.2c-0.1-14.4-11.8-26.1-26.3-26.1z" fill="#F9CB2A" /><path d="M864.9 372.7h-78.4c-14.4 0-26.1 11.7-26.1 26.1v26.1h130.7v-26.1c0-14.4-11.7-26.1-26.2-26.1z" fill="#EA800C" /><path d="M773.4 608H695c-14.4 0-26.1 11.7-26.1 26.1v39.2c0 36 29.3 65.4 65.4 65.4s65.4-29.3 65.4-65.4v-39.2c-0.1-14.4-11.8-26.1-26.3-26.1z" fill="#3DC38A" /><path d="M773.4 608H695c-14.4 0-26.1 11.7-26.1 26.1v26.1h130.7v-26.1c0-14.4-11.7-26.1-26.2-26.1zM551.2 686.4h-78.4c-14.4 0-26.1 11.7-26.1 26.1v39.2c0 36 29.3 65.4 65.4 65.4s65.4-29.3 65.4-65.4v-39.2c-0.1-14.4-11.9-26.1-26.3-26.1z" fill="#F9CB2A" /><path d="M551.2 686.4h-78.4c-14.4 0-26.1 11.7-26.1 26.1v26.1h130.7v-26.1c0-14.4-11.7-26.1-26.2-26.1z" fill="#EA800C" /><path d="M329 608h-78.4c-14.4 0-26.1 11.7-26.1 26.1v39.2c0 36 29.3 65.4 65.4 65.4s65.4-29.3 65.4-65.4v-39.2c-0.2-14.4-11.9-26.1-26.3-26.1z" fill="#3DC38A" /><path d="M329 608h-78.4c-14.4 0-26.1 11.7-26.1 26.1v26.1h130.7v-26.1c-0.1-14.4-11.8-26.1-26.2-26.1z" fill="#F9CB2A" /><path d="M892.4 952H131.6c-13.2 0-23.9-10.8-23.9-23.9 0-13.2 10.8-23.9 23.9-23.9h760.8c13.2 0 23.9 10.8 23.9 23.9 0 13.1-10.8 23.9-23.9 23.9z" fill="#3DC38A" /><path d="M381.4 452.4c4.8 43.5 30.8 80.6 67.4 100.8 0.3 0.2 0.6 0.4 1 0.5 11.7 6.3 24.6 10.9 38.1 13.5h0.2c3.2 0.6 6.4 1.1 9.6 1.4h0.4c4.6 0.5 9.3 0.7 14 0.7 4.7 0 9.4-0.3 14-0.7h0.4c3-0.3 5.9-0.7 8.8-1.3 0.5-0.1 1.1-0.2 1.6-0.3 13.3-2.5 25.9-7.1 37.4-13.3 0.4-0.2 0.9-0.4 1.3-0.7 36.5-20.2 62.4-57.3 67.1-100.7v-0.4c0.5-4.6 0.7-9.3 0.7-14 0-72.5-58.9-131.4-131.4-131.4s-131.4 59-131.4 131.5c0 4.7 0.3 9.4 0.7 14 0.1 0.1 0.1 0.2 0.1 0.4z m37.2-75.1l36.1 36.1c-0.2 0.5-0.4 1.1-0.6 1.6H403c2.9-13.7 8.3-26.4 15.6-37.7z m16.9-20.2l34.7 34.8c-1.5 1.4-2.9 2.8-4.3 4.3l-34.7-34.7c1.3-1.5 2.8-3 4.3-4.4z m157.4 4.4l-34.7 34.7c-1.4-1.5-2.8-3-4.3-4.3l34.7-34.8c1.4 1.4 2.9 2.9 4.3 4.4zM621 415h-51.1c-0.2-0.5-0.4-1.1-0.6-1.6l36.1-36.1c7.3 11.3 12.7 24 15.6 37.7z m-15.7 83.8l-36.1-36.1c0.2-0.5 0.4-1 0.6-1.6H621c-2.9 13.6-8.3 26.4-15.7 37.7z m-16.8 20.1l-34.7-34.7c1.5-1.4 2.9-2.8 4.3-4.3l34.7 34.7c-1.4 1.4-2.8 2.9-4.3 4.3zM540 545.8l-4.9-10.9v-39.1c0.5-0.2 1-0.4 1.6-0.6l20.3 44.7c-5.5 2.4-11.2 4.4-17 5.9z m34.2-104.7c0.1-1 0.1-2.1 0.1-3.1s0-2-0.1-3h49.1v6.1h-49.1z m-37.5-60.3c-0.5-0.2-1-0.4-1.6-0.6V329c13.6 2.9 26.3 8.3 37.6 15.6l-36 36.2zM522 396.9l1.2 0.3c3.7 1 7.2 2.5 10.5 4.5 0.1 0.1 0.2 0.1 0.3 0.2 5.7 3.5 10.5 8.2 14 13.9l0.9 1.5c1.7 2.9 3 6.1 3.9 9.4 0.1 0.5 0.2 1.1 0.4 1.6 0.7 3.1 1.1 6.4 1.1 9.7 0 3.4-0.4 6.8-1.2 10l-0.3 1.2c-1 3.7-2.5 7.2-4.5 10.5-0.1 0.1-0.1 0.2-0.2 0.3-7.4 12.2-20.9 20.3-36.1 20.3-15.3 0-28.7-8.2-36.1-20.3-0.1-0.1-0.1-0.2-0.2-0.3-1.9-3.2-3.5-6.8-4.5-10.5l-0.3-1.2c-0.8-3.2-1.2-6.6-1.2-10 0-3.4 0.4-6.6 1.1-9.7 0.2-0.5 0.3-1 0.4-1.6 0.9-3.3 2.2-6.5 3.9-9.4 0.4-0.5 0.7-1 0.9-1.5 3.5-5.7 8.3-10.4 14-13.9 0.1-0.1 0.2-0.1 0.3-0.2 3.2-1.9 6.8-3.5 10.5-4.5l1.2-0.3c3.2-0.8 6.6-1.2 10-1.2 3.4 0 6.8 0.4 10 1.2z m-33.1 138.4l-4.7 10.6c-5.9-1.5-11.5-3.5-17-5.9l20.2-44.7 1.5 0.6v39.4z m-57.7-20.7l34.7-34.7c1.4 1.5 2.8 2.9 4.3 4.3l-34.7 34.7c-1.5-1.4-2.9-2.9-4.3-4.3zM403 461.1h51.1c0.2 0.5 0.4 1 0.6 1.6l-36.1 36.1c-7.3-11.3-12.7-24.1-15.6-37.7z m84.3-80.3l-36.1-36.1c11.3-7.4 24-12.8 37.6-15.6v51.1c-0.4 0.2-0.9 0.4-1.5 0.6zM449.8 435c0 1-0.1 2-0.1 3s0 2.1 0.1 3.1h-49.1V438v-3h49.1z m59.1 114.4V500.3c1 0.1 2.1 0.1 3.1 0.1s2.1 0 3.1-0.1v49.1h-6.2z m6.2-222.8v49.1c-1-0.1-2.1-0.1-3.1-0.1s-2.1 0-3.1 0.1v-49.1h6.2z" fill="#4D3500" /><path d="M475.9 438c0 19.9 16.2 36.1 36.1 36.1 19.9 0 36.1-16.2 36.1-36.1s-16.2-36.1-36.1-36.1c-19.9 0-36.1 16.2-36.1 36.1z m52.2 0c0 8.9-7.2 16.1-16.1 16.1-8.9 0-16.1-7.2-16.1-16.1s7.2-16.1 16.1-16.1c8.9 0 16.1 7.2 16.1 16.1z" fill="#4D3500" /><path d="M892.4 894.2H740.2l-71.9-157.9c4.9-2.6 9.7-5.3 14.4-8.1 13.5 12.7 31.6 20.5 51.6 20.5 41.6 0 75.4-33.8 75.4-75.4V634c-0.1-8.3-2.9-15.9-7.7-22-0.3-0.4-0.7-0.8-1-1.2 18.5-30.8 31.8-64 39.6-98.8 34.5-6.9 60.6-37.4 60.6-73.9v-39.3c-0.1-8.3-2.9-15.9-7.7-22-6.6-8.5-17-14-28.6-14h-24.6c-8.5-37.2-23.2-72.3-43.7-104.6 8.2-12.1 13.1-26.7 13.1-42.4v-39.3c-0.1-8-2.8-15.5-7.3-21.5-0.1-0.1-0.2-0.2-0.3-0.4-6.6-8.6-17-14.2-28.7-14.2H695c-6.3 0-12.2 1.6-17.4 4.5-28.4-16.1-58.7-27.9-90.1-35.1V98c-0.1-8.1-2.8-15.5-7.3-21.5-0.1-0.1-0.2-0.3-0.3-0.4-6.6-8.6-17-14.1-28.7-14.1h-78.4c-19.9 0-36.1 16.2-36.1 36.1v11.6c-31.5 7.2-61.8 19-90.3 35.2-5.2-2.8-11.1-4.5-17.4-4.5h-78.4c-19.9 0-36.1 16.2-36.1 36.1v39.2c0 15.7 4.8 30.2 13 42.3-20.6 32.3-35.3 67.5-43.8 104.7h-24.6c-19.9 0-36.1 16.2-36.1 36.1V438c0 36.4 26 66.9 60.4 73.9 7.8 34.9 21.1 68.1 39.6 98.9-5.3 6.3-8.5 14.4-8.5 23.3v39.2c0 41.6 33.8 75.4 75.4 75.4 19.9 0 38-7.7 51.5-20.4 5 3 10 5.7 15.1 8.4l-71.1 157.5H131.6c-18.7 0-33.9 15.2-33.9 33.9s15.2 33.9 33.9 33.9h760.8c18.7 0 33.9-15.2 33.9-33.9s-15.2-33.9-33.9-33.9zM373.9 723.1c-6.6-3.2-13.1-6.7-19.7-10.4 1.1-1.7 2.1-3.5 3-5.4 6 3.5 12.2 6.8 18.6 9.9 11.7 5.8 24.2 10.9 37.2 15.3h0.1c8.2 2.7 15.9 5 23.6 6.9v6.3c-9.4-2.3-18.8-5-27.8-8.2-11.6-4-23.4-8.8-35-14.4z m-28.7-89v16.1H234.5v-16.1c0-8.9 7.2-16.1 16.1-16.1H329c5 0 9.5 2.3 12.5 5.9 2.3 2.8 3.7 6.3 3.7 10.2z m306.2 88.4c-0.1 0.1-0.3 0.1-0.4 0.1-0.3 0.2-0.7 0.3-1 0.5-11 5.3-22.5 10.1-34.1 14.2-9 3.2-18.6 6-28.5 8.4v-6.3c8-2 15.9-4.3 23.5-6.9 0.5-0.1 1-0.3 1.5-0.5 12.3-4.2 24.5-9.3 36.3-15.1 6.1-3 12.2-6.2 18.2-9.7 0.9 1.8 1.9 3.6 2.9 5.3-5.9 3.5-12.1 6.9-18.4 10z m-257.9-19.1L448.2 582c5.5 2.4 11.2 4.6 17 6.4l-54.4 122.1c-5.9-2.2-11.7-4.6-17.3-7.1z m-19-265.4c0-71.6 55.1-130.7 125.1-136.9h0.5c3.9-0.3 7.9-0.5 11.9-0.5s8 0.2 11.9 0.5h0.5c70 6.3 125.1 65.3 125.1 136.9 0 75.8-61.7 137.5-137.5 137.5S374.5 513.8 374.5 438z m64.7-281.4c6.6 24.8 25.5 44.6 49.7 52.5v73.2c-26.2 3.9-50.3 14.2-70.7 29.4l-61.3-61.3c5.4-10.4 8.4-22.1 8.4-34.5v-28.6c23.2-13.8 48-24 73.9-30.7zM512 280.5h-3.1v-67.9c1.1 0 2.1 0.1 3.2 0.1 1 0 2 0 3-0.1v67.9H512z m-166.8-13.6l57.7 57.7c-1.5 1.4-2.9 2.9-4.4 4.4l-57.7-57.7c1.6-1.5 3-2.9 4.4-4.4z m338 4.2l-57.8 57.8c-1.4-1.5-2.9-2.9-4.4-4.4l57.8-57.8c1.5 1.6 2.9 3 4.4 4.4z m-9 333.5l-53.1-53.1c1.5-1.4 2.9-2.9 4.4-4.4l54.2 54.3c-1.9 0.9-3.7 2-5.5 3.2zM512 595.5h3.1v80.9h-6.2v-80.9h3.1z m39.2 100.9c3.3 0 6.5 1 9.1 2.8 4.3 2.9 7.1 7.8 7.1 13.3v16.1H456.7v-16.1c0-8.9 7.2-16.1 16.1-16.1h78.4z m28.7-5.9c-6.6-8.6-17-14.1-28.7-14.1h-16.1v-82.6c1.4-0.2 2.8-0.4 4.1-0.7l55.5 123.5c-2.4 0.7-4.8 1.4-7.2 2v-6.2c-0.1-8.2-2.9-15.8-7.6-21.9z m33.9 19.7L559 588.3c5.9-1.8 11.6-4 17.1-6.5L631.2 703c-5.7 2.7-11.6 5.1-17.4 7.2z m35.4-16l-55.3-121.7c4.1-2.5 8.1-5.2 11.9-8.1l55.9 55.9c-1.8 4.3-2.7 8.9-2.7 13.8v39.2c0 5 0.5 9.9 1.4 14.6-3.7 2.2-7.5 4.3-11.2 6.3zM402.9 551.5l-53.1 53.1c-1.7-1.2-3.5-2.3-5.5-3.2l54.2-54.3 4.4 4.4z m-37.6 121.8v-39.2-0.1c-0.1-4.9-1.1-9.5-2.9-13.7l55.8-55.8c4 2.9 8 5.7 12.3 8.3l-55 121.8c-4-2.1-7.9-4.3-11.6-6.5 0.9-4.8 1.4-9.8 1.4-14.8zM485 593.2l3.9 0.6v82.6h-16.1c-19.9 0-36.1 16.2-36.1 36.1v6.3c-2.2-0.6-4.5-1.2-6.8-1.9L485 593.2z m-28.3 158.5v-3.1h110.8v3.1c0 1.6-0.1 3.1-0.2 4.6-0.1 0.6-0.2 1.2-0.2 1.9-3.2 27.5-26.7 48.9-55 48.9-30.5 0-55.4-24.9-55.4-55.4z m222.2-117.6c0-8.9 7.2-16.1 16.1-16.1h78.4c3.3 0 6.5 1 9.1 2.8 4.3 2.9 7.1 7.8 7.1 13.3v16.1H678.9v-16.1z m99.1-35.8c16.2-26.7 28.1-55.5 35.6-85.9 2 0.3 4.1 0.6 6.2 0.7-7.4 30.4-19.3 59.5-35.5 86.5-2-0.6-4.1-1-6.3-1.3z m-23.4-0.3h-50l-66.1-66.2c15.1-20.4 25.5-44.5 29.4-70.7H754c6.5 20.2 21.3 36.7 40.4 45.4-7.9 32.7-21.3 63.4-39.8 91.5z m-4.1-156.9h-81V438v-3h80.9v3c0 1 0 2.1 0.1 3.1z m-0.1-42.3V415h-82.6c-3.9-26.2-14.2-50.4-29.4-70.8l61.4-61.4c10.3 5.3 22 8.3 34.4 8.3 9 0 17.7-1.6 25.7-4.5 14.6 23.8 25.6 49.3 32.8 76.1h-6.3c-19.8 0-36 16.2-36 36.1z m39.3-183.1c0 13.2-4.6 25.3-12.3 34.8-0.4 0.4-0.8 0.9-1.1 1.4-10.2 11.8-25.2 19.3-41.9 19.3-30.5 0-55.4-24.9-55.4-55.4v-3.1h110.8v3z m-130.8-13.1v13.1c0 12.4 3 24.1 8.3 34.4l-61.4 61.4c-20.4-15.1-44.5-25.5-70.7-29.4V209c24.3-7.8 43.3-27.6 49.9-52.5 25.9 6.7 50.7 17 73.9 30.6v15.5z m-91.4-68.4v3.1c0 1.6-0.1 3.2-0.2 4.8v0.2c-0.2 0.8-0.2 1.6-0.2 2.3-3.6 27.1-26.8 48.1-54.9 48.1-30.5 0-55.4-24.9-55.4-55.4v-3.1h110.7z m-130.8 2.4c-25.6 6.4-50.1 16-73.3 28.7-0.7-1.9-1.5-3.8-2.4-5.6 24.1-13.1 49.4-23 75.7-29.4v6.3z m-91.4 79.1c0 10.9-3.2 21.1-8.7 29.7-0.5 0.6-0.9 1.2-1.3 1.9-3.9 5.6-8.8 10.5-14.5 14.3-0.3 0.2-0.7 0.4-1 0.6-8.7 5.6-19 8.9-30 8.9-30.5 0-55.4-24.9-55.4-55.4v-3.1h110.8v3.1z m-55.4 75.4c12.3 0 24-3 34.3-8.3l61.4 61.4c-15.2 20.4-25.5 44.6-29.4 70.8h-82.4v-16.2-0.1c-0.1-8.2-3-15.8-7.8-21.9-6.6-8.5-17-14-28.5-14h-6.3c7.2-26.9 18.2-52.4 32.8-76.2 8.1 2.9 16.8 4.5 25.9 4.5zM354.5 435v6.1h-80.8c0-1 0.1-2.1 0.1-3.1v-3h80.7z m-84.3 26.1h86c3.9 26.2 14.2 50.3 29.4 70.7L319.5 598h-50c-18.6-28.2-32-58.9-39.9-91.4 19.1-8.7 34-25.2 40.6-45.5z m-59.8 51.3c7.5 30.3 19.4 59 35.6 85.9-2.2 0.3-4.3 0.7-6.3 1.4-16.1-27.1-28-56.1-35.5-86.5 2.1-0.2 4.2-0.4 6.2-0.8z m200.7 246.9c8.9 2.8 18 5.2 27.1 7.3 6.9 34.5 37.4 60.5 73.9 60.5 36.5 0 67-26 73.9-60.5 9.6-2.2 18.9-4.7 27.7-7.5l60.6 135.1H351l60.1-134.9z m285.2 134.9l-63.6-141.8c5.9-2.3 11.8-4.7 17.6-7.4l67.9 149.1h-21.9z m38-165.5c-16.8 0-31.8-7.5-42-19.4-0.2-0.3-0.4-0.5-0.7-0.8-7.9-9.6-12.7-21.9-12.7-35.3v-3.1h110.8v3.1c0 30.6-24.9 55.5-55.4 55.5z m98-235.7c-0.7 0-1.4 0.1-2 0.2-1.5 0.1-3 0.2-4.5 0.2-30.5 0-55.4-24.9-55.4-55.4v-3h16.1c0.5 0 0.9 0 1.3-0.1h93.4v3.1c0 28.3-21.4 51.8-48.9 55zM874 385.5c4.3 2.9 7.1 7.8 7.1 13.3v16.1H770.4v-16.1c0-8.9 7.2-16.1 16.1-16.1h78.4c3.3 0 6.5 1 9.1 2.8z m-60.6-22.8c-7.5-30.1-19.5-58.8-35.7-85.4 1.7-1.2 3.3-2.4 4.9-3.8 17 27.8 29.4 57.7 37.1 89.2h-6.3z m-40-202.3c3.3 0 6.5 1 9.1 2.8 4.3 2.9 7.1 7.8 7.1 13.3v16.1H678.9v-16.1c0-4.6 2-8.8 5.1-11.7 0.4-0.3 0.8-0.6 1.1-0.9 2.7-2.1 6.2-3.4 9.9-3.4h78.4z m-110.3-0.7c-0.9 1.8-1.7 3.7-2.4 5.6-23.1-12.7-47.7-22.3-73.2-28.7v-6.3c26.2 6.4 51.6 16.3 75.6 29.4zM456.7 98.1c0-8.9 7.2-16.1 16.1-16.1h78.4c3.3 0 6.5 1 9.1 2.8 4.3 2.9 7.1 7.8 7.1 13.3v16.1H456.7V98.1z m-222.2 78.4c0-8.9 7.2-16.1 16.1-16.1H329c3.7 0 7.1 1.3 9.9 3.4 0.3 0.3 0.7 0.7 1.1 0.9l1.5 1.5c2.3 2.8 3.7 6.3 3.7 10.2v3.7c-0.1 0.9-0.1 1.9 0 2.8v9.6H234.5v-16z m7 96.9c1.6 1.3 3.2 2.6 4.9 3.8-16.2 26.6-28.2 55.3-35.8 85.5h-6.3c7.7-31.6 20.2-61.5 37.2-89.3zM143 398.8c0-8.9 7.2-16.1 16.1-16.1h78.2c5 0 9.5 2.3 12.5 5.9 2.3 2.8 3.7 6.3 3.7 10.2v16.1H143v-16.1z m0 39.2v-3.1h93.2c0.4 0.1 0.9 0.1 1.3 0.1h16.3v3c0 3.3-0.3 6.5-0.8 9.6-0.4 1-0.6 2-0.6 3.1-4.5 19-18.7 34.2-37.1 40.1-0.3 0.1-0.5 0.2-0.8 0.2-5.1 1.6-10.5 2.4-16.1 2.4-1.6 0-3.3-0.1-4.9-0.2-0.5-0.1-1.1-0.2-1.6-0.2-27.5-3.2-48.9-26.6-48.9-55z m146.9 290.7c-30.5 0-55.4-24.9-55.4-55.4v-3.1h110.8v3.1c0 5.1-0.7 10.1-2 14.8-0.5 1-0.8 2.1-1 3.2-2.1 6.2-5.3 11.9-9.4 16.9-0.6 0.6-1.2 1.2-1.6 1.9-10.2 11.4-25 18.6-41.4 18.6z m84.6 16.7c5.9 2.6 11.8 5.1 17.6 7.3l-63 141.5h-21.8l67.2-148.8zM892.4 942H131.6c-7.7 0-13.9-6.2-13.9-13.9s6.2-13.9 13.9-13.9h760.8c7.7 0 13.9 6.2 13.9 13.9 0 7.5-6.4 13.9-13.9 13.9z" fill="#4D3500" /></svg>