<?xml version="1.0" standalone="no"?><!DOCTYPE svg PUBLIC "-//W3C//DTD SVG 1.1//EN" "http://www.w3.org/Graphics/SVG/1.1/DTD/svg11.dtd"><svg class="icon" width="200px" height="200.00px" viewBox="0 0 1024 1024" version="1.1" xmlns="http://www.w3.org/2000/svg"><path d="M457 600.4L296.1 322.7c-12.3-21.3-43-21.3-55.4 0L79.8 600.4c-12.4 21.4 3 48.1 27.7 48.1h321.9c24.6 0 40-26.7 27.6-48.1z" fill="#EA800C" /><path d="M246.5 247.2L118.9 467.3c-9.8 16.9 2.4 38.1 22 38.1H396c19.6 0 31.8-21.2 22-38.1L290.4 247.2c-9.8-16.9-34.2-16.9-43.9 0zM227.6 648.5h81.6v82.9h-81.6v-82.9z" fill="#F2B843" /><path d="M923 789.4H101c-16 0-29-13-29-29s13-29 29-29h822c16 0 29 13 29 29s-13 29-29 29zM911.5 731.4H281.1s55.2-441 315.2-441 315.2 441 315.2 441z" fill="#2F9B77" /><path d="M742.2 731.4H450.5S476 455.2 596.3 455.2s145.9 276.2 145.9 276.2z" fill="#3DC38A" /><path d="M923 721.4h-2.8c-4.4-28.5-20.7-122-59.5-214.4-27.4-65.2-60.5-117.3-98.3-154.8-48.1-47.6-103.9-71.8-166-71.8s-117.9 24.2-166 71.8c-14 13.8-27.3 29.7-39.9 47.4l-91.2-157.4c-6.3-11.1-17.7-17.7-30.5-17.7h-0.1c-12.8 0-24.2 6.6-30.6 17.7l-127.7 220c-5.8 9.8-6.5 21.5-1.9 31.9 2.7 6.2 7.1 11.5 12.6 15.2l-49.9 86.1c-7.6 13.2-7.7 28.9-0.1 42.1 7.6 13.2 21.2 21 36.4 21h110.1v62.9H101c-21.5 0-39 17.5-39 39s17.5 39 39 39h822c21.5 0 39-17.5 39-39s-17.5-39-39-39zM444.5 366.3c44.2-43.7 95.2-65.9 151.8-65.9s107.6 22.2 151.8 65.9c36 35.6 67.6 85.4 94 148.1 36.8 87.6 53.1 176.3 57.9 207H751.2c-2.5-21.1-10.1-75.7-27.3-131.1-12.8-41.2-28.3-74.1-46-98-23.4-31.3-50.8-47.2-81.6-47.2-30.8 0-58.2 15.9-81.5 47.2-17.8 23.8-33.2 56.8-46 98-17.2 55.4-24.7 109.9-27.2 131.1H292.7c2.1-13.6 6.5-38.6 13.9-69.9 0.1-0.4 0.2-0.9 0.3-1.4 9.3-39 23.3-87.6 43.6-135.8l1.8-4.2c0.3-0.6 0.6-1.2 0.8-1.9 13.4-30.9 28-58.6 43.9-82.9 0.8-0.9 1.5-1.9 2-3 14.2-21.3 29.4-40.1 45.5-56zM731 721.4H461.7c2.7-22 10.2-73.8 26.2-125.1 12.1-39 26.5-69.9 42.9-91.9 19.4-26 41.4-39.1 65.5-39.1s46.1 13.1 65.5 39c16.4 22 30.9 52.8 43 91.8 15.9 51.3 23.5 103.3 26.2 125.3zM127.7 472.3l127.6-220.1c2.8-4.8 7.8-7.7 13.3-7.7 5.5 0 10.5 2.9 13.2 7.7L378 418c-14.7 23.1-28.4 48.9-41 77.4H140.9c-1.2 0-2.3-0.1-3.4-0.4-4.7-1-8.7-4.4-10.7-8.9-1.2-2.6-2.6-7.9 0.9-13.8zM88.4 627.5c-4-6.9-4-15.2 0-22.1l52.2-90h187.9c-17.7 43.5-30.4 86.9-39.3 123.1H107.5c-8 0-15.1-4.1-19.1-11z m149.2 31h46.9c-6.5 28.8-10.3 51.3-12.1 62.9h-34.8v-62.9zM923 779.4H101c-10.5 0-19-8.5-19-19s8.5-19 19-19h125.3c0.4 0.1 0.9 0.1 1.3 0.1h81.6c0.5 0 0.9 0 1.3-0.1H923c10.5 0 19 8.5 19 19s-8.5 19-19 19z" fill="#4D3500" /></svg>