<?xml version="1.0" standalone="no"?><!DOCTYPE svg PUBLIC "-//W3C//DTD SVG 1.1//EN" "http://www.w3.org/Graphics/SVG/1.1/DTD/svg11.dtd"><svg class="icon" width="200px" height="200.00px" viewBox="0 0 1024 1024" version="1.1" xmlns="http://www.w3.org/2000/svg"><path d="M507.259259 151.703704C730.074074 151.703704 919.343407 320.540444 919.343407 578.37037c0 225.564444 27.979852 265.481481-412.084148 265.481482C67.195259 843.851852 95.175111 803.934815 95.175111 578.37037 95.175111 320.540444 284.444444 151.703704 507.259259 151.703704z" fill="#F2B843" /><path d="M919.343407 578.37037c0 225.564444 27.979852 265.481481-412.084148 265.481482C67.195259 843.851852 95.175111 803.934815 95.175111 578.37037c0-20.66963 1.21363-40.760889 3.565037-60.235851 183.627852 64.44563 648.722963 63.544889 816.649482-3.062519 2.607407 20.432593 3.953778 41.547852 3.953777 63.29837z m-26.026666-156.984889l-1.564445 0.616297-1.972148 0.891259c-132.475259 63.326815-618.856296 64.142222-769.801481 1.991111a414.682074 414.682074 0 0 1 37.385481-79.976296c186.405926 42.05037 520.248889 41.652148 698.974815-1.365333a414.625185 414.625185 0 0 1 36.977778 77.842962zM507.259259 151.703704c107.747556 0 207.644444 39.471407 282.093037 109.406815-153.675852 26.69037-404.992 26.955852-564.897185 0.682666C298.979556 191.431111 399.179852 151.703704 507.259259 151.703704z" fill="#3DC38A" /><path d="M512 862.814815c236.126815 0 464.19437-31.440593 464.19437-94.312296C976.19437 669.847704 1007.710815 663.703704 512 663.703704S47.80563 669.847704 47.80563 768.502519C47.80563 831.374222 275.873185 862.814815 512 862.814815z" fill="#3DC38A" /><path d="M167.224889 774.229333c0 40.059259-0.910222 170.951111 43.671704 179.57926 44.581926 8.63763 53.077333-77.672296 58.955851-130.531556M838.731852 774.229333c0 40.059259 0.919704 170.951111-43.662222 179.57926-44.591407 8.63763-53.077333-77.672296-58.955852-130.531556" fill="#3DC38A" /><path d="M426.666667 156.444444a80.592593 71.111111 0 1 0 161.185185 0 80.592593 71.111111 0 1 0-161.185185 0Z" fill="#EA800C" /><path d="M75.851852 568.888889a180.148148 175.407407 90 1 0 350.814815 0 180.148148 175.407407 90 1 0-350.814815 0Z" fill="#FFFFFF" /><path d="M256 568.888889m-28.444444 0a28.444444 28.444444 0 1 0 56.888888 0 28.444444 28.444444 0 1 0-56.888888 0Z" fill="#00241F" /><path d="M587.851852 568.888889a180.148148 175.407407 90 1 0 350.814815 0 180.148148 175.407407 90 1 0-350.814815 0Z" fill="#FFFFFF" /><path d="M768 568.888889m-28.444444 0a28.444444 28.444444 0 1 0 56.888888 0 28.444444 28.444444 0 1 0-56.888888 0Z" fill="#00241F" /><path d="M507.259259 151.703704C730.074074 151.703704 919.343407 320.540444 919.343407 578.37037c0 225.564444 27.979852 265.481481-412.084148 265.481482-440.064 0-412.084148-39.917037-412.084148-265.481482C95.175111 320.540444 284.444444 151.703704 507.259259 151.703704z" fill="#F2B843" /><path d="M919.343407 578.37037l0.037926 13.312C920.272593 805.518222 938.524444 843.851852 507.259259 843.851852l-25.846518-0.047408C68.304593 842.183111 95.175111 799.431111 95.175111 578.37037c0-20.66963 1.21363-40.760889 3.565037-60.235851 183.627852 64.44563 648.722963 63.544889 816.649482-3.062519 2.607407 20.432593 3.953778 41.547852 3.953777 63.29837zM893.316741 421.385481l-1.564445 0.616297-1.972148 0.891259c-132.475259 63.326815-618.856296 64.142222-769.801481 1.991111a414.682074 414.682074 0 0 1 37.385481-79.976296c186.405926 42.05037 520.248889 41.652148 698.974815-1.365333a414.625185 414.625185 0 0 1 36.977778 77.842962zM507.259259 151.703704c107.747556 0 207.644444 39.471407 282.093037 109.406815-153.675852 26.69037-404.992 26.955852-564.897185 0.682666C298.979556 191.431111 399.179852 151.703704 507.259259 151.703704z" fill="#2F9B77" /><path d="M512 862.814815c236.126815 0 464.19437-31.440593 464.19437-94.312296C976.19437 669.847704 1007.710815 663.703704 512 663.703704s-464.19437 6.144-464.19437 104.798815C47.80563 831.374222 275.873185 862.814815 512 862.814815z" fill="#2F9B77" /><path d="M227.119407 645.537185l11.207112-0.284444c16.564148-0.199111 27.638519 1.355852 79.331555 11.150222l37.12 7.082667c62.388148 11.927704 107.643259 17.531259 159.345778 17.531259 55.589926 0 104.391111-5.129481 167.082667-15.758222l78.364444-13.511111c43.140741-7.205926 44.240593-6.238815 65.905778-5.338075a14.222222 14.222222 0 0 1-1.175704 28.416l-12.932741-0.502518c-12.420741-0.227556-23.04 1.261037-74.932148 10.230518l-42.097778 7.300741c-68.181333 11.851852-120.301037 17.607111-180.214518 17.607111-51.674074 0-96.938667-5.347556-157.089185-16.602074l-60.60563-11.501037c-43.747556-8.12563-48.592593-8.011852-68.437333-7.395555a14.222222 14.222222 0 0 1-0.872297-28.425482z" fill="#00241F" /><path d="M167.224889 774.229333c0 40.059259-0.910222 170.951111 43.671704 179.57926 44.581926 8.63763 53.077333-77.672296 58.955851-130.531556M838.731852 774.229333c0 40.059259 0.919704 170.951111-43.662222 179.57926-44.591407 8.63763-53.077333-77.672296-58.955852-130.531556" fill="#2F9B77" /><path d="M167.224889 760.007111a14.222222 14.222222 0 0 1 14.155852 12.856889l0.06637 1.365333v8.229926c0.06637 30.037333 0.730074 50.944 3.034074 74.638222l0.711111 6.77926c5.138963 45.50163 15.890963 73.557333 28.406519 75.975111 15.68237 3.034074 27.960889-20.271407 35.934815-69.499259l1.640296-10.761482c1.289481-8.931556 2.275556-17.47437 4.54163-37.888a14.222222 14.222222 0 0 1 28.264296 3.13837l-2.920296 25.637926a578.332444 578.332444 0 0 1-2.872889 20.821334c-4.352 28.16-9.974519 49.844148-18.280297 66.104889-11.643259 22.821926-29.127111 34.74963-51.712 30.378666-31.744-6.144-45.918815-45.093926-52.024889-107.937185l-0.824888-9.178074c-1.621333-19.655111-2.199704-38.229333-2.313482-62.388148l-0.028444-14.051556a14.222222 14.222222 0 0 1 14.222222-14.222222zM838.731852 760.007111a14.222222 14.222222 0 0 0-14.146371 12.856889l-0.06637 1.365333v8.229926c-0.06637 30.037333-0.730074 50.944-3.034074 74.638222l-0.711111 6.77926c-5.138963 45.50163-15.890963 73.557333-28.406519 75.975111-15.68237 3.034074-27.960889-20.271407-35.934814-69.499259l-1.640297-10.761482c-1.289481-8.931556-2.275556-17.47437-4.541629-37.888a14.222222 14.222222 0 0 0-28.273778 3.13837l2.929778 25.637926c0.967111 7.983407 1.72563 13.435259 2.872889 20.821334 4.342519 28.16 9.974519 49.844148 18.280296 66.104889 11.643259 22.821926 29.127111 34.74963 51.712 30.378666 31.744-6.144 45.918815-45.093926 52.024889-107.937185l0.824889-9.178074c1.621333-19.655111 2.199704-38.229333 2.313481-62.388148l0.028445-14.051556a14.222222 14.222222 0 0 0-14.222223-14.222222z" fill="#00241F" /><path d="M426.666667 156.444444a80.592593 71.111111 0 1 0 161.185185 0 80.592593 71.111111 0 1 0-161.185185 0Z" fill="#EA800C" /><path d="M587.851852 142.222222a14.222222 14.222222 0 0 1 14.222222 14.222222c0 23.324444-10.42963 45.074963-28.416 60.946963-17.635556 15.54963-41.291852 24.38637-66.398815 24.386371a14.222222 14.222222 0 0 1 0-28.444445c18.223407 0 35.176296-6.324148 47.578074-17.265777 11.377778-10.040889 18.024296-23.153778 18.725926-37.148445l0.066371-2.474667A14.222222 14.222222 0 0 1 587.851852 142.222222zM251.259259 374.518519c-104.817778 0-189.62963 87.10637-189.629629 194.37037s84.811852 194.37037 189.629629 194.37037 189.62963-87.10637 189.62963-194.37037-84.811852-194.37037-189.62963-194.37037z" fill="#00241F" /><path d="M251.259259 402.962963c88.936296 0 161.185185 74.202074 161.185185 165.925926s-72.248889 165.925926-161.185185 165.925926c-88.936296 0-161.185185-74.202074-161.185185-165.925926s72.248889-165.925926 161.185185-165.925926z" fill="#FFFFFF" /><path d="M256 568.888889m-28.444444 0a28.444444 28.444444 0 1 0 56.888888 0 28.444444 28.444444 0 1 0-56.888888 0Z" fill="#00241F" /><path d="M763.259259 374.518519c-104.817778 0-189.62963 87.10637-189.629629 194.37037s84.811852 194.37037 189.629629 194.37037 189.62963-87.10637 189.62963-194.37037-84.811852-194.37037-189.62963-194.37037z" fill="#00241F" /><path d="M763.259259 402.962963c88.936296 0 161.185185 74.202074 161.185185 165.925926s-72.248889 165.925926-161.185185 165.925926c-88.936296 0-161.185185-74.202074-161.185185-165.925926s72.248889-165.925926 161.185185-165.925926z" fill="#FFFFFF" /><path d="M768 568.888889m-28.444444 0a28.444444 28.444444 0 1 0 56.888888 0 28.444444 28.444444 0 1 0-56.888888 0Z" fill="#00241F" /></svg>
