<?xml version="1.0" standalone="no"?><!DOCTYPE svg PUBLIC "-//W3C//DTD SVG 1.1//EN" "http://www.w3.org/Graphics/SVG/1.1/DTD/svg11.dtd"><svg class="icon" width="200px" height="200.00px" viewBox="0 0 1024 1024" version="1.1" xmlns="http://www.w3.org/2000/svg"><path d="M680.7 659.1c-62 53.5-118.3 96.6-168.7 131.4-47.3 32.6-89.5 57.9-126.5 77.5-120.5 64-184 67.2-184 67.2l-20-96.2-96.2-20s8-160 254.3-453.6c7.1-8.4 14.3-16.9 21.8-25.6 39.1-45.3 78.8-82.5 117.8-112.8C707 49.6 917.8 102.5 917.8 102.5s72.6 289.2-237.1 556.6z" fill="#3DC38A" /><path d="M511.9 790.6c-47.3 32.6-89.5 57.9-126.5 77.5 8-65.9-3.3-132.9-38-195.2-50.9-91.6-31.2-220.7-8.1-307.6 7.1-8.4 14.3-16.9 21.8-25.6 39.1-45.3 78.8-82.5 117.8-112.8-22.9 86.8-42 215 8.5 305.9 45.8 82.3 50.9 172.6 24.5 257.8z" fill="#F2B843" /><path d="M244.3 776c-6.7-6.7-6.7-17.8 0-24.4l649-648.9c6.7-6.7 17.8-6.7 24.4 0 6.7 6.7 6.7 17.8 0 24.4L268.7 776c-6.7 6.8-17.7 6.8-24.4 0z" fill="#2F9B77" /><path d="M931.5 123.1c0.8-2.6 1.2-5.3 1.2-8.3 0-6.5-2.3-12.8-6.5-17.6-0.7-1.1-1.6-2.1-2.7-2.8-7.2-6.3-17.2-8.4-26.2-5.5-29.7-4-88.1-7.9-161.8 6.7-92.7 18.4-181 59.9-262.4 123.4-3.9 3-7.8 6.2-11.7 9.3-37.4 30.2-73.5 65.4-107.6 105-7.7 8.9-15 17.6-21.9 25.7l-0.2 0.2c-56.4 67.2-104.9 133-144.2 195.6-31.6 50.2-57.4 98.5-76.6 143.6-33.1 77.5-35.5 118.4-35.6 120.1-0.2 4.9 3.1 9.3 8 10.3l89.8 18.7 18.7 89.8c1 4.7 5.1 8 9.8 8h0.5c2.7-0.1 67.1-3.9 188.2-68.3 40.6-21.5 83.5-47.8 127.5-78.1 54.8-37.9 111.9-82.3 169.6-132.1 61.4-53 112.3-110.8 151.4-171.9 32.8-51.2 57.6-105.1 73.9-160.4 27.8-95.6 24-172.5 18.8-211.4zM503.4 784.2c-36.4 25-72.1 47.1-106.2 66 3.8-55.4-6.1-108.9-29.3-159.4L492.7 566c29.5 68.2 33.2 143.3 10.7 218.2z m-241.8-15.3c-1.3 1.3-3.1 2-5 2-2 0-3.8-0.7-5.2-2.1-1.3-1.3-2-3.1-2-5 0-2 0.7-3.8 2.1-5.2l93.9-93.8c0.9-0.6 1.6-1.4 2.3-2.3L485 525.2c1.3-0.8 2.4-1.9 3.2-3.2l412.4-412.3c0.5-0.5 1.2-1 2.3-1.5 2.6-1.1 5.4-0.7 7.5 1.1l0.5 0.5c1.3 1.3 2.1 3.1 2.1 5 0 1-0.1 1.7-0.3 2.2-0.2 0.3-0.3 0.6-0.5 0.9-0.3 0.6-0.7 1.3-1.4 1.9L261.6 768.9zM326 508.3c2-42.6 9.5-89.1 22.5-138.1 6.4-7.6 13.3-15.7 20.4-23.9 4.6-5.3 9.2-10.5 13.8-15.6 25.5-28.2 52.1-54 79.5-77.1-18 79.3-28.1 180 5.2 260.7L342.9 638.8c-13.5-36.5-19.2-80.3-16.9-130.5z m413.4-393.1c57.2-11.4 104.7-11.1 135.8-8.6L483 498.7c-18.3-49.8-29.5-133.6 5-265.9 78.2-60.4 162.8-100 251.4-117.6z m-530 808.9l-18.1-87.2c-0.8-3.9-3.9-6.9-7.8-7.8L96.3 811c2.4-15.4 10-51.5 33.7-106.6 47-109.2 124.6-218.2 189.6-299.1-7.5 35.7-12.1 69.9-13.6 102-2.6 56.8 4.6 106.1 21.4 146.8l-90.3 90.2c-5.2 5.2-8 12-8 19.4 0 7.3 2.9 14.1 8 19.1 5.2 5.2 12 8 19.4 8 7.3 0 14.1-2.9 19.1-8l76.9-76.9c21.3 49.2 29.2 101.5 23.4 155.6-58.5 30.7-102.5 46.2-129.4 53.9-17 5.2-29.5 7.6-37.1 8.7z m683.9-595.4C858.4 447.4 784.7 556 674.1 651.5c-49.3 42.5-98.1 81.1-145.4 115 17.2-74.3 10.1-148.2-20.9-215.6L913.7 145c3.3 40.6 2.5 105.6-20.4 183.7z" fill="#4D3500" /></svg>