<?xml version="1.0" standalone="no"?><!DOCTYPE svg PUBLIC "-//W3C//DTD SVG 1.1//EN" "http://www.w3.org/Graphics/SVG/1.1/DTD/svg11.dtd"><svg class="icon" width="200px" height="200.00px" viewBox="0 0 1024 1024" version="1.1" xmlns="http://www.w3.org/2000/svg"><path d="M922.7 767.9H249.9c-33.9 0-67.2-13.6-91.1-37.2l-36.9-36.4c-11.5-11.4-30.1-11.2-41.4 0.3-11.4 11.5-11.2 30.1 0.3 41.4l36.9 36.4c35.4 34.9 82.3 54.1 132.3 54.1h672.8c16.2 0 29.3-13.1 29.3-29.3s-13.2-29.3-29.4-29.3z" fill="#2F9B77" /><path d="M826.5 676.1H329.3c-40.7 0-73.7-33-73.7-73.7v-44.7s293.2 7.8 375-162.6C708 233.9 900.3 226.9 900.3 226.9v375.6c-0.1 40.6-33.1 73.6-73.8 73.6z" fill="#3DC38A" /><path d="M899.2 197.5c-2.2 0.1-53.6 2.2-115.1 25.5-82.7 31.3-144.9 86.3-179.9 159-72.4 150.5-343.9 145.8-347.8 145.7-16.2-0.4-29.6 12.3-30.1 28.5-0.4 16.2 12.3 29.6 28.5 30 1 0 3.7 0.1 8 0.1 50.3 0 312.2-8.4 394.2-179 28.5-59.2 77.6-102.6 146.1-128.9 52.8-20.3 97.8-22.4 98.2-22.4 16.2-0.6 28.8-14.2 28.2-30.3s-14.2-28.8-30.3-28.2z" fill="#FFD15B" /><path d="M899.2 197.5c-2.2 0.1-53.6 2.2-115.1 25.5-82.7 31.3-144.9 86.3-179.9 159-72.4 150.5-343.9 145.8-347.8 145.7-16.2-0.4-29.6 12.3-30.1 28.5-0.4 16.2 12.3 29.6 28.5 30 1 0 3.7 0.1 8 0.1 50.3 0 312.2-8.4 394.2-179 28.5-59.2 77.6-102.6 146.1-128.9 52.8-20.3 97.8-22.4 98.2-22.4 16.2-0.6 28.8-14.2 28.2-30.3s-14.2-28.8-30.3-28.2z" fill="#F2B843" /><path d="M370 676.1h58.6v91.8H370v-91.8zM730.4 676.1H789v91.8h-58.6v-91.8z" fill="#EA800C" /><path d="M922.7 757.9H799v-71.8h27.5c46.2 0 83.8-37.5 83.8-83.7V264.7c7.1-1.9 13.6-5.7 18.7-11.2 7.1-7.7 10.9-17.7 10.5-28.1-0.4-10.5-4.8-20.2-12.5-27.3-7.7-7.2-17.7-10.9-28.2-10.5h-0.1c-5.7 0.3-57.5 3.2-118.1 26.1-85.1 32.2-149.2 88.9-185.4 164-15.6 32.5-42.7 60.1-80.3 82-30.7 17.8-68.6 32-112.4 42-76.3 17.4-145.1 16.1-145.7 16.1-21.6-0.5-39.7 16.6-40.3 38.2-0.3 10.5 3.6 20.5 10.8 28.1 5.1 5.4 11.5 9.1 18.5 10.9v7.5c0 46.2 37.5 83.7 83.7 83.7H360V758H249.9c-31.3 0-62-12.5-84.1-34.3l-36.9-36.4c-7.4-7.3-17.2-11.3-27.6-11.3h-0.3c-10.5 0.1-20.4 4.2-27.7 11.7C66 695 62 704.9 62.1 715.4c0.1 10.5 4.2 20.4 11.7 27.7l36.9 36.4c37.3 36.7 86.7 57 139.3 57h672.8c21.7 0 39.3-17.6 39.3-39.3s-17.7-39.3-39.4-39.3z m-143.7 0h-38.6v-71.8H779v71.8z m-340.4 0v-71.8h281.8v71.8H438.6zM236.3 556.5c0.3-10.6 9.2-19.1 19.8-18.8 0.7 0 70.8 1.6 150.7-16.6 45.8-10.4 85.6-25.3 118-44.2 41.2-23.9 70.9-54.4 88.3-90.6 33.9-70.4 94.2-123.6 174.4-154 57.8-21.9 106.6-24.6 111.9-24.9 5.1-0.2 10 1.7 13.7 5.2 3.8 3.5 6 8.3 6.2 13.4 0.2 5.1-1.6 10-5.1 13.8-3.5 3.8-8.3 6-13.4 6.2h-0.7c-0.6 0-1.2 0.1-1.8 0.2-10.9 0.8-52 4.8-99 22.9C728.6 296.3 677.7 341.3 648 403c-18.1 37.6-46.9 69.9-85.7 96-32.3 21.7-71.6 39.3-117 52.2-81.7 23.3-160.3 25.1-182.5 25.1-2.8 0-4.9 0-6.3-0.1H255.6h-0.6c-5.1-0.2-9.9-2.3-13.4-6-3.6-3.7-5.4-8.6-5.3-13.7z m29.3 45.9v-6.1c58.5-0.3 317.3-11.8 400.4-184.7 27.4-56.9 74.7-98.6 140.7-123.9 35.7-13.7 67.4-18.9 83.6-20.7v335.4c0 35.1-28.6 63.7-63.8 63.7H329.3c-35.1 0-63.7-28.6-63.7-63.7zM380 686.1h38.6v71.8H380v-71.8z m542.8 130.4H250c-47.3 0-91.8-18.2-125.3-51.2l-36.9-36.4c-3.7-3.6-5.7-8.4-5.7-13.6 0-5.1 1.9-10 5.6-13.6 3.6-3.7 8.4-5.7 13.6-5.7h0.1c5.1 0 9.9 2 13.5 5.6l36.9 36.4c25.8 25.5 61.6 40.1 98.1 40.1h672.8c10.7 0 19.4 8.7 19.4 19.3s-8.7 19.1-19.3 19.1z" fill="#4D3500" /></svg>